<svg width="32" height="32" viewBox="0 0 32 32" fill="none" xmlns="http://www.w3.org/2000/svg">
<g id="Frame" clip-path="url(#clip0_234_134648)">
<g id="Group">
<g id="Group_2">
<path id="Vector" fill-rule="evenodd" clip-rule="evenodd" d="M20.23 11.9606C18.479 9.9074 15.3528 9.8599 14.2481 11.1843C13.0238 10.8799 12.0305 12.1011 11.7251 13.2183C11.3161 14.7141 11.8727 16.3194 12.0692 17.9462C12.1154 18.3288 12.1417 18.7126 12.1308 19.0965C12.0856 20.6903 11.1763 22.2849 9.9458 23.7984C11.8171 24.5784 21.2157 24.572 23.3339 24.1573C22.1685 22.2102 21.9622 20.0095 21.8214 17.9462C21.6592 15.5695 21.5839 13.375 20.23 11.9606Z" fill="#2C3033"/>
<path id="Vector_2" fill-rule="evenodd" clip-rule="evenodd" d="M16.6099 31.315H26.7642V28.8435C26.7642 27.1351 26.0514 26.5696 24.4603 25.9479L20.3799 24.3539L19.1367 23.3674H14.0831L12.8399 24.3539L8.7595 25.9479C7.16838 26.5695 6.45557 27.1351 6.45557 28.8435V31.315H16.6099Z" fill="#4F5D99"/>
<path id="Vector_3" fill-rule="evenodd" clip-rule="evenodd" d="M20.2712 31.315H20.9131L21.4862 24.7862L20.8654 24.5437L20.271 31.315H20.2712Z" fill="#45518A"/>
<path id="Vector_4" fill-rule="evenodd" clip-rule="evenodd" d="M16.6096 31.3151H20.2708L20.8652 24.5438L20.3796 24.3541L19.1364 23.3677L16.8636 25.9637H16.3556L14.0828 23.3677L12.8396 24.3541L12.354 24.5438L12.9484 31.3151H16.6096Z" fill="#E7EBF5"/>
<path id="Vector_5" fill-rule="evenodd" clip-rule="evenodd" d="M16.6838 20.1858H18.7204L18.9363 24.9752L16.8639 25.9638H16.356L14.2837 24.9752L14.4996 20.1858H16.61H16.6838Z" fill="#EDBB8A"/>
<path id="Vector_6" fill-rule="evenodd" clip-rule="evenodd" d="M16.6836 20.1858H18.7202L18.9361 24.9752L16.8637 25.9638H16.3558L15.2241 25.4239L15.4602 20.1858H16.6098H16.6836Z" fill="#F9C795"/>
<path id="Vector_7" fill-rule="evenodd" clip-rule="evenodd" d="M16.8638 25.9637L18.4498 28.1069L20.3799 24.3541L19.1367 23.3677L16.8638 25.9637ZM16.3559 25.9637L14.77 28.1069L12.8398 24.3541L14.0831 23.3677L16.3559 25.9637Z" fill="white"/>
<path id="Vector_8" fill-rule="evenodd" clip-rule="evenodd" d="M13.0028 18.4689C12.9539 17.7913 12.8539 16.8378 12.8539 16.8378C12.7288 16.7232 12.5094 16.5182 12.2657 16.3414C11.8712 16.0553 11.3453 16.0902 11.1194 16.4543C10.9974 16.651 11.0823 16.9101 11.1818 17.1619C11.1896 17.182 11.4233 17.5749 11.6138 17.9776C11.8217 18.4171 11.7643 18.6147 12.1332 18.8698C12.4366 19.0796 12.8529 18.9361 13.0028 18.4689Z" fill="#F9C795"/>
<path id="Vector_9" fill-rule="evenodd" clip-rule="evenodd" d="M12.4605 16.7915C12.4368 16.7441 12.404 16.702 12.3639 16.6674C12.3238 16.6328 12.2773 16.6065 12.227 16.59C12.1767 16.5735 12.1236 16.5672 12.0708 16.5713C12.018 16.5754 11.9666 16.5899 11.9195 16.6141C11.8724 16.6382 11.8305 16.6714 11.7962 16.7117C11.762 16.7521 11.7361 16.7989 11.7201 16.8493C11.704 16.8998 11.6981 16.9529 11.7027 17.0056C11.7073 17.0584 11.7222 17.1097 11.7467 17.1566C11.8521 17.3611 11.9324 17.5353 12.0054 17.7122C12.0784 17.889 12.1427 18.0661 12.2165 18.2781C12.2521 18.3778 12.3255 18.4593 12.4209 18.5051C12.5163 18.5508 12.6259 18.5571 12.7258 18.5225C12.8258 18.4879 12.9081 18.4152 12.9548 18.3203C13.0015 18.2254 13.0088 18.1159 12.9752 18.0156C12.8961 17.7883 12.8271 17.5982 12.7486 17.4081C12.6702 17.2181 12.581 17.0255 12.4606 16.7914L12.4605 16.7915Z" fill="#EDB47C"/>
<path id="Vector_10" fill-rule="evenodd" clip-rule="evenodd" d="M20.7067 17.9462C21.0202 16.507 20.1851 15.5042 19.4431 15.3928C16.7608 14.9903 16.0843 13.517 14.2856 13.2122C14.4406 14.129 13.5701 15.3081 12.2656 16.3415C12.4631 18.551 13.415 22.0193 15.7538 22.9387C16.1063 23.0773 16.236 22.9522 16.6099 22.9482C16.9424 22.9482 17.1233 23.0735 17.4661 22.9387C19.2891 22.2221 20.2694 19.9568 20.7067 17.9462V17.9462Z" fill="#F2CB9F"/>
<path id="Vector_11" fill-rule="evenodd" clip-rule="evenodd" d="M20.7067 17.9462C21.0202 16.507 20.1851 15.5042 19.4431 15.3928C16.7609 14.9903 16.0843 13.517 14.2857 13.2122C14.4406 14.129 14.2498 15.3433 12.9453 16.3767C13.11 18.2194 13.6937 21.2795 15.2735 22.7035C15.4271 22.7944 15.5877 22.8731 15.7537 22.9387C16.1063 23.0773 16.236 22.9522 16.6099 22.9482C16.9424 22.9482 17.1233 23.0735 17.4661 22.9387C19.2891 22.2221 20.2694 19.9568 20.7067 17.9462L20.7067 17.9462Z" fill="#FDD7AD"/>
<path id="Vector_12" fill-rule="evenodd" clip-rule="evenodd" d="M16.3559 25.9636L14.77 28.1068L12.8398 24.354L14.7322 28.501L16.4674 26.1561H16.7524L18.4876 28.501L20.3799 24.354L18.4498 28.1068L16.8638 25.9636L16.3559 25.9636Z" fill="#D6DBE8"/>
<path id="Vector_13" fill-rule="evenodd" clip-rule="evenodd" d="M12.9484 31.315H12.3065L11.7334 24.7862L12.3542 24.5437L12.9486 31.315H12.9484Z" fill="#45518A"/>
<path id="Vector_14" fill-rule="evenodd" clip-rule="evenodd" d="M27.2729 9.35693L28.4823 11.9311L31.3042 12.2857L29.2298 14.2314L29.7644 17.0248L27.2729 15.6531L24.7815 17.0248L25.3161 14.2314L23.2417 12.2857L26.0636 11.9311L27.2729 9.35693Z" fill="#F9AC00"/>
<path id="Vector_15" fill-rule="evenodd" clip-rule="evenodd" d="M27.5588 9.96533L28.4823 11.931L31.3042 12.2857L29.2297 14.2314L29.6754 16.5598L27.6506 15.4451L27.2729 15.6531L25.4864 16.6366L25.9872 14.02L24.0322 12.1863L26.6712 11.8546L27.5588 9.96533Z" fill="#FDC72E"/>
<path id="Vector_16" fill-rule="evenodd" clip-rule="evenodd" d="M6.45673 17.6743C6.45673 18.046 6.1526 18.3502 5.78091 18.3502H3.29229C2.92054 18.3502 2.61641 18.046 2.61641 17.6743V17.3157C2.61641 15.4556 0.696289 14.9331 0.696289 12.4334C0.696289 10.1399 2.61641 8.99316 4.5366 8.99316C6.45679 8.99316 8.37691 10.1399 8.37691 12.4334C8.37691 14.9331 6.45673 15.4556 6.45673 17.3157V17.6743Z" fill="#F9AC00"/>
<path id="Vector_17" fill-rule="evenodd" clip-rule="evenodd" d="M6.45653 17.6742C6.45653 18.0459 6.15241 18.35 5.78072 18.35H4.18578C3.81409 18.35 3.50997 18.0459 3.50997 17.6742V17.3156C3.50997 15.4555 1.58984 14.933 1.58984 12.4334C1.58984 10.3181 3.22309 9.17829 4.98328 9.01392C6.74347 9.17835 8.37672 10.3182 8.37672 12.4334C8.37672 14.933 6.45659 15.4555 6.45659 17.3156L6.45653 17.6742Z" fill="#FDC72E"/>
<path id="Vector_18" fill-rule="evenodd" clip-rule="evenodd" d="M3.50977 17.7715H5.56389V18.7259C5.56389 19.0104 5.33108 19.2432 5.04664 19.2432H4.02702C3.74252 19.2432 3.50977 19.0104 3.50977 18.7259V17.7715Z" fill="#45518A"/>
<path id="Vector_19" fill-rule="evenodd" clip-rule="evenodd" d="M4.12939 17.7715H5.56377V18.7259C5.56377 19.0104 5.33096 19.2432 5.04652 19.2432H4.64664C4.36221 19.2432 4.12939 19.0104 4.12939 18.7259V17.7715Z" fill="#4F5D99"/>
<path id="Vector_20" fill-rule="evenodd" clip-rule="evenodd" d="M6.45652 17.6743C6.45652 18.046 6.1524 18.3502 5.78071 18.3502H3.29209C2.92034 18.3502 2.61621 18.046 2.61621 17.6743V17.3157H6.45652V17.6743Z" fill="#6A75AD"/>
<path id="Vector_21" fill-rule="evenodd" clip-rule="evenodd" d="M6.45682 17.6743C6.45682 18.0457 6.15319 18.3497 5.78188 18.3501H4.18607C3.81438 18.3501 3.51025 18.046 3.51025 17.6743V17.3157H6.45688L6.45682 17.6743Z" fill="#7986BF"/>
<path id="Vector_22" fill-rule="evenodd" clip-rule="evenodd" d="M4.2255 17.3156V15.3047C4.2255 15.2789 4.22443 15.2532 4.22468 15.2274C4.07643 15.1667 3.93581 15.0699 3.80812 14.9424C3.5035 14.6382 3.25969 14.1428 3.16675 13.5459C3.15412 13.4643 3.17443 13.3811 3.22319 13.3145C3.27195 13.2479 3.34517 13.2034 3.42675 13.1907C3.50833 13.1781 3.59158 13.1984 3.65819 13.2472C3.7248 13.2959 3.76931 13.3692 3.78194 13.4507C3.85381 13.9125 4.03044 14.2837 4.2475 14.5005C4.25487 14.5079 4.26219 14.515 4.26956 14.522C4.35775 13.814 4.56231 13.3651 4.77356 13.1341C4.93219 12.9607 5.11119 12.8812 5.28131 12.8841C5.48587 12.8876 5.65512 12.9975 5.75706 13.1988C5.87587 13.4334 5.89081 13.8304 5.69562 14.3219C5.52675 14.747 5.30431 15.0208 5.05956 15.1672C4.99351 15.2071 4.92293 15.2389 4.84931 15.2619L4.848 15.3047V17.3157H4.22544L4.2255 17.3156ZM5.22431 13.5633C5.094 13.7122 4.9685 14.0076 4.90087 14.4862C4.97668 14.3919 5.04969 14.262 5.11712 14.0923C5.21131 13.8552 5.23925 13.677 5.22431 13.5633Z" fill="#FF6600"/>
</g>
<path id="Vector_23" d="M17.9658 7.555C19.7881 6.80649 20.6586 4.72241 19.9101 2.90007C19.1616 1.07774 17.0775 0.207231 15.2552 0.95574C13.4329 1.70425 12.5624 3.78833 13.3109 5.61066C14.0594 7.433 16.1435 8.30351 17.9658 7.555Z" fill="#3FC977"/>
<path id="Vector_24" fill-rule="evenodd" clip-rule="evenodd" d="M16.9968 0.705811C18.7849 0.898623 20.1772 2.41262 20.1772 4.252C20.1772 6.09137 18.7849 7.60537 16.9968 7.79819C15.2087 7.60537 13.8164 6.09137 13.8164 4.252C13.8164 2.41262 15.2087 0.898623 16.9968 0.705811Z" fill="#4FE88E"/>
<path id="Vector_25" fill-rule="evenodd" clip-rule="evenodd" d="M14.8397 4.22982C14.8194 4.19439 14.8062 4.1553 14.8009 4.11478C14.7957 4.07426 14.7985 4.0331 14.8091 3.99365C14.8198 3.9542 14.8381 3.91724 14.863 3.88487C14.888 3.8525 14.919 3.82537 14.9545 3.80501C14.9899 3.78465 15.029 3.77147 15.0695 3.76622C15.11 3.76096 15.1512 3.76375 15.1906 3.7744C15.2301 3.78506 15.267 3.80338 15.2994 3.82832C15.3318 3.85326 15.3589 3.88433 15.3793 3.91976L15.9271 4.8687L17.8893 2.90657C17.9482 2.84965 18.0272 2.81815 18.1091 2.81886C18.191 2.81957 18.2694 2.85244 18.3273 2.91038C18.3853 2.96832 18.4181 3.0467 18.4189 3.12863C18.4196 3.21057 18.3881 3.28951 18.3311 3.34845L16.0821 5.59751L16.0812 5.59663C16.0474 5.63043 16.0063 5.65598 15.9611 5.67132C15.9158 5.68666 15.8676 5.69137 15.8203 5.68509C15.7729 5.6788 15.7276 5.66169 15.6879 5.63507C15.6482 5.60846 15.6152 5.57307 15.5914 5.53163L14.8398 4.22982H14.8397Z" fill="white"/>
<path id="Vector_26" fill-rule="evenodd" clip-rule="evenodd" d="M10.7958 7.74146C10.714 7.74002 10.636 7.70643 10.5788 7.64795C10.5215 7.58947 10.4896 7.51081 10.4899 7.42898C10.4902 7.34715 10.5228 7.26873 10.5805 7.2107C10.6382 7.15267 10.7164 7.11969 10.7982 7.1189L12.0851 7.1259C12.2814 7.12665 12.4265 7.30596 12.3895 7.49683L12.1406 8.75946C12.1248 8.84071 12.0773 8.91234 12.0086 8.95858C11.9399 9.00482 11.8557 9.02188 11.7745 9.00602C11.6932 8.99016 11.6216 8.94267 11.5753 8.87399C11.5291 8.80532 11.512 8.72109 11.5279 8.63983L11.6105 8.22208L9.46584 9.95727C9.40125 10.0077 9.31943 10.0308 9.238 10.0215C9.15657 10.0122 9.08205 9.9713 9.0305 9.90758C8.97895 9.84386 8.95449 9.76245 8.9624 9.68087C8.9703 9.59929 9.00994 9.52409 9.07277 9.47146L11.2083 7.74371L10.7958 7.74146H10.7958ZM22.493 10.3702C22.4104 10.3705 22.3311 10.338 22.2725 10.2799C22.2139 10.2218 22.1808 10.1427 22.1805 10.0601C22.1801 9.97759 22.2126 9.89829 22.2708 9.83968C22.3289 9.78108 22.408 9.74797 22.4905 9.74765L22.903 9.7454L20.3415 7.67308C20.2787 7.62046 20.2391 7.54525 20.2311 7.46367C20.2232 7.3821 20.2477 7.30068 20.2992 7.23696C20.3508 7.17325 20.4253 7.13233 20.5067 7.12304C20.5882 7.11374 20.67 7.13681 20.7346 7.18727L23.3052 9.26702L23.2226 8.84927C23.208 8.76852 23.2257 8.68526 23.272 8.6175C23.3183 8.54974 23.3894 8.50293 23.47 8.4872C23.5505 8.47148 23.634 8.4881 23.7024 8.53348C23.7708 8.57885 23.8185 8.64932 23.8353 8.72965L24.0841 9.99227C24.1211 10.183 23.9761 10.3625 23.7798 10.3632L22.4929 10.3702H22.493ZM16.3713 30.4181C16.3713 30.3352 16.4042 30.2557 16.4628 30.1971C16.5214 30.1385 16.6009 30.1056 16.6838 30.1056C16.7667 30.1056 16.8461 30.1385 16.9047 30.1971C16.9633 30.2557 16.9963 30.3352 16.9963 30.4181V30.5657C16.9963 30.6486 16.9633 30.7281 16.9047 30.7867C16.8461 30.8453 16.7667 30.8782 16.6838 30.8782C16.6009 30.8782 16.5214 30.8453 16.4628 30.7867C16.4042 30.7281 16.3713 30.6486 16.3713 30.5657V30.4181ZM16.3713 28.1438C16.3713 28.0609 16.4042 27.9814 16.4628 27.9228C16.5214 27.8642 16.6009 27.8313 16.6838 27.8313C16.7667 27.8313 16.8461 27.8642 16.9047 27.9228C16.9633 27.9814 16.9963 28.0609 16.9963 28.1438V28.2914C16.9963 28.3743 16.9633 28.4538 16.9047 28.5124C16.8461 28.571 16.7667 28.6039 16.6838 28.6039C16.6009 28.6039 16.5214 28.571 16.4628 28.5124C16.4042 28.4538 16.3713 28.3743 16.3713 28.2914V28.1438Z" fill="#2C3033"/>
</g>
</g>
<defs>
<clipPath id="clip0_234_134648">
<rect width="32" height="32" fill="white"/>
</clipPath>
</defs>
</svg>
