<svg width="32" height="32" viewBox="0 0 32 32" fill="none" xmlns="http://www.w3.org/2000/svg">
<g id="Frame" clip-path="url(#clip0_234_134743)">
<g id="Group">
<g id="Clip path group">
<mask id="mask0_234_134743" style="mask-type:luminance" maskUnits="userSpaceOnUse" x="0" y="0" width="32" height="32">
<g id="a">
<path id="Vector" d="M0 9.34601e-05H31.9999V32H0V9.34601e-05Z" fill="white"/>
</g>
</mask>
<g mask="url(#mask0_234_134743)">
<g id="Group_2">
<path id="Vector_2" d="M19.2354 27.6516H12.7646V30.2468C12.7646 30.9579 13.3411 31.5344 14.0522 31.5344H17.9478C18.6589 31.5344 19.2354 30.9579 19.2354 30.2468V27.6516Z" fill="#EAF6FF"/>
<path id="Vector_3" d="M15.9271 31.5344H14.0521C13.3415 31.5344 12.7646 30.9582 12.7646 30.2469V27.6513H14.6396V30.2469C14.6396 30.9582 15.2165 31.5344 15.9271 31.5344Z" fill="#D8ECFE"/>
<path id="Vector_4" d="M19.8827 27.6453H12.1171C11.581 27.6453 11.1465 27.2106 11.1465 26.6746C11.1465 26.1385 11.581 25.7039 12.1171 25.7039H19.8827C20.4188 25.7039 20.8533 26.1385 20.8533 26.6746C20.8533 27.2106 20.4188 27.6453 19.8827 27.6453Z" fill="#EAF6FF"/>
<path id="Vector_5" d="M13.9927 27.645H12.1177C11.5815 27.645 11.1465 27.2106 11.1465 26.6744C11.1465 26.4063 11.2552 26.1638 11.4309 25.9881C11.6065 25.8125 11.8496 25.7038 12.1177 25.7038H13.9927C13.7246 25.7038 13.4815 25.8125 13.3059 25.9881C13.2156 26.0782 13.144 26.1851 13.0952 26.3029C13.0464 26.4207 13.0213 26.5469 13.0215 26.6744C13.0215 27.2106 13.4565 27.645 13.9927 27.645Z" fill="#D8ECFE"/>
<path id="Vector_6" d="M17.6173 18.9227C17.6173 19.8164 16.8936 20.5408 15.9998 20.5408V25.2483H12.7643V24.3008C12.7643 23.6808 12.4105 23.112 11.8498 22.8464C8.56546 21.2902 6.29297 17.9458 6.29297 14.0702V14.0589H9.52858V14.0696C9.52858 14.9627 10.253 15.6877 11.1461 15.6877C12.0398 15.6877 12.7643 14.9627 12.7643 14.0696V14.0589H15.9998V17.3052C16.8936 17.3052 17.6173 18.0296 17.6173 18.9227Z" fill="#AEE69C"/>
<path id="Vector_7" d="M14.0143 24.3008V25.2483H12.7643V24.3008C12.7643 23.6808 12.4105 23.112 11.8498 22.8464C8.56546 21.2902 6.29297 17.9458 6.29297 14.0702V14.0589H7.54296V14.0702C7.54296 17.9458 9.81546 21.2902 13.0998 22.8464C13.6605 23.112 14.0143 23.6808 14.0143 24.3008Z" fill="#89DAA4"/>
<path id="Vector_8" d="M25.7069 14.0589V14.0696C25.7069 17.9439 23.4369 21.2877 20.1537 22.8445C19.5919 23.1108 19.2356 23.6789 19.2356 24.3008V25.707H16V20.5408C16.8937 20.5408 17.6175 19.8164 17.6175 18.9227C17.6175 18.0296 16.8937 17.3052 16 17.3052V14.0589H19.2356C19.2413 13.1702 19.9637 12.4514 20.8538 12.4514C21.7431 12.4514 22.4657 13.1702 22.4712 14.0589H25.7069Z" fill="#8AC9FE"/>
<path id="Vector_9" d="M25.7067 14.0588H22.471C22.4654 13.1701 21.7429 12.4513 20.8536 12.4513C19.9635 12.4513 19.2411 13.1701 19.2354 14.0588H15.9998V10.8338C15.1061 10.8338 14.3823 10.1095 14.3823 9.21573C14.3823 8.32198 15.1061 7.59823 15.9998 7.59823V4.36262C21.3572 4.36262 25.701 8.7026 25.7067 14.0588Z" fill="#FFE177"/>
<path id="Vector_10" d="M14.3824 9.21564C14.3824 10.1094 15.1061 10.8338 15.9999 10.8338V14.0588H12.7643V14.0694C12.7643 14.9625 12.0399 15.6875 11.1461 15.6875C10.253 15.6875 9.52865 14.9625 9.52865 14.0694V14.0588H6.29297C6.29866 8.68752 10.6286 4.36253 15.9999 4.36253V7.59815C15.1061 7.59815 14.3824 8.3219 14.3824 9.21564Z" fill="#FE646F"/>
<path id="Vector_11" d="M15.9999 4.36262V4.44199C11.2225 5.05136 7.54803 9.11135 7.54297 14.0588H6.29297C6.29866 8.6876 10.6287 4.36262 15.9999 4.36262Z" fill="#FD4755"/>
</g>
</g>
</g>
</g>
</g>
<defs>
<clipPath id="clip0_234_134743">
<rect width="32" height="32" fill="white"/>
</clipPath>
</defs>
</svg>
