<svg width="32" height="32" viewBox="0 0 32 32" fill="none" xmlns="http://www.w3.org/2000/svg">
<g id="Frame">
<g id="Group">
<g id="Group_2">
<path id="Vector" fill-rule="evenodd" clip-rule="evenodd" d="M27.0439 23.319V16.6133H23.5089L19.1219 15.9601C18.4358 15.858 17.8082 16.0197 17.2571 16.4407L15.9799 17.4163L11.5493 20.8005L13.5391 23.1248L22.4306 22.392L24.2286 23.686C24.338 23.7646 24.4278 23.8675 24.4909 23.9865L24.9811 23.6374C25.2845 23.4213 25.6045 23.319 25.9771 23.319H27.0439V23.319Z" fill="#E0B375"/>
<path id="Vector_2" fill-rule="evenodd" clip-rule="evenodd" d="M27.044 22.1203V16.6133H23.509L19.122 15.9601C18.4359 15.8579 17.8083 16.0197 17.2572 16.4407L15.98 17.4163L12.1699 20.3266L13.5392 21.9261L22.3085 23.5806C22.3014 23.7196 23.5465 23.3013 23.6078 23.4169L23.9735 23.1564L24.9812 22.4387C25.2846 22.2226 25.6046 22.1203 25.9772 22.1203H27.044Z" fill="#EDC082"/>
<path id="Vector_3" fill-rule="evenodd" clip-rule="evenodd" d="M19.2519 19.9403L22.4306 22.3921L24.2286 23.6861C25.2405 24.4143 23.7246 26.388 22.8287 25.7433C23.9164 26.5263 22.4017 28.5005 21.4291 27.8004L20.9348 27.4448C21.9282 28.1597 20.4752 30.1785 19.482 29.4637L19.0545 29.1559C20.0477 29.871 18.595 31.8897 17.6014 31.1748L15.8035 29.8809L7.02179 23.6367C6.71854 23.4211 6.39898 23.3191 6.02692 23.3191H4.95654V16.6133H8.49154L12.8569 15.9648C13.547 15.8623 14.1785 16.0269 14.7308 16.4532L15.9795 17.4169L13.8696 19.0285C12.7044 19.9186 14.5134 22.2871 15.6789 21.3969L16.8722 20.4854L17.591 19.9364C18.0887 19.5563 18.7562 19.5578 19.2521 19.9403L19.2519 19.9403Z" fill="#F0CD9C"/>
<path id="Vector_4" fill-rule="evenodd" clip-rule="evenodd" d="M19.2519 19.9403L22.4306 22.3921L24.2287 23.6861C25.2406 24.4143 23.7247 26.388 22.8287 25.7433C23.9164 26.5263 22.4017 28.5005 21.4291 27.8004L20.9348 27.4448C21.9282 28.1597 20.4751 30.1785 19.482 29.4637L19.0545 29.1559C19.13 29.2103 19.209 29.3006 19.288 29.417C19.75 30.2616 18.4917 31.8153 17.6014 31.1748L15.8034 29.8809L11.4209 26.7647L9.47835 25.5387L9.05217 23.8423L7.02179 22.438C6.71586 22.2263 6.39886 22.1203 6.02692 22.1203H4.95654V16.6133H8.49154L12.8569 15.9648C13.547 15.8623 14.1785 16.0269 14.7308 16.4532L15.1989 16.8144L15.2011 16.8162L15.9795 17.4169L13.8696 19.0285C13.777 19.0992 13.7034 19.1793 13.6465 19.2663C13.6367 19.2813 13.6273 19.2966 13.6185 19.312C13.6144 19.3192 13.6107 19.3267 13.6069 19.334C13.6016 19.3438 13.5963 19.3535 13.5914 19.3634C13.5874 19.3716 13.5838 19.38 13.58 19.3883C13.5759 19.3975 13.5717 19.4067 13.5679 19.416C13.5642 19.4248 13.5609 19.4337 13.5576 19.4426C13.5542 19.4517 13.5508 19.4607 13.5476 19.4698C13.5445 19.4789 13.5417 19.488 13.5389 19.4972C13.5361 19.5064 13.5333 19.5156 13.5307 19.5249C13.5232 19.5528 13.5168 19.581 13.5115 19.6094C13.5097 19.6189 13.5082 19.6283 13.5067 19.6378C13.5037 19.657 13.5013 19.6762 13.4995 19.6955C13.4985 19.7054 13.4975 19.7152 13.4968 19.7252C13.4961 19.7347 13.4957 19.7443 13.4952 19.754C13.4948 19.7638 13.4943 19.7737 13.494 19.7837C13.4939 19.7938 13.4939 19.804 13.4939 19.8142C13.4939 19.8238 13.4939 19.8333 13.4942 19.843C13.4945 19.8532 13.4951 19.8634 13.4956 19.8736C13.4961 19.8835 13.4965 19.8933 13.4972 19.9032C13.4979 19.9127 13.499 19.9223 13.4999 19.9319C13.5018 19.9512 13.504 19.9704 13.5067 19.9898C13.5082 20.0005 13.5095 20.0112 13.5113 20.0218C13.5129 20.0316 13.5148 20.0414 13.5166 20.0512C13.5185 20.0616 13.5203 20.072 13.5224 20.0825C13.5245 20.0926 13.5269 20.1027 13.5292 20.1128C13.5315 20.123 13.5337 20.1332 13.5362 20.1433C13.5387 20.1535 13.5414 20.1636 13.5441 20.1737C13.5469 20.184 13.5496 20.1943 13.5525 20.2046C13.5554 20.2145 13.5585 20.2245 13.5615 20.2344C13.5647 20.2447 13.5679 20.255 13.5713 20.2653C13.5881 20.3164 13.6071 20.3667 13.6282 20.4162C13.6325 20.4263 13.637 20.4365 13.6415 20.4465C13.6458 20.4563 13.6502 20.466 13.6547 20.4757C13.6594 20.486 13.6644 20.4961 13.6693 20.5063C13.674 20.5159 13.6786 20.5255 13.6834 20.5351C13.6887 20.5457 13.6943 20.5561 13.6998 20.5667C13.7045 20.5755 13.709 20.5845 13.7139 20.5933C13.7204 20.6053 13.7271 20.6171 13.7339 20.6289C13.738 20.6363 13.7422 20.6438 13.7465 20.6512C13.7575 20.67 13.7688 20.6887 13.7804 20.7072C13.7837 20.7125 13.7872 20.7177 13.7905 20.723C13.7992 20.7366 13.8079 20.7502 13.8169 20.7636C13.8221 20.7714 13.8275 20.7791 13.8329 20.7868C13.8402 20.7975 13.8474 20.8082 13.8549 20.8187C13.8611 20.8273 13.8674 20.8358 13.8737 20.8444C13.8805 20.8538 13.8874 20.8632 13.8944 20.8724C13.9009 20.881 13.9076 20.8895 13.9142 20.898C13.9215 20.9073 13.9288 20.9167 13.9362 20.9258C13.9428 20.9341 13.9495 20.9422 13.9563 20.9503C13.9705 20.9676 13.985 20.9846 13.9998 21.0013C14.0076 21.0102 14.0155 21.019 14.0235 21.0278L14.0449 21.0512C14.053 21.0598 14.0613 21.0685 14.0695 21.077C14.0768 21.0845 14.084 21.092 14.0913 21.0993C14.0995 21.1077 14.1079 21.1158 14.1162 21.1239C14.1322 21.1395 14.1485 21.1549 14.165 21.1699C14.1726 21.1768 14.1801 21.1838 14.1877 21.1906C14.1968 21.1987 14.206 21.2065 14.2152 21.2143C14.2227 21.2208 14.2302 21.2273 14.2377 21.2336C14.2482 21.2423 14.2589 21.2508 14.2696 21.2593C14.2759 21.2643 14.2821 21.2695 14.2884 21.2744C14.3054 21.2876 14.3225 21.3005 14.3398 21.313C14.3446 21.3165 14.3496 21.3198 14.3544 21.3233C14.367 21.3322 14.3797 21.3412 14.3925 21.3498C14.3995 21.3545 14.4066 21.359 14.4137 21.3636C14.4245 21.3707 14.4354 21.3777 14.4462 21.3845C14.4539 21.3892 14.4615 21.3937 14.4692 21.3983C14.4796 21.4046 14.49 21.4108 14.5006 21.4168C14.5087 21.4215 14.5168 21.4258 14.5249 21.4303C14.5434 21.4404 14.5621 21.4502 14.581 21.4596C14.591 21.4645 14.601 21.4694 14.611 21.4741C14.6197 21.4782 14.6284 21.482 14.637 21.4859C14.6658 21.4987 14.695 21.5105 14.7246 21.5214C14.7332 21.5245 14.7417 21.5277 14.7503 21.5306C14.7609 21.5342 14.7715 21.5376 14.7822 21.5409C14.7905 21.5435 14.7988 21.5462 14.8071 21.5486C14.8184 21.5519 14.8298 21.5548 14.8412 21.5578C14.849 21.5598 14.8567 21.562 14.8646 21.5638C14.8769 21.5668 14.8892 21.5693 14.9015 21.5718C14.9084 21.5732 14.9152 21.5748 14.922 21.576C14.9379 21.5789 14.9538 21.5813 14.9697 21.5835C14.973 21.584 14.9765 21.5847 14.9799 21.5851C14.9992 21.5876 15.0185 21.5895 15.0378 21.5908C15.043 21.5912 15.0481 21.5913 15.0533 21.5916C15.0673 21.5924 15.0813 21.5931 15.0952 21.5933C15.1027 21.5934 15.1101 21.5932 15.1175 21.5931C15.1294 21.593 15.1411 21.5929 15.1529 21.5923C15.1609 21.592 15.1689 21.5913 15.1769 21.5907C15.188 21.5899 15.1992 21.5891 15.2104 21.5878C15.2187 21.587 15.2269 21.5858 15.2352 21.5847C15.2544 21.5821 15.2736 21.5789 15.2925 21.575C15.3117 21.5711 15.3307 21.5667 15.3495 21.5616C15.3685 21.5564 15.3873 21.5507 15.406 21.5443C15.4249 21.5377 15.4436 21.5306 15.4621 21.523C15.4728 21.5185 15.4835 21.5136 15.4942 21.5087C15.5019 21.5051 15.5096 21.5016 15.5173 21.4978C15.5284 21.4923 15.5394 21.4862 15.5504 21.4802C15.5576 21.4763 15.5649 21.4725 15.572 21.4683C15.5837 21.4615 15.5954 21.454 15.6069 21.4467C15.6133 21.4427 15.6196 21.4388 15.6259 21.4347C15.6437 21.4229 15.6614 21.4102 15.6788 21.3968L16.8721 20.4853L17.5909 19.9363C18.0885 19.5562 18.7561 19.5578 19.252 19.9403H19.2519ZM13.7803 20.7073C13.7836 20.7126 13.7871 20.7178 13.7905 20.723L13.7803 20.7073Z" fill="#F7D8AC"/>
<path id="Vector_5" fill-rule="evenodd" clip-rule="evenodd" d="M22.8287 25.7433C23.2134 26.0202 23.2723 26.446 23.1451 26.8499L18.7128 23.6125C18.639 23.5566 18.59 23.4739 18.5765 23.3823C18.563 23.2907 18.586 23.1974 18.6405 23.1225C18.695 23.0476 18.7767 22.9972 18.8681 22.9819C18.9594 22.9666 19.0531 22.9878 19.129 23.0409L22.8287 25.7433ZM20.9361 27.4457L18.3715 25.5725L17.3463 24.8236C17.2704 24.7706 17.1767 24.7494 17.0853 24.7646C16.994 24.7799 16.9123 24.8304 16.8577 24.9053C16.8032 24.9801 16.7803 25.0734 16.7938 25.165C16.8073 25.2566 16.8562 25.3393 16.93 25.3953L17.9553 26.1441L21.1991 28.5136C21.3311 28.1133 21.2858 27.6976 20.9346 27.4448L20.936 27.4458L20.9361 27.4457ZM19.0553 29.1565L15.9537 26.891C15.8779 26.8358 15.7833 26.813 15.6907 26.8276C15.5981 26.8421 15.515 26.8929 15.4598 26.9687C15.4046 27.0445 15.3818 27.1391 15.3964 27.2317C15.411 27.3243 15.4617 27.4074 15.5375 27.4626L19.3189 30.2246C19.4508 29.8243 19.4056 29.4086 19.0545 29.1558L19.0554 29.1565H19.0553Z" fill="#F0CD9C"/>
<path id="Vector_6" fill-rule="evenodd" clip-rule="evenodd" d="M8.44188 26.5751L9.47669 25.5403C10.3422 24.6748 8.58307 22.9157 7.71769 23.7815L6.68282 24.8163C5.79369 25.7055 7.57826 27.4384 8.44182 26.5752L8.44188 26.5751Z" fill="#EDC082"/>
<path id="Vector_7" fill-rule="evenodd" clip-rule="evenodd" d="M10.1081 28.4265L12.3155 26.2192C13.1811 25.354 11.4219 23.5946 10.5565 24.4604L8.34939 26.6678C7.48408 27.5332 9.24277 29.2918 10.1081 28.4265H10.1081Z" fill="#EDC082"/>
<path id="Vector_8" fill-rule="evenodd" clip-rule="evenodd" d="M11.6417 24.365C11.2717 24.1766 10.8607 24.1578 10.5582 24.4587L8.34923 26.6679C8.04673 26.9705 8.06517 27.3822 8.25386 27.7529L10.8637 25.1431L11.6417 24.3651V24.365Z" fill="#E0B375"/>
<path id="Vector_9" fill-rule="evenodd" clip-rule="evenodd" d="M12.2975 29.7549L14.0744 27.9781C14.9398 27.1128 13.1811 25.3538 12.3156 26.2193L10.5389 27.9961C9.67349 28.8614 11.4324 30.6201 12.2975 29.7549Z" fill="#EDC082"/>
<path id="Vector_10" fill-rule="evenodd" clip-rule="evenodd" d="M14.4286 31.1413L15.4634 30.1065C16.3289 29.241 14.5699 27.482 13.7044 28.3475L12.6696 29.3825C11.8044 30.2481 13.5634 32.007 14.4286 31.1413Z" fill="#EDC082"/>
</g>
<path id="Vector_11" d="M1.4375 15.1992H4.95619V24.7335H1.4375V15.1992Z" fill="#83DEFF"/>
<path id="Vector_12" d="M1.4375 23.3191H4.95619V24.7333H1.4375V23.3191Z" fill="#57CFFA"/>
<path id="Vector_13" d="M27.0439 15.1992H30.5626V24.7335H27.0439V15.1992Z" fill="#FD7A6E"/>
<path id="Vector_14" d="M27.0439 23.3191H30.5626V24.7333H27.0439V23.3191Z" fill="#FB695B"/>
<path id="Vector_15" fill-rule="evenodd" clip-rule="evenodd" d="M13.7052 28.3465L13.3098 28.7419L12.6694 29.3824C12.366 29.6859 12.3855 30.0992 12.5759 30.4708L14.7047 28.3419L14.7929 28.2537C14.4217 28.0635 14.0087 28.0438 13.7051 28.3465L13.7052 28.3465ZM10.443 29.0811L12.6666 26.8575L13.4002 26.124C13.0295 25.9352 12.6177 25.9167 12.315 26.2194L11.8441 26.6903L10.5365 27.998C10.2359 28.3005 10.2545 28.7113 10.4429 29.0812L10.443 29.0811ZM7.71749 23.7814L7.03542 24.4634L6.6818 24.8171C6.37086 25.1289 6.3883 25.544 6.57905 25.9148L8.80624 23.6877C8.43455 23.4972 8.02105 23.4777 7.71749 23.7814ZM19.816 19.4174L23.3729 22.1413L24.7586 23.1385L24.3513 23.4287L24.1097 23.6007L22.8085 22.6642L19.2517 19.9403C18.7545 19.5595 18.0882 19.5563 17.5905 19.9364L17.5065 20.0005L18.155 19.4134C18.6192 18.9932 19.3189 19.0366 19.816 19.4174Z" fill="#E0B375"/>
<path id="Vector_16" fill-rule="evenodd" clip-rule="evenodd" d="M15.9999 15.0311C13.956 14.4834 9.76221 12.8272 9.76221 9.28968V2.21156C11.6151 1.20024 13.7403 0.625244 15.9999 0.625244C18.2595 0.625244 20.3846 1.20024 22.2376 2.21156V9.28968C22.2376 12.8272 18.0438 14.4834 15.9999 15.0311Z" fill="#4677D5"/>
<path id="Vector_17" fill-rule="evenodd" clip-rule="evenodd" d="M11.0513 1.59749C12.5772 0.970932 14.2481 0.625244 15.9999 0.625244C18.2595 0.625244 20.3846 1.20024 22.2376 2.21156V9.28968C22.2376 12.8272 18.0438 14.4834 15.9999 15.0311C13.8563 14.236 11.0513 12.1962 11.0513 9.28968V1.59749Z" fill="#5C85DA"/>
<path id="Vector_18" d="M19.234 10.9405C21.0216 9.15297 21.0216 6.25474 19.234 4.46716C17.4464 2.67959 14.5482 2.67959 12.7606 4.46716C10.973 6.25474 10.973 9.15297 12.7606 10.9406C14.5482 12.7281 17.4464 12.7281 19.234 10.9405Z" fill="#FAD51B"/>
<g id="Group_3">
<path id="Vector_19" fill-rule="evenodd" clip-rule="evenodd" d="M16.5154 3.15479C18.8007 3.41104 20.5772 5.34941 20.5772 7.7031C20.5772 10.0568 18.8007 11.9952 16.5154 12.2514C14.2302 11.9952 12.4536 10.0568 12.4536 7.7031C12.4536 5.34941 14.2302 3.41104 16.5154 3.15479Z" fill="#FFE54E"/>
<path id="Vector_20" fill-rule="evenodd" clip-rule="evenodd" d="M13.5476 7.89539C13.3232 7.5892 13.3894 7.15901 13.6956 6.93457C14.0018 6.71013 14.432 6.77638 14.6564 7.08263L15.4722 8.1922L17.3435 5.64701C17.568 5.34082 17.9982 5.27457 18.3043 5.49901C18.6105 5.72345 18.6768 6.15363 18.4523 6.45982L16.0354 9.74714C15.9923 9.80872 15.9393 9.86278 15.8785 9.90714C15.5723 10.1316 15.1422 10.0653 14.9177 9.75907L13.5475 7.89539H13.5476Z" fill="#4AC994"/>
</g>
</g>
</g>
</svg>
