<svg width="32" height="33" viewBox="0 0 32 33" fill="none" xmlns="http://www.w3.org/2000/svg">
<g id="Frame" clip-path="url(#clip0_339_46562)">
<g id="Group">
<path id="Vector" d="M32 16.5C32 7.66344 24.8366 0.5 16 0.5C7.16344 0.5 0 7.66344 0 16.5C0 24.4861 5.851 31.1053 13.5 32.3056V21.125H9.4375V16.5H13.5V12.975C13.5 8.965 15.8887 6.75 19.5434 6.75C21.294 6.75 23.125 7.0625 23.125 7.0625V11H21.1074C19.1199 11 18.5 12.2333 18.5 13.4986V16.5H22.9375L22.2281 21.125H18.5V32.3056C26.1491 31.1053 32 24.4861 32 16.5Z" fill="#1877F2"/>
<path id="Vector_2" d="M22.2281 21.125L22.9375 16.5H18.5V13.4986C18.5 12.2333 19.1198 11 21.1074 11H23.125V7.0625C23.125 7.0625 21.2939 6.75 19.5434 6.75C15.8887 6.75 13.5 8.965 13.5 12.975V16.5H9.4375V21.125H13.5V32.3056C14.3146 32.4334 15.1495 32.5 16 32.5C16.8505 32.5 17.6854 32.4334 18.5 32.3056V21.125H22.2281Z" fill="white"/>
</g>
</g>
<defs>
<clipPath id="clip0_339_46562">
<rect width="32" height="32" fill="white" transform="translate(0 0.5)"/>
</clipPath>
</defs>
</svg>
