<svg width="40" height="40" viewBox="0 0 40 40" fill="none" xmlns="http://www.w3.org/2000/svg">
<g id="Frame">
<g id="Winner">
<path id="Vector" d="M29.6465 9.61917L25.8332 14.1667H15.7815L11.9898 9.60667C11.7799 9.32083 11.6667 8.97548 11.6665 8.62083V0H29.9998V8.5925C30 8.96457 29.8756 9.32598 29.6465 9.61917Z" fill="#FA5C66"/>
<path id="Vector_2" d="M24.9998 0H16.6665V14.1667H24.9998V0Z" fill="#E93D5B"/>
<path id="Vector_3" d="M25.8849 17.5001H15.8333C15.1702 17.5001 14.5343 17.2367 14.0655 16.7678C13.5966 16.299 13.3333 15.6631 13.3333 15.0001C13.3333 14.337 13.5966 13.7011 14.0655 13.2323C14.5343 12.7635 15.1702 12.5001 15.8333 12.5001H25.8333C26.1642 12.4904 26.4936 12.5484 26.8013 12.6706C27.109 12.7929 27.3885 12.9766 27.6226 13.2108C27.8567 13.4449 28.0405 13.7243 28.1627 14.032C28.2849 14.3397 28.3429 14.6691 28.3333 15.0001C28.3467 15.3276 28.293 15.6544 28.1754 15.9604C28.0578 16.2664 27.8789 16.5451 27.6495 16.7793C27.4201 17.0135 27.1452 17.1983 26.8418 17.3222C26.5383 17.4462 26.2127 17.5067 25.8849 17.5001ZM15.8399 14.1667C15.6189 14.1667 15.4069 14.2545 15.2507 14.4108C15.0944 14.5671 15.0066 14.779 15.0066 15.0001C15.0066 15.2211 15.0944 15.433 15.2507 15.5893C15.4069 15.7456 15.6189 15.8334 15.8399 15.8334H25.8816C25.991 15.8414 26.1008 15.825 26.203 15.7852C26.3052 15.7454 26.3972 15.6834 26.4724 15.6036C26.5476 15.5237 26.6041 15.4281 26.6377 15.3237C26.6712 15.2193 26.6811 15.1088 26.6666 15.0001C26.6772 14.8871 26.6626 14.7732 26.6239 14.6666C26.5851 14.56 26.5231 14.4633 26.4424 14.3835C26.3617 14.3038 26.2643 14.243 26.1572 14.2055C26.0501 14.168 25.9361 14.1547 25.8233 14.1667H15.8399Z" fill="#FACE53"/>
<path id="Vector_4" d="M21.2499 15.8333C21.1091 15.8333 20.9724 15.8499 20.8333 15.8541C20.6941 15.8583 20.5574 15.8333 20.4166 15.8333C17.2119 15.8333 14.1384 17.1063 11.8724 19.3724C9.60631 21.6384 8.33325 24.7119 8.33325 27.9166C8.33325 31.1213 9.60631 34.1947 11.8724 36.4608C14.1384 38.7269 17.2119 39.9999 20.4166 39.9999C20.5574 39.9999 20.6941 39.9832 20.8333 39.9791C20.9724 39.9749 21.1091 39.9999 21.2499 39.9999C24.4546 39.9999 27.5281 38.7269 29.7941 36.4608C32.0602 34.1947 33.3333 31.1213 33.3333 27.9166C33.3333 24.7119 32.0602 21.6384 29.7941 19.3724C27.5281 17.1063 24.4546 15.8333 21.2499 15.8333Z" fill="#FACE53"/>
<path id="Vector_5" d="M20.4167 38.3333C26.1696 38.3333 30.8333 33.6696 30.8333 27.9167C30.8333 22.1637 26.1696 17.5 20.4167 17.5C14.6637 17.5 10 22.1637 10 27.9167C10 33.6696 14.6637 38.3333 20.4167 38.3333Z" fill="#FABB53"/>
<path id="Vector_6" d="M20.4165 36.6667C25.249 36.6667 29.1665 32.7492 29.1665 27.9167C29.1665 23.0843 25.249 19.1667 20.4165 19.1667C15.584 19.1667 11.6665 23.0843 11.6665 27.9167C11.6665 32.7492 15.584 36.6667 20.4165 36.6667Z" fill="#FACE53"/>
<path id="Vector_7" d="M20.8332 34.1668C20.6122 34.1668 20.4003 34.079 20.244 33.9227C20.0877 33.7664 19.9999 33.5545 19.9999 33.3335V24.5343L18.0932 26.4701C18.0184 26.5552 17.927 26.6241 17.8246 26.6726C17.7222 26.7212 17.611 26.7483 17.4977 26.7524C17.3845 26.7565 17.2716 26.7375 17.166 26.6965C17.0603 26.6555 16.9642 26.5933 16.8834 26.5139C16.8026 26.4344 16.7388 26.3394 16.696 26.2344C16.6532 26.1295 16.6323 26.017 16.6344 25.9037C16.6366 25.7904 16.6619 25.6787 16.7086 25.5755C16.7554 25.4723 16.8228 25.3797 16.9066 25.3035L20.2399 21.9176C20.3558 21.8001 20.504 21.7196 20.6658 21.6864C20.8275 21.6533 20.9954 21.6689 21.1482 21.7313C21.3011 21.7937 21.4319 21.9001 21.5242 22.0369C21.6165 22.1738 21.666 22.335 21.6666 22.5001V33.3335C21.6666 33.5545 21.5788 33.7664 21.4225 33.9227C21.2662 34.079 21.0543 34.1668 20.8332 34.1668Z" fill="#FABB53"/>
</g>
</g>
</svg>
