<svg width="24" height="25" viewBox="0 0 24 25" fill="none" xmlns="http://www.w3.org/2000/svg">
<g id="Frame">
<path id="Vector" fill-rule="evenodd" clip-rule="evenodd" d="M18.685 19.597C19.654 18.6865 20.426 17.5869 20.9532 16.3662C21.4803 15.1455 21.7515 13.8297 21.75 12.5C21.75 7.115 17.385 2.75 12 2.75C6.61501 2.75 2.25001 7.115 2.25001 12.5C2.24847 13.8297 2.51967 15.1455 3.04686 16.3662C3.57404 17.5869 4.346 18.6865 5.31501 19.597C7.12194 21.3039 9.51435 22.2533 12 22.25C14.4857 22.2533 16.8781 21.3039 18.685 19.597ZM6.14501 18.312C6.84708 17.4336 7.73802 16.7247 8.75164 16.2379C9.76527 15.7511 10.8755 15.4989 12 15.5C13.1245 15.4989 14.2347 15.7511 15.2484 16.2379C16.262 16.7247 17.1529 17.4336 17.855 18.312C17.089 19.0857 16.1771 19.6996 15.172 20.1181C14.1669 20.5366 13.0887 20.7514 12 20.75C10.9113 20.7514 9.83311 20.5366 8.82803 20.1181C7.82296 19.6996 6.91098 19.0857 6.14501 18.312ZM15.75 9.5C15.75 10.4946 15.3549 11.4484 14.6517 12.1517C13.9484 12.8549 12.9946 13.25 12 13.25C11.0054 13.25 10.0516 12.8549 9.34836 12.1517C8.64509 11.4484 8.25001 10.4946 8.25001 9.5C8.25001 8.50544 8.64509 7.55161 9.34836 6.84835C10.0516 6.14509 11.0054 5.75 12 5.75C12.9946 5.75 13.9484 6.14509 14.6517 6.84835C15.3549 7.55161 15.75 8.50544 15.75 9.5Z" fill="#111111"/>
</g>
</svg>
