<svg width="40" height="40" viewBox="0 0 40 40" fill="none" xmlns="http://www.w3.org/2000/svg">
<g id="Frame">
<g id="Smart_Watch20">
<g id="Group">
<path id="Vector" d="M33.75 16.25H32.5V11.25C32.5 9.1875 30.8125 7.5 28.75 7.5H27.275H12.725H11.25C9.1875 7.5 7.5 9.1875 7.5 11.25V28.75C7.5 30.8125 9.1875 32.5 11.25 32.5H12.725H27.275H28.75C30.8125 32.5 32.5 30.8125 32.5 28.75V23.75H33.75C34.4409 23.75 35 23.1903 35 22.5V17.5C35 16.8097 34.4409 16.25 33.75 16.25ZM21.25 25C19.975 25 18.7875 24.6125 17.8 23.975L14.6375 27.1375C14.3875 27.375 14.075 27.5 13.75 27.5C13.425 27.5 13.1125 27.375 12.8625 27.1375C12.375 26.65 12.375 25.85 12.8625 25.3625L16.025 22.2C15.3875 21.2125 15 20.025 15 18.75C15 15.3 17.8 12.5 21.25 12.5C24.7 12.5 27.5 15.3 27.5 18.75C27.5 22.2 24.7 25 21.25 25Z" fill="#364F6B"/>
<path id="Vector_2" d="M24.2251 5H26.7751L26.2251 2.25C26.1126 1.675 25.6001 1.25 25.0001 1.25H15.0001C14.4001 1.25 13.8876 1.675 13.7751 2.25L13.2251 5H15.7751H24.2251Z" fill="#3FC1C9"/>
<path id="Vector_3" d="M15.7751 35H13.2251L13.7751 37.75C13.8876 38.325 14.4001 38.75 15.0001 38.75H25.0001C25.6001 38.75 26.1126 38.325 26.2251 37.75L26.7751 35H24.2251H15.7751Z" fill="#3FC1C9"/>
<path id="Vector_4" d="M21.25 15C19.1875 15 17.5 16.6875 17.5 18.75C17.5 19.775 17.925 20.725 18.6 21.4C19.275 22.075 20.225 22.5 21.25 22.5C23.3125 22.5 25 20.8125 25 18.75C25 16.6875 23.3125 15 21.25 15Z" fill="#364F6B"/>
</g>
</g>
</g>
</svg>
