<svg width="56" height="56" viewBox="0 0 56 56" fill="none" xmlns="http://www.w3.org/2000/svg">
<g id="Group">
<path id="Vector" d="M24.859 55.9233C20.5269 55.9233 16.1828 55.9471 11.8507 55.9114C9.18932 55.8876 7.48272 53.5073 8.23458 50.9724C8.66421 49.5323 9.96505 48.5564 11.7791 48.485C14.1778 48.3897 16.5766 48.3778 18.9754 48.3659C24.9425 48.3302 30.8977 48.4374 36.8649 48.2469C42.3069 48.0803 46.7464 44.0219 47.9279 38.5354C49.0378 33.3821 46.4003 27.7884 41.734 25.3248C39.9558 24.3846 38.0822 23.9086 36.0653 23.9086C30.7665 23.9205 25.4557 23.9086 20.1569 23.9205C18.7725 23.9205 17.6626 23.4325 16.863 22.3138C15.0371 19.755 16.4812 16.4821 19.7869 16.3512C26.3627 16.1013 32.9862 15.6371 39.5023 16.6844C47.6415 17.9936 52.821 23.0755 55.1481 30.859C58.4897 42.0344 50.9592 53.7573 39.383 55.6972C36.9245 56.1138 34.4422 55.8876 31.9718 55.9233C29.585 55.9471 27.222 55.9233 24.859 55.9233Z" fill="#C2E812"/>
<path id="Vector_2" d="M32.1149 39.9159C27.4964 39.5113 22.8778 39.9516 18.2592 39.7017C11.9938 39.3566 7.18425 36.3098 3.62784 31.3112C-4.80968 19.4455 2.26734 2.71216 16.6362 0.462801C19.2498 0.0581531 21.8753 -0.108466 24.5009 0.224773C27.1741 0.558012 28.5466 3.29533 27.3412 5.69942C26.7684 6.85385 25.8256 7.50843 24.5605 7.73455C22.9136 8.03209 21.2428 7.84167 19.5839 7.88927C13.7123 8.06779 9.02213 12.0191 7.90031 17.7317C6.504 24.8964 11.6238 31.6326 18.9037 32.0848C24.4293 32.43 29.9667 32.1681 35.5042 32.2395C37.724 32.2633 39.2039 33.2988 39.729 35.1554C40.3615 37.4047 38.6549 39.8088 36.3038 39.904C34.9075 39.9635 33.5112 39.9159 32.1149 39.9159Z" fill="#E6EBED"/>
</g>
</svg>
