<svg width="84" height="28" viewBox="0 0 84 28" fill="none" xmlns="http://www.w3.org/2000/svg">
<g id="Group 2">
<path id="Vector" d="M9.32458 20.772C7.84314 20.772 6.50059 20.5176 5.32007 19.9855C4.13954 19.4535 3.1442 18.7133 2.38034 17.7418C1.61647 16.7703 1.15352 15.6137 0.94519 14.2489L4.88026 13.6707C5.15803 14.8272 5.73672 15.7062 6.59318 16.3308C7.47278 16.9553 8.44498 17.256 9.55606 17.256C10.181 17.256 10.7829 17.1635 11.3616 16.9553C11.9403 16.7471 12.4263 16.4696 12.7967 16.0995C13.1671 15.7294 13.3522 15.2436 13.3522 14.6884C13.3522 14.4803 13.3291 14.2952 13.2597 14.1102C13.1902 13.9251 13.0976 13.7401 12.9587 13.5781C12.8199 13.4162 12.6115 13.2543 12.3801 13.1155C12.1254 12.9767 11.8014 12.8379 11.4079 12.7223L6.22282 11.1956C5.82931 11.0799 5.38951 10.918 4.88026 10.733C4.37102 10.5479 3.86177 10.2472 3.37568 9.85397C2.88958 9.46074 2.49607 8.97499 2.17201 8.35044C1.84794 7.72589 1.68591 6.93942 1.68591 5.99103C1.68591 4.64941 2.03312 3.5391 2.7044 2.63698C3.37568 1.73485 4.27843 1.08717 5.41266 0.647676C6.54688 0.20818 7.79685 0 9.16255 0C10.5514 0.0231314 11.7782 0.25444 12.8662 0.717068C13.9541 1.1797 14.8568 1.82738 15.5976 2.68324C16.3383 3.56224 16.8475 4.60315 17.1716 5.85224L13.0976 6.54618C12.9587 5.8985 12.681 5.34335 12.2875 4.90386C11.894 4.46436 11.4079 4.11739 10.8755 3.88608C10.3199 3.65476 9.74124 3.53911 9.1394 3.51597C8.53757 3.49284 7.98203 3.58536 7.47278 3.77041C6.96354 3.95546 6.52374 4.20991 6.19967 4.55688C5.87561 4.90385 5.71357 5.29709 5.71357 5.78285C5.71357 6.22235 5.85246 6.56932 6.10708 6.84689C6.38485 7.12447 6.70892 7.33265 7.12557 7.49457C7.54223 7.65649 7.95888 7.79528 8.37554 7.91094L11.8477 8.85932C12.3569 8.99811 12.9356 9.18317 13.5606 9.41448C14.1856 9.64579 14.7874 9.9465 15.3661 10.3629C15.9448 10.7792 16.4309 11.2881 16.8012 11.9589C17.1716 12.6066 17.3568 13.4393 17.3568 14.4571C17.3568 15.5212 17.1253 16.4696 16.6855 17.2792C16.2457 18.0888 15.6439 18.7364 14.88 19.2685C14.1161 19.8005 13.2597 20.1937 12.3106 20.4482C11.3384 20.6563 10.3431 20.772 9.32458 20.772Z" fill="#E6EBED"/>
<path id="Vector_2" d="M22.0556 27.0175L24.949 19.0834L24.9953 21.4197L18.4677 5.36649H22.3796L26.7777 16.724H25.8981L30.2498 5.36649H34.0228L25.5508 27.0175H22.0556Z" fill="#E6EBED"/>
<path id="Vector_3" d="M35.9442 20.3556V5.36647H39.3006V10.3397H39.7635V20.3556H35.9442ZM46.1985 20.3556V13.2774C46.1985 12.9304 46.1754 12.4909 46.1522 11.9589C46.1291 11.4269 45.9902 10.8949 45.805 10.3629C45.6198 9.83083 45.2958 9.3682 44.856 9.02123C44.4162 8.65112 43.7912 8.48921 42.981 8.48921C42.657 8.48921 42.3097 8.53547 41.9394 8.65113C41.569 8.74365 41.2218 8.95183 40.8977 9.22941C40.5737 9.50699 40.3191 9.94649 40.1107 10.5248C39.9024 11.0799 39.7867 11.8433 39.7867 12.7685L37.6108 11.7507C37.6108 10.571 37.8423 9.46073 38.3284 8.41981C38.8145 7.3789 39.532 6.54617 40.5042 5.89849C41.4764 5.25081 42.7033 4.9501 44.1615 4.9501C45.3421 4.9501 46.2911 5.15828 47.0318 5.55152C47.7726 5.94475 48.3512 6.45364 48.7679 7.05506C49.1846 7.65648 49.4623 8.30415 49.6475 8.97496C49.8327 9.64577 49.9253 10.2472 49.9716 10.7792C50.0179 11.3344 50.0179 11.7276 50.0179 11.9821V20.4019H46.1985V20.3556Z" fill="#E6EBED"/>
<path id="Vector_4" d="M60.3417 20.772C58.814 20.772 57.4483 20.4481 56.2909 19.7773C55.1104 19.1065 54.2076 18.2044 53.5363 17.0478C52.865 15.8913 52.541 14.5496 52.541 13.0461C52.541 11.4038 52.865 9.99275 53.5132 8.76678C54.1613 7.56395 55.0641 6.61557 56.1983 5.94476C57.3325 5.27395 58.6519 4.92697 60.1334 4.92697C61.7074 4.92697 63.0499 5.29708 64.1379 6.03729C65.249 6.77749 66.0591 7.8184 66.5915 9.16002C67.1239 10.5016 67.3091 12.0746 67.1471 13.902H63.4203V12.5141C63.4203 10.9874 63.1888 9.90022 62.7027 9.22941C62.2166 8.5586 61.4296 8.21164 60.3185 8.21164C59.0223 8.21164 58.0732 8.60487 57.4714 9.39133C56.8696 10.1778 56.5686 11.3344 56.5686 12.861C56.5686 14.2489 56.8696 15.3361 57.4714 16.0994C58.0732 16.8628 58.976 17.256 60.1334 17.256C60.8741 17.256 61.4991 17.0941 62.0315 16.7703C62.5638 16.4464 62.9574 15.9838 63.2351 15.3592L67.0082 16.4464C66.4526 17.8112 65.5499 18.8752 64.3462 19.6385C63.0962 20.4019 61.7768 20.772 60.3417 20.772ZM55.365 13.9251V11.1262H65.3184V13.9251H55.365Z" fill="#E6EBED"/>
<path id="Vector_5" d="M68.0266 20.3556L73.3968 12.7685L68.1423 5.36649H72.5866L75.5958 9.80771L78.5355 5.36649H82.9798L77.7253 12.7685L83.1187 20.3556H78.6744L75.5958 15.7525L72.494 20.3556H68.0266Z" fill="#E6EBED"/>
</g>
</svg>
