<svg width="84" height="24" viewBox="0 0 84 24" fill="none" xmlns="http://www.w3.org/2000/svg">
<g id="Group 1">
<path id="Vector" d="M0.94519 17.8448V0.465454H6.5813C6.72221 0.465454 7.00402 0.465451 7.42672 0.485566C7.84943 0.485566 8.27214 0.525798 8.65459 0.566027C10.0636 0.726947 11.2512 1.22982 12.2174 2.03442C13.1836 2.83902 13.9284 3.86488 14.4316 5.0919C14.9348 6.31891 15.1965 7.68673 15.1965 9.15512C15.1965 10.6235 14.9348 11.9913 14.4316 13.2184C13.9284 14.4454 13.1836 15.4712 12.2174 16.2758C11.2512 17.0804 10.0636 17.5632 8.65459 17.7442C8.25201 17.7845 7.84943 17.8247 7.42672 17.8247C7.00402 17.8247 6.72221 17.8448 6.5813 17.8448H0.94519ZM4.26648 14.7672H6.56118C6.7826 14.7672 7.0644 14.7672 7.44685 14.7471C7.80917 14.727 8.15136 14.7069 8.4533 14.6465C9.2182 14.4856 9.82207 14.1436 10.3052 13.5804C10.7883 13.0172 11.1305 12.3534 11.372 11.5689C11.6136 10.7844 11.7142 9.97984 11.7142 9.15512C11.7142 8.29018 11.5934 7.46547 11.3519 6.68098C11.1103 5.8965 10.748 5.23271 10.2649 4.70972C9.78181 4.16661 9.17795 3.82465 8.43317 3.68385C8.13124 3.6235 7.80918 3.58327 7.42672 3.58327C7.0644 3.58327 6.76247 3.56316 6.54105 3.56316H4.24634V14.7672H4.26648Z" fill="#C2E812"/>
<path id="Vector_2" d="M18.3368 2.99995V0.103394H21.6178V2.99995H18.3368ZM18.3368 17.8448V4.8103H21.6178V17.8448H18.3368Z" fill="#C2E812"/>
<path id="Vector_3" d="M30.5351 18.2069C29.3274 18.2069 28.2806 17.9051 27.3748 17.3017C26.469 16.6982 25.7645 15.8735 25.2613 14.8477C24.7581 13.8017 24.4964 12.635 24.4964 11.3275C24.4964 9.99994 24.7581 8.81316 25.2613 7.7873C25.7645 6.76143 26.4892 5.93672 27.4151 5.35339C28.341 4.77005 29.428 4.46832 30.676 4.46832C31.924 4.46832 32.9506 4.77005 33.796 5.3735C34.6414 5.97695 35.2855 6.80166 35.7082 7.82753C36.1511 8.87351 36.3524 10.0402 36.3524 11.3477C36.3524 12.6551 36.131 13.8218 35.6881 14.8678C35.2453 15.9138 34.6011 16.7183 33.7155 17.3218C32.9103 17.9051 31.8233 18.2069 30.5351 18.2069ZM30.8169 24C30.0721 24 29.3676 23.8793 28.7034 23.6379C28.0391 23.3965 27.4352 23.0747 26.9119 22.6523C26.3885 22.2299 25.9457 21.727 25.6236 21.1839L28.6631 19.7155C28.8644 20.0977 29.1663 20.3994 29.5689 20.6005C29.9514 20.8017 30.3741 20.9023 30.837 20.9023C31.3201 20.9023 31.7831 20.8218 32.2259 20.6609C32.6688 20.5 33.011 20.2586 33.2726 19.9166C33.5343 19.5948 33.6551 19.1925 33.635 18.7097V14.9281H34.0375V4.83039H36.916V18.75C36.916 19.0718 36.8959 19.3735 36.8757 19.6551C36.8556 19.9367 36.7952 20.2184 36.7147 20.5C36.5134 21.3046 36.1108 21.9482 35.5472 22.4712C34.9836 22.9942 34.2791 23.3764 33.4538 23.6178C32.6285 23.8592 31.7831 24 30.8169 24ZM31.0584 15.2902C31.7831 15.2902 32.3668 15.1293 32.8097 14.7873C33.2525 14.4655 33.5746 14.0028 33.7557 13.3994C33.957 12.7959 34.0375 12.112 34.0375 11.3275C34.0375 10.543 33.9369 9.83903 33.7557 9.25569C33.5544 8.65224 33.2525 8.1896 32.8298 7.86776C32.4071 7.54592 31.8435 7.36489 31.1591 7.36489C30.4345 7.36489 29.8306 7.54592 29.3475 7.90799C28.8845 8.27006 28.5222 8.75282 28.3008 9.33615C28.0794 9.9396 27.9586 10.6034 27.9586 11.3275C27.9586 12.0517 28.0592 12.7356 28.2806 13.3189C28.5021 13.9023 28.8241 14.4051 29.2871 14.7471C29.7702 15.1091 30.3539 15.2902 31.0584 15.2902Z" fill="#C2E812"/>
<path id="Vector_4" d="M40.5592 2.99995V0.103394H43.8402V2.99995H40.5592ZM40.5592 17.8448V4.8103H43.8402V17.8448H40.5592Z" fill="#C2E812"/>
<path id="Vector_5" d="M46.0142 7.34479V4.8103H55.2936V7.34479H46.0142ZM55.2936 17.8448C54.3878 18.0057 53.5021 18.0862 52.6366 18.0661C51.771 18.046 51.0062 17.885 50.3218 17.6034C49.6374 17.3218 49.1342 16.8592 48.7718 16.2155C48.4498 15.612 48.2887 15.0086 48.2686 14.4051C48.2485 13.7816 48.2485 13.0977 48.2485 12.3132V1.18961H51.5295V12.1322C51.5295 12.635 51.5295 13.0977 51.5496 13.5C51.5698 13.9023 51.6503 14.2241 51.7912 14.4655C52.073 14.9281 52.536 15.1695 53.1801 15.2097C53.8242 15.25 54.5287 15.2097 55.2936 15.1092V17.8448Z" fill="#C2E812"/>
<path id="Vector_6" d="M61.8154 18.2068C60.8895 18.2068 60.0843 18.0258 59.4402 17.6637C58.7961 17.3017 58.2929 16.8189 57.9708 16.2356C57.6488 15.6522 57.4676 14.9683 57.4676 14.2442C57.4676 13.6407 57.5682 13.0976 57.7494 12.5948C57.9306 12.0919 58.2325 11.6494 58.6552 11.2672C59.0779 10.885 59.6214 10.5631 60.3259 10.3016C60.809 10.1206 61.3927 9.95969 62.057 9.839C62.7213 9.6982 63.4861 9.57751 64.3316 9.4367C65.177 9.31601 66.1029 9.17521 67.1295 9.01429L65.9419 9.65797C65.9419 8.8936 65.7607 8.31026 65.3783 7.94819C65.016 7.58612 64.392 7.40509 63.5264 7.40509C63.0433 7.40509 62.5401 7.52578 62.0167 7.74705C61.4934 7.98843 61.1311 8.39072 60.9096 8.99417L57.9305 8.04877C58.2526 6.96256 58.8766 6.09762 59.7824 5.41371C60.6882 4.7298 61.9362 4.40796 63.5063 4.40796C64.6536 4.40796 65.6802 4.58899 66.5659 4.93095C67.4516 5.29301 68.1359 5.89646 68.5989 6.76141C68.8606 7.24417 69.0015 7.72693 69.0619 8.20969C69.1021 8.69245 69.1424 9.23555 69.1424 9.81889V17.7844H66.2438V15.1091L66.6464 15.6723C66.0023 16.5574 65.3179 17.181 64.5933 17.5632C63.8686 18.0258 62.9427 18.2068 61.8154 18.2068ZM62.4998 15.6321C63.1037 15.6321 63.6069 15.5315 64.0296 15.3103C64.4523 15.089 64.7744 14.8476 65.016 14.5861C65.2575 14.3246 65.4387 14.0833 65.5192 13.9022C65.6802 13.5402 65.7809 13.1379 65.8211 12.6551C65.8412 12.1925 65.8614 11.7902 65.8614 11.4884L66.8276 11.7298C65.8614 11.8907 65.0562 12.0315 64.4523 12.1321C63.8485 12.2327 63.3654 12.3333 62.9829 12.4338C62.6005 12.5344 62.2784 12.6149 61.9966 12.7154C61.6745 12.8361 61.4129 12.9769 61.2116 13.1379C61.0103 13.2787 60.8694 13.4396 60.7687 13.6206C60.6681 13.8017 60.6278 14.0028 60.6278 14.204C60.6278 14.5057 60.7084 14.7471 60.8493 14.9683C60.9902 15.1896 61.2116 15.3505 61.4733 15.4511C61.7953 15.5718 62.1174 15.6321 62.4998 15.6321Z" fill="#C2E812"/>
<path id="Vector_7" d="M72.5039 17.8448V0.103394H75.7849V17.8448H72.5039Z" fill="#C2E812"/>
<path id="Vector_8" d="M79.9514 17.8448V14.5661H83.2324V17.8448H79.9514Z" fill="#C2E812"/>
</g>
</svg>
