<svg width="195" height="60" viewBox="0 0 195 60" fill="none" xmlns="http://www.w3.org/2000/svg">
<g id="Logo" clip-path="url(#clip0_566_46869)">
<g id="Group">
<g id="Group_2">
<path id="Vector" d="M26.31 59.2806C21.7205 59.2777 17.134 59.307 12.5446 59.2689C9.72284 59.2454 7.91702 56.7202 8.72157 54.0217C9.17669 52.4948 10.5567 51.4524 12.4712 51.3761C15.0082 51.2763 17.551 51.2586 20.088 51.244C26.3951 51.2058 32.7082 51.3232 39.0124 51.1236C44.7705 50.9415 49.4685 46.6369 50.7164 40.8172C51.8851 35.3557 49.1044 29.4126 44.1597 26.8022C42.2805 25.8098 40.2926 25.2959 38.1609 25.3018C32.5467 25.3165 26.9354 25.2959 21.3212 25.3135C19.8589 25.3194 18.6844 24.7909 17.8417 23.6046C15.9096 20.8885 17.4394 17.4149 20.9307 17.2798C27.8838 17.0097 34.9016 16.5193 41.7901 17.6351C50.3993 19.0298 55.8785 24.415 58.342 32.6719C61.8773 44.5287 53.9082 56.9727 41.658 59.031C39.0535 59.4685 36.4284 59.2307 33.8122 59.2747C31.3075 59.3158 28.8088 59.2836 26.31 59.2806Z" fill="#C2E812"/>
<path id="Vector_2" d="M34.0849 42.3003C29.1607 41.9538 24.2248 42.315 19.3036 42.0595C12.7146 41.7189 7.66415 38.489 3.89983 33.2389C-5.12339 20.6627 2.36121 2.86282 17.6299 0.437435C20.3988 -7.36291e-05 23.1707 -0.155698 25.9484 0.18785C28.5559 0.513779 30.0622 3.11534 29.1284 5.56715C28.5764 7.01769 27.5135 7.8839 25.9719 8.1511C24.2219 8.45354 22.4572 8.25974 20.7013 8.31553C14.4969 8.5152 9.52869 12.72 8.36005 18.7835C6.89484 26.3943 12.3182 33.5061 20.0377 33.9935C25.8868 34.3635 31.7447 34.0845 37.5996 34.1609C39.8987 34.1902 41.4285 35.2385 42.007 37.1588C42.7411 39.596 40.9294 42.1975 38.3866 42.2915C36.9536 42.3443 35.5178 42.3003 34.0849 42.3003Z" fill="#04364A"/>
</g>
<g id="Group_3">
<g id="Group_4">
<path id="Vector_3" d="M82.8332 9.21708L77.9149 10.5737L77.8209 10.6999C77.5273 9.71332 77.0428 8.98805 76.3704 8.52412C75.698 8.06018 74.9933 7.83115 74.2563 7.83115C73.5427 7.83115 72.9731 7.98971 72.5532 8.3039C72.1539 8.61808 71.9542 8.99686 71.9542 9.44024C71.9542 9.75443 72.0687 10.051 72.3007 10.3241C72.5327 10.5971 72.8468 10.8409 73.2462 11.0493C73.7072 11.3019 74.2034 11.5426 74.729 11.7746C75.6745 12.1945 76.2941 12.4676 76.5906 12.5938C77.4744 12.9726 78.2203 13.3308 78.8281 13.6656C79.5621 14.0649 80.2346 14.5376 80.8453 15.0838C81.4561 15.6329 81.9494 16.2524 82.3281 16.9454C82.7069 17.6384 82.8948 18.4488 82.8948 19.3737C82.8948 20.3603 82.7069 21.2647 82.3281 22.0839C81.9288 22.9266 81.3826 23.6402 80.6897 24.2274C79.9527 24.8382 79.0923 25.3109 78.1057 25.6456C77.0957 25.9598 75.9916 26.1184 74.7936 26.1184C73.6573 26.1184 72.5973 25.9716 71.6107 25.6779C70.6652 25.3638 69.8225 24.8998 69.0884 24.292C68.3514 23.6813 67.723 22.9795 67.1974 22.1779C66.6924 21.3998 66.2725 20.4954 65.9348 19.4648L70.8854 18.1405C71.0117 18.5604 71.1996 18.9832 71.4521 19.4031C71.7046 19.8024 71.9983 20.1607 72.3359 20.4748C72.6707 20.789 73.0729 21.0415 73.5339 21.2324C73.9744 21.4203 74.4706 21.5172 75.0168 21.5172C75.8154 21.5172 76.4467 21.3381 76.9077 20.9799C77.3482 20.6246 77.5684 20.1812 77.5684 19.6556C77.5684 19.2563 77.4421 18.9098 77.1896 18.6162C76.9166 18.302 76.5583 18.026 76.1179 17.7969C75.5717 17.5033 75.0256 17.2596 74.4794 17.0717C73.7248 16.7986 73.0495 16.5255 72.4622 16.2524C72.2302 16.1467 71.5373 15.7797 70.3804 15.1484C69.708 14.7931 69.0972 14.3497 68.5511 13.8241C68.0049 13.2985 67.5733 12.6995 67.2591 12.0271C66.9449 11.3342 66.7863 10.5149 66.7863 9.56944C66.7863 8.77077 66.9743 7.99265 67.353 7.23509C67.7318 6.45697 68.2692 5.77281 68.9621 5.18555C69.6551 4.59829 70.4743 4.12555 71.4227 3.76732C72.3888 3.40909 73.4517 3.22998 74.6057 3.22998C75.6128 3.22998 76.5583 3.38854 77.4451 3.70272C78.3289 4.01691 79.1246 4.43973 79.8411 4.96533C80.5987 5.51442 81.2182 6.14278 81.7027 6.8563C82.2019 7.59038 82.5807 8.3773 82.8332 9.21708Z" fill="#04364A"/>
<path id="Vector_4" d="M99.2298 3.67041H104.906L96.9924 16.3464V25.7426H91.8539V16.3464L83.9993 3.67041H89.6751L93.3014 9.6311C93.6773 10.3035 93.9533 10.7968 94.1207 11.1139C94.3086 11.4927 94.4143 11.6806 94.4349 11.6806H94.4672C94.4877 11.6806 94.5934 11.4927 94.7813 11.1139C94.9487 10.7997 95.2218 10.3035 95.6006 9.6311L99.2298 3.67041Z" fill="#04364A"/>
<path id="Vector_5" d="M120.732 3.67041H125.871L125.809 25.8042H121.079L116.727 19.1506C116.665 19.0448 116.19 18.3607 115.309 17.101C115.077 16.7663 114.628 16.0821 113.955 15.0515C113.662 14.5905 113.315 14.0737 112.916 13.507L112.505 12.8757H112.443L112.472 13.4424C112.493 13.5892 112.51 13.8535 112.519 14.2323C112.528 14.611 112.537 14.8929 112.537 15.0838C112.578 15.7973 112.61 16.6518 112.631 17.6384C112.651 18.2902 112.663 19.3737 112.663 20.8859V25.7425H107.525V3.69977H112.255L116.859 10.6676L117.993 12.3706C118.034 12.4323 118.465 13.0636 119.285 14.2616C119.39 14.4319 119.558 14.6874 119.79 15.0339C120.022 15.3804 120.201 15.6387 120.327 15.8061L120.767 16.4374H120.8V15.8061V14.1354C120.8 13.1282 120.788 12.306 120.767 11.6747C120.747 11.0434 120.735 10.0568 120.735 8.71203V3.67041H120.732Z" fill="#04364A"/>
<path id="Vector_6" d="M135.71 20.8213H145.579V25.7396H130.539V3.67041H145.391V8.55641H135.71V12.2444H143.183V16.8485H135.71V20.8213Z" fill="#04364A"/>
<path id="Vector_7" d="M157.969 18.8981H157.937L157.526 19.3063L157.118 20.1255L156.645 21.071L156.266 21.8285L153.903 25.7368H147.754L154.722 14.4173L148.162 3.69985H154.279L156.707 8.01914L157.021 8.65045C157.188 8.98518 157.315 9.2289 157.4 9.37571C157.482 9.52253 157.591 9.72219 157.714 9.97472L157.84 10.2272H157.873L157.999 9.94242L158.313 9.31111L158.692 8.58585L159.006 7.95454L161.434 3.63525H167.551L160.965 14.3586L167.932 25.7103H161.816L159.452 21.7698L159.074 21.0152L158.601 20.0697C158.475 19.8172 158.328 19.5441 158.16 19.2505L157.969 18.8981Z" fill="#04364A"/>
</g>
<g id="Group_5">
<path id="Vector_8" d="M67.5703 33.562H75.927H75.8947C77.5332 33.562 79.016 33.8263 80.3403 34.3489C81.7056 34.8745 82.8743 35.6321 83.8403 36.6187C84.8475 37.6258 85.6256 38.8062 86.1718 40.1481C86.7414 41.5341 87.0233 43.058 87.0233 44.7199C87.0233 46.3584 86.7502 47.8735 86.2041 49.2595C85.6785 50.6043 84.9209 51.7524 83.9343 52.6979C82.9477 53.6434 81.7791 54.3686 80.4342 54.8737C79.0894 55.3787 77.6066 55.6312 75.9887 55.6312H67.5703V33.562ZM72.8674 50.8069H76.3675L76.2412 50.7452C77.0193 50.7452 77.7446 50.619 78.417 50.3664C79.0894 50.1139 79.659 49.7351 80.12 49.2301C80.581 48.7251 80.9598 48.0937 81.2535 47.3391C81.5265 46.605 81.6645 45.7418 81.6645 44.7552C81.6645 43.7275 81.5265 42.8436 81.2535 42.1066C80.9598 41.3285 80.581 40.6767 80.12 40.1511C79.6561 39.6255 79.0894 39.2144 78.417 38.9208C77.7857 38.6477 77.0722 38.5097 76.2735 38.5097H72.8674V50.8069Z" fill="#C2E812"/>
<path id="Vector_9" d="M95.6647 55.6957H90.4939V33.6235H95.6647V55.6957Z" fill="#C2E812"/>
<path id="Vector_10" d="M114.775 53.8664H114.745L114.775 53.8341C114.228 54.4449 113.471 54.9705 112.505 55.4109C111.498 55.8308 110.455 56.0422 109.384 56.0422C107.974 56.0422 106.609 55.778 105.284 55.2553C104.042 54.7297 102.962 53.9721 102.037 52.9855C101.112 52.0195 100.387 50.8215 99.8611 49.3915C99.3355 48.0027 99.0742 46.4288 99.0742 44.6612C99.0742 42.8964 99.3355 41.3197 99.8611 39.9308C100.387 38.5243 101.112 37.3145 102.037 36.3045C102.962 35.2738 104.066 34.4957 105.346 33.9701C106.67 33.424 108.059 33.1509 109.507 33.1509C111.589 33.1509 113.427 33.6677 115.024 34.6954C116.622 35.726 117.864 37.1765 118.744 39.047L113.574 40.4035C113.11 39.6665 112.511 39.1321 111.777 38.7944C111.019 38.4391 110.262 38.2571 109.507 38.2571C107.91 38.2571 106.667 38.8267 105.787 39.9601C104.903 41.0936 104.462 42.6615 104.462 44.6582C104.462 45.6683 104.589 46.5697 104.841 47.3714C105.073 48.1289 105.44 48.8013 105.945 49.3886C106.406 49.9347 106.976 50.3546 107.648 50.6512C108.28 50.9243 109.025 51.0593 109.886 51.0593C110.664 51.0593 111.316 50.9654 111.841 50.7745C112.387 50.5866 112.848 50.3341 113.227 50.017C113.627 49.6822 113.941 49.324 114.173 48.9452C114.405 48.5664 114.604 48.1465 114.772 47.6826V47.3361H109.633V43.1431H119.156V55.6605H114.772V54.2423V53.8664H114.775Z" fill="#C2E812"/>
<path id="Vector_11" d="M128.331 55.6957H123.16V33.6235H128.331V55.6957Z" fill="#C2E812"/>
<path id="Vector_12" d="M130.98 33.6235H148.386V38.5095H142.237V55.6927H137.067V38.5095H130.983V33.6235H130.98Z" fill="#C2E812"/>
<path id="Vector_13" d="M164.497 55.6957L163.393 52.2279H155.418L154.314 55.6957H148.826L156.743 33.6235H162.104L170.018 55.6957H164.497ZM156.866 47.5915H161.881L160.366 42.7995C160.199 42.2533 160.081 41.8422 160.02 41.5692C159.934 41.2139 159.84 40.8556 159.735 40.4974C159.714 40.4152 159.676 40.2831 159.623 40.1039C159.57 39.9248 159.532 39.8044 159.512 39.7428L159.418 39.458H159.385L159.324 39.7428C159.303 39.8044 159.265 39.9248 159.212 40.1039C159.159 40.2831 159.121 40.4152 159.101 40.4974C159.08 40.5826 159.033 40.7441 158.96 40.9848C158.886 41.2285 158.827 41.4223 158.786 41.5692L158.408 42.7995L156.866 47.5915Z" fill="#C2E812"/>
<path id="Vector_14" d="M177.55 50.7774H187.104V55.6957H172.379V33.6235H177.55V50.7774Z" fill="#C2E812"/>
<path id="Vector_15" d="M191.835 56.042L191.802 56.0743C191.171 56.0743 190.604 55.8424 190.099 55.3814C189.638 54.9204 189.406 54.3537 189.406 53.6783C189.406 53.0265 189.647 52.4598 190.132 51.9753C190.613 51.4908 191.183 51.25 191.835 51.25C192.507 51.25 193.074 51.482 193.538 51.943C193.999 52.4069 194.231 52.9736 194.231 53.646C194.231 54.3184 193.999 54.8851 193.538 55.3491C193.033 55.8101 192.463 56.042 191.835 56.042Z" fill="#04364A"/>
</g>
</g>
</g>
</g>
<defs>
<clipPath id="clip0_566_46869">
<rect width="194.23" height="59.3015" fill="white"/>
</clipPath>
</defs>
</svg>
