<svg width="48" height="48" viewBox="0 0 48 48" fill="none" xmlns="http://www.w3.org/2000/svg">
<g id="Frame" clip-path="url(#clip0_283_41843)">
<g id="Group">
<path id="Vector" d="M47.4991 11.9598C46.8179 6.69366 43.9533 0 31.8067 0C23.4182 0 23.3048 4.01813 14.37 2.02594C7.85878 0.574219 1.38459 5.36334 0.484592 12.0535C-0.486283 19.2708 4.73437 22.5793 6.42919 28.6347C8.2574 35.1665 9.57047 48 17.7052 48C26.675 48 27.1381 41.0592 32.9481 33.4433C38.5383 26.1153 48.9442 23.1323 47.4991 11.9598Z" fill="url(#paint0_linear_283_41843)"/>
<path id="Vector_2" d="M42.639 30.2202L42.1703 30.689H4.84184L4.37402 30.2202V12.8362L4.84184 12.3674H42.1703L42.639 12.8362V30.2202Z" fill="#FFC498"/>
<path id="Vector_3" d="M42.64 22.0527V29.3539C42.3634 29.4186 42.0746 29.4533 41.7784 29.4533C40.7584 29.4533 39.834 29.0455 39.1581 28.3846L33.9381 32.2114C34.461 32.9145 34.7472 33.7653 34.7556 34.6414H26.4334C26.4465 33.4518 26.9603 32.383 27.7721 31.633L23.8253 27.1161C23.7193 27.1199 23.6134 27.1218 23.5065 27.1218C19.7996 27.1218 16.6112 24.9046 15.1946 21.7246L9.85934 23.7964C9.9334 24.0899 9.97277 24.3974 9.97277 24.7143C9.97277 26.7852 8.29371 28.4643 6.22277 28.4643C5.55059 28.4643 4.91965 28.2871 4.37402 27.9777V21.4508C4.91965 21.1414 5.55059 20.9643 6.22277 20.9643C7.64496 20.9643 8.88246 21.7564 9.51809 22.9236L14.8581 20.8489C14.5612 19.9378 14.4102 18.9854 14.4109 18.0271C14.4109 16.8993 14.6171 15.8202 14.9921 14.8236L11.7746 12.2868C11.1447 12.7298 10.3932 12.9672 9.62309 12.9664C7.55215 12.9664 5.87309 11.2874 5.87309 9.21644C5.87309 9.05519 5.8834 8.89582 5.90309 8.73926H13.3431C13.3628 8.89582 13.3731 9.05519 13.3731 9.21644C13.3731 10.1446 13.0356 10.993 12.4768 11.6474L15.3812 13.9368C16.8784 10.9686 19.9543 8.93144 23.5065 8.93144C28.5296 8.93144 32.6021 13.0039 32.6021 18.0271C32.6021 22.5505 29.2984 26.3024 24.9728 27.0036L28.5306 31.0771C29.139 30.7283 29.8431 30.5286 30.595 30.5286C31.6243 30.5286 32.5656 30.9027 33.2921 31.5224L38.5731 27.6514C38.2157 27.0646 38.0272 26.3905 38.0284 25.7033C38.0284 23.6324 39.7065 21.9533 41.7784 21.9533C42.0746 21.9533 42.3634 21.988 42.64 22.0527Z" fill="#FFAA66"/>
<path id="Vector_4" d="M42.639 9.67676V12.8361H4.37305V9.67676C4.37305 9.15926 4.79305 8.73926 5.31055 8.73926H41.7015C42.219 8.73926 42.639 9.15926 42.639 9.67676Z" fill="#FFAA66"/>
<path id="Vector_5" d="M12.4768 11.6474C13.0564 10.9702 13.3744 10.1078 13.373 9.21644C13.373 9.05519 13.3627 8.89582 13.343 8.73926H5.90305C5.88336 8.89582 5.87305 9.05519 5.87305 9.21644C5.87305 10.948 7.0468 12.4049 8.64148 12.8361H10.6046C11.0293 12.7208 11.424 12.5324 11.7746 12.2868L12.4712 12.8361H13.9852L12.4768 11.6474ZM36.144 8.73926V12.3674C36.144 12.6271 35.934 12.8361 35.6752 12.8361H27.5584C27.2996 12.8361 27.0896 12.6271 27.0896 12.3674V8.73926H36.144Z" fill="#FF9C33"/>
<path id="Vector_6" d="M42.639 30.2202V33.704C42.639 34.2215 42.219 34.6415 41.7015 34.6415H5.31055C4.79305 34.6415 4.37305 34.2215 4.37305 33.704V30.2202H42.639Z" fill="#6C6CFF"/>
<path id="Vector_7" d="M33.9383 32.2115C34.4612 32.9145 34.7474 33.7653 34.7558 34.6415H26.4336C26.4467 33.4518 26.9605 32.383 27.7723 31.633L26.5377 30.2202H27.7827L28.5308 31.0771C29.1392 30.7283 29.8433 30.5287 30.5952 30.5287C31.6245 30.5287 32.5658 30.9027 33.2923 31.5224L35.0689 30.2202H36.6542L33.9383 32.2115Z" fill="#4D4DFF"/>
<path id="Vector_8" d="M17.9121 34.6416H29.0993V40.1672H17.9121V34.6416Z" fill="#B2B2FF"/>
<path id="Vector_9" d="M29.0998 34.6416V38.5754C27.5398 37.9744 26.4326 36.4622 26.4326 34.6904V34.6416H29.0998Z" fill="#9393FF"/>
<path id="Vector_10" d="M17.9131 34.6416H29.1003V36.8916H17.9131V34.6416Z" fill="#9393FF"/>
<path id="Vector_11" d="M30.6287 42.2579H16.3838C16.2346 42.2579 16.0915 42.1986 15.986 42.0931C15.8806 41.9876 15.8213 41.8446 15.8213 41.6954V40.7302C15.8213 40.581 15.8806 40.438 15.986 40.3325C16.0915 40.227 16.2346 40.1677 16.3838 40.1677H30.6287C30.7779 40.1677 30.921 40.227 31.0265 40.3325C31.132 40.438 31.1912 40.581 31.1912 40.7302V41.6954C31.1912 41.8446 31.132 41.9876 31.0265 42.0931C30.921 42.1986 30.7779 42.2579 30.6287 42.2579Z" fill="#D8D8FF"/>
<path id="Vector_12" d="M15.8988 13.2001C15.7912 13.2002 15.6869 13.1631 15.6035 13.0952L11.9057 10.0523C11.8115 9.97321 11.7521 9.86022 11.7404 9.73774C11.7287 9.61525 11.7657 9.49308 11.8432 9.39758C11.9208 9.30208 12.0328 9.24091 12.1551 9.22726C12.2774 9.21361 12.4002 9.24858 12.4969 9.32463L16.1947 12.3675C16.2698 12.4286 16.3242 12.5114 16.3503 12.6047C16.3764 12.6979 16.3731 12.797 16.3406 12.8882C16.3082 12.9795 16.2483 13.0584 16.1692 13.1143C16.0901 13.1701 15.9956 13.2001 15.8988 13.2001Z" fill="#FF7300"/>
<path id="Vector_13" d="M9.62305 10.7166C11.6941 10.7166 13.373 9.03762 13.373 6.96655C13.373 4.89548 11.6941 3.21655 9.62305 3.21655C7.55198 3.21655 5.87305 4.89548 5.87305 6.96655C5.87305 9.03762 7.55198 10.7166 9.62305 10.7166Z" fill="#FFC498"/>
<path id="Vector_14" d="M11.411 8.09235L10.665 7.34629C10.9762 6.75219 10.8825 5.99966 10.3839 5.501C9.76983 4.88704 8.77083 4.88704 8.15677 5.501C7.5428 6.11497 7.5428 7.11416 8.15677 7.72813C8.30291 7.87443 8.47652 7.99043 8.66761 8.06945C8.85871 8.14848 9.06354 8.18898 9.27033 8.18863C9.52515 8.18882 9.77622 8.12725 10.002 8.00919L10.7481 8.75525C10.8397 8.84675 10.9596 8.8925 11.0796 8.8925C11.1996 8.8925 11.3195 8.84675 11.4111 8.75525C11.499 8.66733 11.5484 8.5481 11.5484 8.42378C11.5483 8.29946 11.4989 8.18024 11.411 8.09235ZM8.81977 7.06522C8.70045 6.94561 8.63345 6.78356 8.63345 6.61461C8.63345 6.44567 8.70045 6.28362 8.81977 6.164C8.94398 6.03979 9.1072 5.97763 9.27042 5.97763C9.43364 5.97763 9.59677 6.03979 9.72108 6.164C9.96952 6.41244 9.96952 6.81678 9.72108 7.06522C9.47264 7.31366 9.0683 7.31375 8.81977 7.06522Z" fill="white"/>
<path id="Vector_15" d="M41.7025 8.73926H5.31152C4.79402 8.73926 4.37402 9.15926 4.37402 9.67676V33.7039C4.37402 34.2214 4.79402 34.6414 5.31152 34.6414H41.7025C42.22 34.6414 42.64 34.2214 42.64 33.7039V9.67676C42.64 9.15926 42.22 8.73926 41.7025 8.73926Z" fill="url(#paint1_linear_283_41843)"/>
<path id="Vector_16" d="M35.9663 38.5186C35.8994 38.5187 35.8332 38.5044 35.7723 38.4768C35.7113 38.4491 35.657 38.4087 35.613 38.3583L32.726 35.0303C32.6475 34.9362 32.609 34.8151 32.6186 34.693C32.6283 34.5709 32.6853 34.4574 32.7776 34.3768C32.8699 34.2962 32.99 34.2549 33.1123 34.2617C33.2346 34.2686 33.3494 34.323 33.4321 34.4134L36.3191 37.7414C36.3783 37.8092 36.4167 37.8926 36.4297 37.9817C36.4428 38.0707 36.4299 38.1616 36.3927 38.2435C36.3555 38.3255 36.2956 38.395 36.2199 38.4438C36.1443 38.4925 36.0563 38.5185 35.9663 38.5186Z" fill="#FF4D4D"/>
<path id="Vector_17" d="M28.7872 30.3301C28.7203 30.3301 28.6542 30.3159 28.5932 30.2882C28.5323 30.2606 28.478 30.2202 28.434 30.1697L23.2328 24.2302C23.1544 24.1361 23.1158 24.0151 23.1255 23.893C23.1351 23.7708 23.1922 23.6573 23.2844 23.5767C23.3767 23.4961 23.4968 23.4548 23.6192 23.4617C23.7415 23.4685 23.8563 23.523 23.939 23.6133L29.1401 29.5529C29.1993 29.6207 29.2376 29.7041 29.2507 29.7931C29.2637 29.8822 29.2509 29.9731 29.2137 30.055C29.1765 30.1369 29.1165 30.2064 29.0409 30.2552C28.9653 30.304 28.8772 30.33 28.7872 30.3301Z" fill="#8282FF"/>
<path id="Vector_18" d="M33.6372 30.0697C33.5383 30.0699 33.442 30.0387 33.3619 29.9808C33.2818 29.9228 33.2221 29.841 33.1913 29.747C33.1605 29.6531 33.1602 29.5518 33.1904 29.4577C33.2207 29.3636 33.2799 29.2814 33.3597 29.223L38.5652 25.4074C38.6655 25.336 38.79 25.3069 38.9116 25.3265C39.0332 25.3461 39.1421 25.4128 39.215 25.5122C39.2878 25.6115 39.3186 25.7355 39.3007 25.8574C39.2828 25.9792 39.2177 26.0891 39.1194 26.1634L33.914 29.979C33.8338 30.038 33.7368 30.0698 33.6372 30.0697Z" fill="#FF4D4D"/>
<path id="Vector_19" d="M30.5945 36.602C32.893 36.602 34.7563 34.7387 34.7563 32.4402C34.7563 30.1416 32.893 28.2783 30.5945 28.2783C28.2959 28.2783 26.4326 30.1416 26.4326 32.4402C26.4326 34.7387 28.2959 36.602 30.5945 36.602Z" fill="#B2B2FF"/>
<path id="Vector_20" d="M32.152 31.8958C32.152 31.0371 31.4533 30.3384 30.5946 30.3384C29.7358 30.3384 29.0371 31.0371 29.0371 31.8958C29.0371 32.3194 29.2075 32.7035 29.4829 32.9846C29.2075 33.2656 29.0371 33.6497 29.0371 34.0733C29.0371 34.3322 29.2469 34.542 29.5059 34.542C29.7648 34.542 29.9746 34.3322 29.9746 34.0733C29.9746 33.7315 30.2528 33.4533 30.5946 33.4533C30.9364 33.4533 31.2145 33.7315 31.2145 34.0733C31.2145 34.3322 31.4244 34.542 31.6833 34.542C31.9422 34.542 32.152 34.3322 32.152 34.0733C32.152 33.6497 31.9816 33.2656 31.7063 32.9846C31.9816 32.7035 32.152 32.3194 32.152 31.8958ZM30.5946 31.2759C30.9364 31.2759 31.2145 31.554 31.2145 31.8958C31.2145 32.2377 30.9364 32.5158 30.5946 32.5158C30.2528 32.5158 29.9746 32.2377 29.9746 31.8958C29.9746 31.554 30.2527 31.2759 30.5946 31.2759Z" fill="white"/>
<path id="Vector_21" d="M9.45601 21.6906C9.34667 21.6905 9.24079 21.6523 9.15666 21.5825C9.07254 21.5126 9.01547 21.4156 8.99533 21.3081C8.97519 21.2006 8.99324 21.0895 9.04636 20.9939C9.09948 20.8984 9.18433 20.8244 9.28623 20.7848L14.8449 18.6044C14.9608 18.5595 15.0898 18.5625 15.2035 18.6126C15.3173 18.6627 15.4065 18.7559 15.4516 18.8717C15.4966 18.9876 15.4937 19.1166 15.4436 19.2304C15.3935 19.3442 15.3002 19.4334 15.1843 19.4784L9.6257 21.6588C9.57159 21.6798 9.51405 21.6906 9.45601 21.6906Z" fill="#FF4D4D"/>
<path id="Vector_22" d="M38.4736 44.5879C40.5447 44.5879 42.2236 42.909 42.2236 40.8379C42.2236 38.7668 40.5447 37.0879 38.4736 37.0879C36.4026 37.0879 34.7236 38.7668 34.7236 40.8379C34.7236 42.909 36.4026 44.5879 38.4736 44.5879Z" fill="#FF6C6C"/>
<path id="Vector_23" d="M40.2626 41.9634L39.5165 41.2174C39.8278 40.6233 39.7341 39.8708 39.2355 39.3721C38.6214 38.7581 37.6224 38.7581 37.0083 39.3721C36.3944 39.9861 36.3944 40.9853 37.0083 41.5992C37.1545 41.7455 37.3281 41.8615 37.5192 41.9405C37.7103 42.0196 37.9151 42.0601 38.1219 42.0597C38.3767 42.0599 38.6278 41.9983 38.8536 41.8803L39.5997 42.6263C39.6913 42.7178 39.8112 42.7636 39.9312 42.7636C40.0512 42.7636 40.1711 42.7178 40.2627 42.6263C40.3505 42.5384 40.3999 42.4192 40.3998 42.2949C40.3998 42.1706 40.3505 42.0514 40.2626 41.9634ZM37.6713 40.9364C37.552 40.8168 37.485 40.6547 37.485 40.4858C37.485 40.3169 37.552 40.1548 37.6713 40.0352C37.7955 39.911 37.9588 39.8488 38.122 39.8488C38.2852 39.8488 38.4483 39.911 38.5726 40.0352C38.8211 40.2836 38.8211 40.688 38.5726 40.9364C38.3242 41.1848 37.9198 41.1848 37.6713 40.9364Z" fill="white"/>
<path id="Vector_24" d="M41.7773 27.2031C43.8484 27.2031 45.5273 25.5242 45.5273 23.4531C45.5273 21.3821 43.8484 19.7031 41.7773 19.7031C39.7063 19.7031 38.0273 21.3821 38.0273 23.4531C38.0273 25.5242 39.7063 27.2031 41.7773 27.2031Z" fill="#FF6C6C"/>
<path id="Vector_25" d="M43.5663 24.5789L42.8202 23.8329C43.1315 23.2388 43.0378 22.4862 42.5392 21.9876C41.9251 21.3736 40.9261 21.3736 40.312 21.9876C39.6981 22.6015 39.6981 23.6007 40.312 24.2147C40.4582 24.361 40.6318 24.477 40.8229 24.556C41.014 24.6351 41.2188 24.6756 41.4256 24.6752C41.6804 24.6754 41.9315 24.6138 42.1573 24.4958L42.9034 25.2418C42.995 25.3333 43.1149 25.3791 43.2349 25.3791C43.3549 25.3791 43.4748 25.3333 43.5664 25.2418C43.6542 25.1539 43.7036 25.0347 43.7036 24.9104C43.7035 24.7861 43.6542 24.6668 43.5663 24.5789ZM40.975 23.5518C40.8557 23.4322 40.7887 23.2701 40.7887 23.1012C40.7887 22.9322 40.8557 22.7702 40.975 22.6506C41.0993 22.5264 41.2625 22.4642 41.4257 22.4642C41.5889 22.4642 41.752 22.5264 41.8764 22.6506C42.1248 22.899 42.1248 23.3034 41.8764 23.5518C41.6279 23.8002 41.2235 23.8003 40.975 23.5518Z" fill="white"/>
<path id="Vector_26" d="M6.22266 26.2141C8.29372 26.2141 9.97266 24.5352 9.97266 22.4641C9.97266 20.393 8.29372 18.7141 6.22266 18.7141C4.15159 18.7141 2.47266 20.393 2.47266 22.4641C2.47266 24.5352 4.15159 26.2141 6.22266 26.2141Z" fill="#FF6C6C"/>
<path id="Vector_27" d="M8.0116 23.5899L7.26554 22.8438C7.57679 22.2497 7.48313 21.4972 6.98448 20.9986C6.37041 20.3846 5.37141 20.3846 4.75735 20.9986C4.14338 21.6125 4.14338 22.6117 4.75735 23.2257C4.9035 23.372 5.0771 23.488 5.2682 23.567C5.4593 23.646 5.66412 23.6865 5.87091 23.6862C6.12574 23.6864 6.37681 23.6248 6.60263 23.5067L7.34869 24.2528C7.44029 24.3443 7.5602 24.3901 7.6802 24.3901C7.8002 24.3901 7.9201 24.3443 8.0117 24.2528C8.09959 24.1649 8.14896 24.0457 8.14894 23.9213C8.14892 23.797 8.09952 23.6778 8.0116 23.5899ZM5.42035 22.5629C5.30104 22.4433 5.23404 22.2812 5.23404 22.1123C5.23404 21.9433 5.30104 21.7813 5.42035 21.6617C5.54457 21.5374 5.70779 21.4753 5.87101 21.4753C6.03423 21.4753 6.19735 21.5374 6.32166 21.6617C6.5701 21.9101 6.5701 22.3144 6.32166 22.5629C6.07323 22.8113 5.66879 22.8113 5.42035 22.5629Z" fill="white"/>
<path id="Vector_28" d="M10.748 41.2458C10.6237 41.2458 10.5045 41.1964 10.4166 41.1085C10.3287 41.0206 10.2793 40.9014 10.2793 40.777C10.2793 40.4928 10.0479 40.2614 9.76367 40.2614C9.50473 40.2614 9.29492 40.0516 9.29492 39.7927C9.29492 39.5337 9.50473 39.3239 9.76367 39.3239C10.0479 39.3239 10.2793 39.0925 10.2793 38.8083C10.2793 38.5494 10.4891 38.3395 10.748 38.3395C11.007 38.3395 11.2168 38.5494 11.2168 38.8083C11.2168 39.0925 11.4482 39.3239 11.7324 39.3239C11.9914 39.3239 12.2012 39.5337 12.2012 39.7927C12.2012 40.0516 11.9914 40.2614 11.7324 40.2614C11.5957 40.2616 11.4647 40.316 11.368 40.4126C11.2714 40.5093 11.217 40.6403 11.2168 40.777C11.2168 40.9014 11.1674 41.0206 11.0795 41.1085C10.9916 41.1964 10.8724 41.2458 10.748 41.2458ZM18.5787 5.13892C18.4544 5.13892 18.3352 5.08953 18.2472 5.00162C18.1593 4.91371 18.11 4.79449 18.11 4.67017C18.11 4.38592 17.8786 4.15454 17.5943 4.15454C17.3354 4.15454 17.1256 3.94473 17.1256 3.68579C17.1256 3.42685 17.3354 3.21704 17.5943 3.21704C17.8786 3.21704 18.11 2.98567 18.11 2.70142C18.11 2.44248 18.3198 2.23267 18.5787 2.23267C18.8376 2.23267 19.0475 2.44248 19.0475 2.70142C19.0475 2.98567 19.2788 3.21704 19.5631 3.21704C19.822 3.21704 20.0318 3.42685 20.0318 3.68579C20.0318 3.94473 19.822 4.15454 19.5631 4.15454C19.4264 4.15471 19.2953 4.2091 19.1987 4.30576C19.102 4.40242 19.0476 4.53347 19.0475 4.67017C19.0475 4.79449 18.9981 4.91371 18.9102 5.00162C18.8223 5.08953 18.703 5.13892 18.5787 5.13892Z" fill="#FF6C6C"/>
<path id="Vector_29" d="M6.3584 43.7578C6.23408 43.7578 6.11485 43.7084 6.02694 43.6205C5.93903 43.5326 5.88965 43.4134 5.88965 43.2891C5.88965 43.0048 5.65827 42.7734 5.37402 42.7734C5.11509 42.7734 4.90527 42.5636 4.90527 42.3047C4.90527 42.0458 5.11509 41.8359 5.37402 41.8359C5.65827 41.8359 5.88965 41.6046 5.88965 41.3203C5.88965 41.0614 6.09946 40.8516 6.3584 40.8516C6.61734 40.8516 6.82715 41.0614 6.82715 41.3203C6.82715 41.6046 7.05852 41.8359 7.34277 41.8359C7.60171 41.8359 7.81152 42.0458 7.81152 42.3047C7.81152 42.5636 7.60171 42.7734 7.34277 42.7734C7.20607 42.7736 7.07502 42.828 6.97836 42.9247C6.8817 43.0213 6.82732 43.1524 6.82715 43.2891C6.82715 43.4134 6.77776 43.5326 6.68985 43.6205C6.60195 43.7084 6.48272 43.7578 6.3584 43.7578Z" fill="#FF9C33"/>
<g id="Group_2">
<path id="Vector_30" d="M40.7314 6.49387C40.6699 6.49396 40.6089 6.48187 40.552 6.4583C40.4951 6.43473 40.4435 6.40014 40.4 6.35653L39.4156 5.37216C39.3721 5.32864 39.3376 5.27698 39.314 5.22011C39.2904 5.16325 39.2783 5.1023 39.2783 5.04075C39.2783 4.9792 39.2904 4.91825 39.314 4.86138C39.3376 4.80452 39.3721 4.75286 39.4156 4.70934L40.4 3.72497C40.4435 3.68143 40.4952 3.6469 40.5521 3.62334C40.6089 3.59977 40.6699 3.58765 40.7314 3.58765C40.793 3.58765 40.8539 3.59977 40.9108 3.62334C40.9677 3.6469 41.0193 3.68143 41.0628 3.72497L42.0472 4.70934C42.0907 4.75286 42.1253 4.80452 42.1488 4.86138C42.1724 4.91825 42.1845 4.9792 42.1845 5.04075C42.1845 5.1023 42.1724 5.16325 42.1488 5.22011C42.1253 5.27698 42.0907 5.32864 42.0472 5.37216L41.0628 6.35653C41.0194 6.40012 40.9677 6.43469 40.9108 6.45826C40.854 6.48183 40.793 6.49393 40.7314 6.49387ZM40.41 5.04075L40.7314 5.36222L41.0529 5.04075L40.7314 4.71928L40.41 5.04075ZM45.2334 38.8575C45.1718 38.8576 45.1108 38.8455 45.054 38.8219C44.9971 38.7984 44.9454 38.7638 44.902 38.7202L43.9176 37.7358C43.8741 37.6923 43.8395 37.6406 43.816 37.5837C43.7924 37.5269 43.7803 37.4659 43.7803 37.4044C43.7803 37.3428 43.7924 37.2819 43.816 37.225C43.8395 37.1681 43.8741 37.1165 43.9176 37.073L44.902 36.0886C44.9455 36.0451 44.9972 36.0105 45.054 35.987C45.1109 35.9634 45.1718 35.9513 45.2334 35.9513C45.2949 35.9513 45.3559 35.9634 45.4128 35.987C45.4696 36.0105 45.5213 36.0451 45.5648 36.0886L46.5492 37.073C46.5927 37.1165 46.6272 37.1681 46.6508 37.225C46.6744 37.2819 46.6865 37.3428 46.6865 37.4044C46.6865 37.4659 46.6744 37.5269 46.6508 37.5837C46.6272 37.6406 46.5927 37.6923 46.5492 37.7358L45.5648 38.7202C45.5213 38.7638 45.4697 38.7984 45.4128 38.8219C45.3559 38.8455 45.295 38.8576 45.2334 38.8575ZM44.912 37.4044L45.2335 37.7258L45.555 37.4044L45.2335 37.0829L44.912 37.4044Z" fill="#6C6CFF"/>
</g>
<path id="Vector_31" d="M23.5063 24.8722C28.5294 24.8722 32.6014 20.8002 32.6014 15.777C32.6014 10.7539 28.5294 6.68188 23.5063 6.68188C18.4832 6.68188 14.4111 10.7539 14.4111 15.777C14.4111 20.8002 18.4832 24.8722 23.5063 24.8722Z" fill="#6C6CFF"/>
<path id="Vector_32" d="M32.1158 12.8361H27.5586C27.2998 12.8361 27.0898 12.6271 27.0898 12.3674V8.73926H29.2677C30.5652 9.80145 31.5627 11.2161 32.1158 12.8361Z" fill="#4D4DFF"/>
<path id="Vector_33" d="M23.5064 22.8148C27.3931 22.8148 30.544 19.6639 30.544 15.7771C30.544 11.8904 27.3931 8.7395 23.5064 8.7395C19.6196 8.7395 16.4688 11.8904 16.4688 15.7771C16.4688 19.6639 19.6196 22.8148 23.5064 22.8148Z" fill="#8282FF"/>
<path id="Vector_34" d="M29.9023 12.8362H27.5586C27.2998 12.8362 27.0898 12.6271 27.0898 12.3674V9.71899C28.3219 10.4487 29.3028 11.5359 29.9023 12.8362Z" fill="#6C6CFF"/>
<g id="Group_3">
<path id="Vector_35" d="M24.5067 14.6926C24.7656 14.6926 24.9754 14.4828 24.9754 14.2239C24.9754 13.9649 24.7656 13.7551 24.5067 13.7551H22.5498C22.4255 13.7551 22.3063 13.8045 22.2184 13.8924C22.1305 13.9803 22.0811 14.0996 22.0811 14.2239V17.3303C22.0811 17.4546 22.1305 17.5738 22.2184 17.6617C22.3063 17.7496 22.4255 17.799 22.5498 17.799H24.5067C24.7656 17.799 24.9754 17.5892 24.9754 17.3303C24.9754 17.0713 24.7656 16.8615 24.5067 16.8615H23.0186V16.2459H24.0873C24.3463 16.2459 24.5561 16.0361 24.5561 15.7771C24.5561 15.5182 24.3463 15.3084 24.0873 15.3084H23.0186V14.6927H24.5067V14.6926ZM27.2627 13.7551H26.7117C26.0656 13.7551 25.54 14.2807 25.54 14.9268V16.6273C25.54 17.2735 26.0656 17.799 26.7117 17.799H27.2627C27.9088 17.799 28.4343 17.2735 28.4343 16.6273V14.9268C28.4343 14.2807 27.9087 13.7551 27.2627 13.7551ZM27.4968 16.6273C27.4968 16.6893 27.4721 16.7489 27.4282 16.7928C27.3843 16.8367 27.3247 16.8614 27.2627 16.8614H26.7117C26.6496 16.8614 26.5901 16.8367 26.5462 16.7928C26.5023 16.7489 26.4776 16.6893 26.4775 16.6273V14.9268C26.4776 14.8647 26.5023 14.8052 26.5462 14.7613C26.5901 14.7174 26.6496 14.6927 26.7117 14.6926H27.2627C27.3247 14.6927 27.3843 14.7174 27.4282 14.7613C27.4721 14.8052 27.4968 14.8647 27.4968 14.9268V16.6273ZM19.8234 14.6926H20.7942C21.0531 14.6926 21.2629 14.4828 21.2629 14.2239C21.2629 13.9649 21.0531 13.7551 20.7942 13.7551H19.8234C19.1368 13.7551 18.5781 14.3138 18.5781 15.0005C18.5781 15.6871 19.1368 16.2458 19.8234 16.2458H20.0176C20.1873 16.2458 20.3254 16.384 20.3254 16.5537C20.3254 16.7233 20.1873 16.8614 20.0176 16.8614H19.0469C18.7879 16.8614 18.5781 17.0713 18.5781 17.3302C18.5781 17.5891 18.7879 17.7989 19.0469 17.7989H20.0176C20.7043 17.7989 21.2629 17.2403 21.2629 16.5537C21.2629 15.8669 20.7043 15.3083 20.0176 15.3083H19.8234C19.6536 15.3083 19.5156 15.1702 19.5156 15.0005C19.5156 14.8308 19.6537 14.6926 19.8234 14.6926Z" fill="white"/>
</g>
<path id="Vector_36" d="M35.6747 10.5868H27.5586C27.4343 10.5868 27.315 10.5374 27.2271 10.4495C27.1392 10.3616 27.0898 10.2424 27.0898 10.1181V4.04907C27.0898 3.92475 27.1392 3.80552 27.2271 3.71762C27.315 3.62971 27.4343 3.58032 27.5586 3.58032H35.6747C35.799 3.58032 35.9183 3.62971 36.0062 3.71762C36.0941 3.80552 36.1435 3.92475 36.1435 4.04907V10.1181C36.1435 10.2424 36.0941 10.3616 36.0062 10.4495C35.9183 10.5374 35.799 10.5868 35.6747 10.5868Z" fill="#FF6C6C"/>
<path id="Vector_37" d="M28.9951 8.04619C28.9951 8.17051 29.0445 8.28974 29.1324 8.37765C29.2203 8.46556 29.3395 8.51494 29.4639 8.51494H33.9574C34.0817 8.51494 34.2009 8.46556 34.2889 8.37765C34.3768 8.28974 34.4261 8.17051 34.4261 8.04619C34.4261 7.92187 34.3768 7.80264 34.2889 7.71474C34.2009 7.62683 34.0817 7.57744 33.9574 7.57744H29.4639C29.3395 7.57744 29.2203 7.62683 29.1324 7.71474C29.0445 7.80264 28.9951 7.92187 28.9951 8.04619ZM28.9951 6.12085C28.9951 6.24517 29.0445 6.3644 29.1324 6.45231C29.2203 6.54021 29.3395 6.5896 29.4639 6.5896H32.0824C32.2067 6.5896 32.3259 6.54021 32.4139 6.45231C32.5018 6.3644 32.5511 6.24517 32.5511 6.12085C32.5511 5.99653 32.5018 5.8773 32.4139 5.78939C32.3259 5.70149 32.2067 5.6521 32.0824 5.6521H29.4639C29.3395 5.6521 29.2203 5.70149 29.1324 5.78939C29.0445 5.8773 28.9951 5.99653 28.9951 6.12085Z" fill="white"/>
</g>
</g>
<defs>
<linearGradient id="paint0_linear_283_41843" x1="3.29934" y1="36.4237" x2="39.8352" y2="-0.112217" gradientUnits="userSpaceOnUse">
<stop stop-color="#FFD8D8" stop-opacity="0"/>
<stop offset="0.998" stop-color="#FFB2B2"/>
</linearGradient>
<linearGradient id="paint1_linear_283_41843" x1="23.507" y1="34.6414" x2="23.507" y2="8.73926" gradientUnits="userSpaceOnUse">
<stop stop-color="#FF4D4D" stop-opacity="0.4"/>
<stop offset="0.146" stop-color="#FF4D4D" stop-opacity="0.342"/>
<stop offset="1" stop-color="#FF4D4D" stop-opacity="0"/>
</linearGradient>
<clipPath id="clip0_283_41843">
<rect width="48" height="48" fill="white"/>
</clipPath>
</defs>
</svg>
