<svg width="48" height="48" viewBox="0 0 48 48" fill="none" xmlns="http://www.w3.org/2000/svg">
<g id="Frame" clip-path="url(#clip0_280_41414)">
<g id="Group">
<path id="Vector" d="M47.4991 11.9598C46.8179 6.69366 43.9533 0 31.8067 0C23.4182 0 23.3048 4.01813 14.37 2.02594C7.85878 0.574219 1.38459 5.36334 0.484592 12.0535C-0.486283 19.2708 4.73437 22.5793 6.42919 28.6347C8.2574 35.1665 9.57047 48 17.7052 48C26.675 48 27.1381 41.0592 32.9481 33.4433C38.5383 26.1153 48.9442 23.1323 47.4991 11.9598Z" fill="url(#paint0_linear_280_41414)"/>
<path id="Vector_2" d="M43.2373 35.3741L41.1378 33.828C41.2305 33.2864 41.2826 32.7304 41.2826 32.1627C41.2826 31.598 41.2305 31.0419 41.1378 30.5003L43.2377 28.954C43.547 28.7262 43.6686 28.3226 43.5421 27.9598C43.0122 26.4404 42.2012 25.0525 41.1708 23.8564C40.9203 23.5657 40.5102 23.4699 40.1586 23.6235L37.7695 24.6674C36.9209 23.9578 35.9479 23.3873 34.8878 22.9993L34.5983 20.4128C34.5556 20.0312 34.2678 19.7238 33.8906 19.6525C33.109 19.5049 32.3152 19.4309 31.5198 19.4312V8.42403C31.5198 8.20622 31.4332 7.99734 31.2792 7.84332C31.1252 7.68931 30.9163 7.60278 30.6985 7.60278H5.22945C5.01164 7.60278 4.80276 7.68931 4.64874 7.84332C4.49473 7.99734 4.4082 8.20622 4.4082 8.42403V31.3429C4.4082 31.5607 4.49473 31.7696 4.64874 31.9236C4.80276 32.0776 5.01164 32.1642 5.22945 32.1642H8.05227V40.3895C8.05227 40.945 8.50255 41.3952 9.05802 41.3952H14.564C15.1194 41.3952 15.5697 40.945 15.5697 40.3895V32.1642H21.7595C21.7595 32.7313 21.8088 33.2869 21.9014 33.828L19.8014 35.3767C19.4921 35.6048 19.3709 36.0086 19.4977 36.3713C20.0244 37.8744 20.8285 39.2654 21.8683 40.4719C22.1187 40.7627 22.5289 40.8585 22.8805 40.7049L25.2695 39.661C26.1288 40.3776 27.1045 40.9418 28.1541 41.3292L28.4436 43.9181C28.4864 44.2999 28.7747 44.6076 29.1523 44.6787C29.9329 44.8248 30.7254 44.8979 31.5196 44.8972C32.33 44.8972 33.1226 44.8212 33.8906 44.6759C34.2679 44.6046 34.5557 44.2971 34.5983 43.9156L34.8878 41.3292C35.9479 40.9382 36.9181 40.3705 37.7695 39.661L40.1561 40.7049C40.5076 40.8586 40.9175 40.763 41.1681 40.4726C42.21 39.2659 43.0152 37.8737 43.5415 36.3688C43.6684 36.0059 43.5468 35.602 43.2373 35.3741ZM31.5196 36.8439C28.9353 36.8439 26.842 34.7484 26.8413 32.1642H30.6986C30.9164 32.1642 31.1253 32.0777 31.2793 31.9237C31.4333 31.7697 31.5199 31.5608 31.5199 31.343V27.4845C34.1045 27.4846 36.1979 29.5809 36.1979 32.1628C36.1979 34.7476 34.1044 36.8439 31.5196 36.8439Z" fill="#0000CB" fill-opacity="0.0627451"/>
<path id="Vector_3" d="M31.5198 9.66541V29.0925C31.5198 29.3103 31.4332 29.5192 31.2792 29.6732C31.1252 29.8272 30.9163 29.9137 30.6985 29.9137H5.22945C5.01164 29.9137 4.80276 29.8272 4.64874 29.6732C4.49473 29.5192 4.4082 29.3103 4.4082 29.0925V9.66541L4.87686 9.19666H31.0178L31.5198 9.66541Z" fill="white"/>
<path id="Vector_4" d="M29.1517 19.6528C28.7748 19.724 28.487 20.0315 28.4438 20.4121L28.1542 22.9987C27.0948 23.3868 26.1217 23.955 25.2695 24.6675L22.8854 23.6231C22.5348 23.4693 22.1242 23.565 21.8738 23.8556C20.831 25.0612 20.0251 26.4527 19.4982 27.9571C19.3707 28.32 19.4926 28.7231 19.802 28.9518L21.106 29.9137H27.4173C28.2123 28.4662 29.7507 27.4846 31.5198 27.4846V19.4315C30.7098 19.4315 29.9185 19.5075 29.1517 19.6528Z" fill="#D8D8FF"/>
<path id="Vector_5" d="M25.4967 24.3746H22.3157C22.1914 24.3746 22.0721 24.3252 21.9842 24.2373C21.8963 24.1494 21.8469 24.0301 21.8469 23.9058V18.6601C21.8469 18.5358 21.8963 18.4166 21.9842 18.3287C22.0721 18.2408 22.1914 18.1914 22.3157 18.1914H25.4967C25.621 18.1914 25.7403 18.2408 25.8282 18.3287C25.9161 18.4166 25.9655 18.5358 25.9655 18.6601V23.9058C25.9655 24.0301 25.9161 24.1494 25.8282 24.2373C25.7403 24.3252 25.621 24.3746 25.4967 24.3746ZM31.5199 9.66547V6.17403C31.5199 5.95622 31.4333 5.74734 31.2793 5.59332C31.1253 5.43931 30.9164 5.35278 30.6986 5.35278H5.22945C5.01164 5.35278 4.80276 5.43931 4.64874 5.59332C4.49473 5.74734 4.4082 5.95622 4.4082 6.17403V9.66538L31.5199 9.66547Z" fill="#FF6C6C"/>
<g id="Group_2">
<path id="Vector_6" d="M7.23242 8.16138C7.49131 8.16138 7.70117 7.95151 7.70117 7.69263C7.70117 7.43374 7.49131 7.22388 7.23242 7.22388C6.97354 7.22388 6.76367 7.43374 6.76367 7.69263C6.76367 7.95151 6.97354 8.16138 7.23242 8.16138Z" fill="white"/>
<path id="Vector_7" d="M8.9043 8.16138C9.16318 8.16138 9.37305 7.95151 9.37305 7.69263C9.37305 7.43374 9.16318 7.22388 8.9043 7.22388C8.64541 7.22388 8.43555 7.43374 8.43555 7.69263C8.43555 7.95151 8.64541 8.16138 8.9043 8.16138Z" fill="white"/>
<path id="Vector_8" d="M10.5771 8.16138C10.836 8.16138 11.0459 7.95151 11.0459 7.69263C11.0459 7.43374 10.836 7.22388 10.5771 7.22388C10.3183 7.22388 10.1084 7.43374 10.1084 7.69263C10.1084 7.95151 10.3183 8.16138 10.5771 8.16138Z" fill="white"/>
</g>
<path id="Vector_9" d="M43.2376 33.1237L41.1385 31.5778C41.2304 31.0368 41.2829 30.48 41.2829 29.9128C41.2829 29.3475 41.2304 28.7915 41.1385 28.2506L43.2376 26.7037C43.547 26.4759 43.6688 26.0728 43.5423 25.71C43.0126 24.1903 42.2017 22.8028 41.1713 21.6065C40.921 21.3159 40.5104 21.2193 40.1588 21.3731L37.7701 22.4175C36.9217 21.7078 35.9485 21.1368 34.8882 20.7487L34.5985 18.1631C34.5563 17.7815 34.2685 17.474 33.8907 17.4028C33.1229 17.2575 32.3298 17.1815 31.5198 17.1815C30.7098 17.1815 29.9185 17.2575 29.1517 17.4028C28.7748 17.474 28.487 17.7815 28.4438 18.1621L28.1542 20.7487C27.0948 21.1368 26.1217 21.705 25.2695 22.4175L22.8854 21.3731C22.5348 21.2193 22.1251 21.315 21.8738 21.6056C20.831 22.8112 20.0251 24.2027 19.4982 25.7071C19.3707 26.07 19.4926 26.4731 19.802 26.7018L21.902 28.2506C21.8092 28.7915 21.7595 29.3446 21.7595 29.9128C21.7595 30.48 21.8092 31.0368 21.902 31.5778L19.802 33.1265C19.4926 33.3543 19.3707 33.7584 19.4982 34.1212C20.0298 35.64 20.8407 37.0275 21.8682 38.2218C22.1195 38.5125 22.5292 38.6081 22.8807 38.4543L25.2695 37.4109C26.129 38.1271 27.1046 38.6912 28.1542 39.0787L28.4438 41.6681C28.487 42.0496 28.7748 42.3571 29.1526 42.4284C29.9204 42.5728 30.7117 42.6468 31.5198 42.6468C32.3298 42.6468 33.1229 42.5709 33.8907 42.4256C34.2685 42.3543 34.5563 42.0468 34.5985 41.6653L34.8882 39.0787C35.9485 38.6878 36.9179 38.1206 37.7701 37.4109L40.156 38.4543C40.5076 38.6081 40.9182 38.5125 41.1685 38.2228C42.2102 37.0156 43.0155 35.6233 43.5423 34.1184C43.6688 33.7556 43.547 33.3515 43.2376 33.1237ZM31.5198 36.3534C27.9629 36.3534 25.082 33.4687 25.082 29.9118C25.082 26.3587 27.9629 23.474 31.5198 23.474C35.0767 23.474 37.9576 26.3587 37.9576 29.9118C37.9576 33.4687 35.0767 36.3534 31.5198 36.3534Z" fill="#9393FF"/>
<path id="Vector_10" d="M31.5205 22.8796C27.6355 22.8796 24.4883 26.0306 24.4883 29.9118C24.4883 33.7968 27.6355 36.9478 31.5205 36.9478C35.4055 36.9478 38.5527 33.7968 38.5527 29.9118C38.5527 26.0306 35.4055 22.8796 31.5205 22.8796ZM31.5205 34.5937C28.9358 34.5937 26.8423 32.4975 26.8423 29.9128C26.8423 27.3309 28.9358 25.2346 31.5205 25.2346C34.1052 25.2346 36.1986 27.3309 36.1986 29.9128C36.1986 32.4975 34.1052 34.5937 31.5205 34.5937Z" fill="#6C6CFF"/>
<path id="Vector_11" d="M18.3525 18.0543C18.3525 17.774 18.3266 17.498 18.2806 17.2292L19.3228 16.4618C19.3974 16.4065 19.4523 16.3287 19.4795 16.2399C19.5067 16.1511 19.5048 16.056 19.4739 15.9684C19.213 15.2217 18.8137 14.5308 18.297 13.9318C18.2366 13.8614 18.1552 13.8122 18.0648 13.7914C17.9744 13.7706 17.8798 13.7793 17.7947 13.8163L16.6089 14.3344C16.1835 13.978 15.6996 13.6979 15.1787 13.5065L15.035 12.2228C15.0245 12.1306 14.9848 12.0442 14.9215 11.9763C14.8583 11.9083 14.775 11.8625 14.6838 11.8454C14.2958 11.7722 13.9018 11.7354 13.507 11.7356C13.1126 11.7354 12.7191 11.7722 12.3316 11.8453C12.2404 11.8624 12.157 11.9083 12.0938 11.9762C12.0306 12.0441 11.9909 12.1305 11.9804 12.2227L11.8368 13.5064C11.3153 13.6976 10.8309 13.9777 10.4051 14.3343L9.22179 13.8163C9.13677 13.7793 9.04215 13.7705 8.95178 13.7912C8.86141 13.8118 8.78003 13.8609 8.71957 13.9312C8.20197 14.5296 7.80194 15.2203 7.54047 15.967C7.50951 16.0545 7.50743 16.1497 7.53454 16.2386C7.56166 16.3274 7.61654 16.4052 7.69113 16.4606L8.73335 17.2292C8.63942 17.7757 8.63942 18.3343 8.73335 18.8808L7.69113 19.6495C7.61654 19.7048 7.56166 19.7826 7.53454 19.8715C7.50743 19.9603 7.50951 20.0555 7.54047 20.1431C7.80185 20.8891 8.20095 21.5794 8.71703 22.1782C8.77741 22.2486 8.85878 22.2979 8.94921 22.3187C9.03963 22.3395 9.13434 22.3308 9.21944 22.2938L10.4052 21.7757C10.8317 22.1314 11.3159 22.4114 11.8368 22.6036L11.9805 23.8886C11.991 23.9809 12.0308 24.0674 12.0941 24.1353C12.1574 24.2033 12.2409 24.2491 12.3322 24.2661C12.7196 24.3386 13.113 24.3749 13.5071 24.3746C13.9093 24.3746 14.3027 24.3368 14.6838 24.2647C14.7751 24.2476 14.8584 24.2018 14.9216 24.1339C14.9849 24.0659 15.0246 23.9795 15.0351 23.8873L15.1788 22.6036C15.6993 22.4113 16.183 22.1313 16.609 21.7757L17.7935 22.2938C17.8786 22.3308 17.9733 22.3395 18.0637 22.3188C18.1541 22.298 18.2354 22.2488 18.2958 22.1785C18.8129 21.5796 19.2125 20.8886 19.4737 20.1418C19.5047 20.0541 19.5067 19.9589 19.4795 19.87C19.4523 19.7812 19.3974 19.7034 19.3227 19.6481L18.2807 18.8807C18.3266 18.612 18.3525 18.336 18.3525 18.0543ZM13.507 20.3775C12.2241 20.3775 11.1851 19.3372 11.1851 18.0543C11.1851 16.7728 12.2241 15.7324 13.507 15.7324C14.7899 15.7324 15.8289 16.7728 15.8289 18.0543C15.8289 19.3372 14.7899 20.3775 13.507 20.3775ZM22.9762 13.333H22.3162C22.1919 13.333 22.0727 13.2836 21.9848 13.1957C21.8969 13.1078 21.8475 12.9885 21.8475 12.8642V12.2042C21.8475 12.0799 21.8969 11.9607 21.9848 11.8728C22.0727 11.7849 22.1919 11.7355 22.3162 11.7355H22.9762C23.1005 11.7355 23.2198 11.7849 23.3077 11.8728C23.3956 11.9607 23.445 12.0799 23.445 12.2042V12.8642C23.445 12.9885 23.3956 13.1078 23.3077 13.1957C23.2198 13.2836 23.1005 13.333 22.9762 13.333Z" fill="#FFAA66"/>
<g id="Group_3">
<path id="Vector_12" d="M21.8477 14.6841C21.8477 14.8084 21.897 14.9276 21.9849 15.0155C22.0729 15.1034 22.1921 15.1528 22.3164 15.1528H25.4974C25.6218 15.1528 25.741 15.1034 25.8289 15.0155C25.9168 14.9276 25.9662 14.8084 25.9662 14.6841C25.9662 14.5598 25.9168 14.4405 25.8289 14.3526C25.741 14.2647 25.6218 14.2153 25.4974 14.2153H22.3164C22.1921 14.2153 22.0729 14.2647 21.9849 14.3526C21.897 14.4405 21.8477 14.5598 21.8477 14.6841ZM26.6225 15.8465H22.3165C22.1922 15.8465 22.073 15.8959 21.985 15.9838C21.8971 16.0717 21.8477 16.1909 21.8477 16.3152C21.8477 16.4396 21.8971 16.5588 21.985 16.6467C22.073 16.7346 22.1922 16.784 22.3165 16.784H26.6225C26.7469 16.784 26.8661 16.7346 26.954 16.6467C27.0419 16.5588 27.0913 16.4396 27.0913 16.3152C27.0913 16.1909 27.0419 16.0717 26.954 15.9838C26.8661 15.8959 26.7469 15.8465 26.6225 15.8465Z" fill="#9393FF"/>
</g>
<path id="Vector_13" d="M14.5644 39.1452H9.05848C8.50302 39.1452 8.05273 38.6949 8.05273 38.1394V27.6326C8.05273 27.0771 8.50302 26.6268 9.05848 26.6268H9.87795L10.6442 27.0956H12.9787L13.745 26.6268H14.5644C15.1199 26.6268 15.5702 27.0771 15.5702 27.6326V38.1394C15.5702 38.6949 15.1199 39.1452 14.5644 39.1452Z" fill="#FF6C6C"/>
<path id="Vector_14" d="M13.4674 27.7693L13.7449 26.6268H9.87793L10.1554 27.7693C10.182 27.8788 10.2447 27.9763 10.3333 28.0459C10.4219 28.1156 10.5314 28.1535 10.6441 28.1535H12.9787C13.0914 28.1535 13.2009 28.1156 13.2895 28.0459C13.3782 27.9762 13.4408 27.8788 13.4674 27.7693Z" fill="#6C6CFF"/>
<g id="Group_4">
<path id="Vector_15" d="M43.5155 32.7466L41.6454 31.3695C41.7153 30.8871 41.7508 30.4003 41.7516 29.9128C41.7516 29.4375 41.7159 28.9497 41.6454 28.4589L43.5159 27.0815C43.9924 26.7307 44.181 26.1174 43.985 25.5556C43.4404 23.9938 42.6131 22.5622 41.5262 21.3005C41.1384 20.8502 40.5136 20.707 39.9712 20.9439L37.8438 21.8737C37.0721 21.2643 36.2261 20.7744 35.3223 20.4136L35.0645 18.1106C34.9986 17.5221 34.562 17.0524 33.9781 16.9419C33.3214 16.8185 32.6563 16.7452 31.9885 16.7226V6.17437C31.9885 5.463 31.4098 4.88428 30.6985 4.88428H5.22945C4.51817 4.88428 3.93945 5.463 3.93945 6.17437V29.0925C3.93945 29.8038 4.51817 30.3825 5.22945 30.3825H7.5838V32.8588C7.5838 32.9831 7.63318 33.1024 7.72109 33.1903C7.809 33.2782 7.92823 33.3276 8.05255 33.3276C8.17687 33.3276 8.2961 33.2782 8.384 33.1903C8.47191 33.1024 8.5213 32.9831 8.5213 32.8588V27.6326C8.52145 27.4902 8.57808 27.3537 8.67877 27.253C8.77946 27.1523 8.91599 27.0957 9.05839 27.0955H14.5643C14.7067 27.0957 14.8433 27.1523 14.9439 27.253C15.0446 27.3537 15.1013 27.4902 15.1014 27.6326V38.1395C15.1012 38.2818 15.0446 38.4184 14.9439 38.519C14.8432 38.6197 14.7067 38.6763 14.5643 38.6765H9.05839C8.91601 38.6763 8.77949 38.6197 8.67881 38.519C8.57812 38.4184 8.52147 38.2818 8.5213 38.1395V35.6279C8.5213 35.5036 8.47191 35.3844 8.384 35.2964C8.2961 35.2085 8.17687 35.1592 8.05255 35.1592C7.92823 35.1592 7.809 35.2085 7.72109 35.2964C7.63318 35.3844 7.5838 35.5036 7.5838 35.6279V38.1395C7.5838 38.9525 8.2453 39.614 9.05839 39.614H14.5643C15.3774 39.614 16.0389 38.9525 16.0389 38.1395V30.3825H18.9227C19.047 30.3825 19.1662 30.3331 19.2541 30.2452C19.342 30.1573 19.3914 30.0381 19.3914 29.9137C19.3914 29.7894 19.342 29.6702 19.2541 29.5823C19.1662 29.4944 19.047 29.445 18.9227 29.445H16.0389V27.6326C16.0389 26.8195 15.3774 26.158 14.5643 26.158H9.05839C8.2453 26.158 7.5838 26.8195 7.5838 27.6326V29.445H5.22945C5.136 29.4449 5.04641 29.4077 4.98033 29.3416C4.91426 29.2755 4.87708 29.1859 4.87695 29.0925V6.17437C4.87705 6.0809 4.91422 5.99129 4.9803 5.92519C5.04638 5.85909 5.13599 5.8219 5.22945 5.82178H30.6985C30.792 5.8219 30.8816 5.85909 30.9477 5.92519C31.0138 5.99129 31.0509 6.0809 31.051 6.17437V16.7225C30.3842 16.7451 29.7201 16.8184 29.0644 16.9417C28.4805 17.0524 28.044 17.522 27.9782 18.1105L27.7205 20.4134C26.8129 20.7755 25.9626 21.2673 25.1961 21.8734L23.0736 20.944C22.532 20.707 21.9075 20.8495 21.5193 21.2986C20.4321 22.5562 19.6032 23.9873 19.0556 25.5521C18.8591 26.114 19.0471 26.7276 19.5235 27.0788L21.3946 28.4587C21.3259 28.9404 21.2913 29.4262 21.2911 29.9127C21.2911 30.3975 21.3259 30.8863 21.3946 31.3695L19.5235 32.7494C19.0471 33.1008 18.859 33.7143 19.0556 34.276C19.6022 35.8381 20.429 37.2685 21.5134 38.5276C21.9011 38.9782 22.526 39.1214 23.0685 38.8844L25.1964 37.9546C25.9637 38.559 26.8136 39.0505 27.7202 39.4142L27.9781 41.7202C28.0439 42.3095 28.481 42.7793 29.066 42.8894C29.8752 43.0406 30.6966 43.1165 31.5199 43.116C32.3457 43.116 33.1727 43.0388 33.978 42.8866C34.562 42.7762 34.9986 42.3065 35.0645 41.7178L35.3223 39.4143C36.2279 39.0505 37.0768 38.559 37.8433 37.9548L39.9687 38.8844C40.5103 39.1211 41.1354 38.9784 41.5235 38.5287C42.6096 37.2697 43.4376 35.8381 43.9844 34.2735C44.1808 33.7112 43.9924 33.0976 43.5155 32.7466ZM43.0994 33.9641C42.5915 35.4171 41.8225 36.7468 40.8137 37.9162C40.6957 38.0527 40.5069 38.0965 40.3443 38.0253L37.9577 36.9814C37.8779 36.9465 37.79 36.9345 37.7038 36.9468C37.6177 36.959 37.5366 36.995 37.4697 37.0507C36.6461 37.7371 35.723 38.2715 34.7259 38.6392C34.6443 38.6692 34.5727 38.7215 34.5191 38.7899C34.4654 38.8584 34.4319 38.9405 34.4223 39.0269L34.1329 41.6134C34.113 41.7904 33.9808 41.9317 33.8038 41.9652C32.305 42.2485 30.7223 42.2467 29.2393 41.9678C29.062 41.9346 28.9296 41.7931 28.9098 41.6158L28.6203 39.0269C28.6106 38.9405 28.5771 38.8585 28.5235 38.79C28.4699 38.7215 28.3983 38.6693 28.3167 38.6392C27.317 38.2707 26.388 37.7334 25.57 37.0507C25.5032 36.995 25.4221 36.959 25.336 36.9468C25.2498 36.9345 25.162 36.9464 25.0822 36.9813L22.6931 38.0253C22.53 38.0963 22.3415 38.0525 22.2238 37.9159C21.2164 36.746 20.4482 35.4172 19.9405 33.9664C19.8807 33.7954 19.9367 33.6095 20.0799 33.5039L22.1798 31.9552C22.2497 31.9036 22.3039 31.8336 22.3364 31.753C22.3688 31.6724 22.3782 31.5844 22.3636 31.4988C22.2739 30.9748 22.2287 30.4442 22.2284 29.9126C22.2284 29.386 22.2739 28.8533 22.3636 28.3293C22.3782 28.2437 22.3688 28.1556 22.3364 28.075C22.3039 27.9945 22.2497 27.9245 22.1798 27.8729L20.0798 26.3242C19.9367 26.2186 19.8806 26.0327 19.9404 25.8616C20.4489 24.4086 21.2187 23.0796 22.2284 21.9115C22.3462 21.7752 22.5348 21.7312 22.6976 21.8027L25.0819 22.8466C25.1617 22.8817 25.2499 22.8937 25.3362 22.8814C25.4226 22.869 25.5038 22.8328 25.5707 22.7767C26.3867 22.0925 27.3155 21.5553 28.3155 21.1892C28.3973 21.1592 28.4692 21.107 28.523 21.0385C28.5769 20.9699 28.6105 20.8877 28.6202 20.8011L28.9097 18.2144C28.9295 18.0375 29.0616 17.8961 29.2386 17.8627C30.7341 17.5795 32.3091 17.5801 33.8037 17.8627C33.9807 17.8961 34.1129 18.0376 34.1328 18.2145L34.4222 20.8011C34.4319 20.8877 34.4655 20.9699 34.5193 21.0384C34.5732 21.107 34.645 21.1592 34.7269 21.1892C35.7224 21.5536 36.645 22.0877 37.469 22.7768C37.5359 22.8327 37.617 22.8688 37.7033 22.8812C37.7895 22.8935 37.8775 22.8816 37.9574 22.8468L40.3465 21.8028C40.5094 21.7312 40.6982 21.7755 40.8158 21.9121C41.8256 23.0842 42.594 24.4139 43.0997 25.8638C43.1594 26.0349 43.1031 26.2207 42.9599 26.3262L40.8601 27.8726C40.7901 27.9242 40.7358 27.9942 40.7033 28.0748C40.6708 28.1554 40.6613 28.2434 40.676 28.3291C40.7676 28.8645 40.814 29.3972 40.814 29.9125C40.814 30.4297 40.7676 30.9633 40.676 31.4988C40.6613 31.5845 40.6708 31.6725 40.7033 31.7531C40.7358 31.8337 40.7901 31.9037 40.8601 31.9552L42.9597 33.5013C43.103 33.6071 43.1591 33.7929 43.0994 33.9641Z" fill="#0000CB"/>
<path id="Vector_16" d="M31.5201 24.7657C31.52 24.7657 31.52 24.7657 31.5201 24.7657H31.52C28.6819 24.7658 26.373 27.0747 26.373 29.9128C26.373 32.7524 28.682 35.0626 31.5201 35.0626C34.3582 35.0626 36.6672 32.7524 36.6672 29.9128C36.6672 27.0747 34.3582 24.7657 31.5201 24.7657ZM31.0513 25.73V29.0925C31.0511 29.1859 31.014 29.2755 30.9479 29.3416C30.8818 29.4077 30.7922 29.4449 30.6988 29.445H27.3371C27.5535 27.4973 29.1037 25.9469 31.0513 25.73ZM31.5201 34.1251C29.3577 34.1251 27.5716 32.4847 27.3374 30.3825H30.6989C31.4101 30.3825 31.9889 29.8038 31.9889 29.0925V25.73C34.0902 25.9639 35.7298 27.7502 35.7298 29.9128C35.7297 32.2355 33.8413 34.1251 31.5201 34.1251Z" fill="#0000CB"/>
</g>
<path id="Vector_17" d="M13.6005 32.8354L12.8544 32.0893C13.1657 31.4952 13.072 30.7427 12.5733 30.244C11.9593 29.6301 10.9603 29.6301 10.3462 30.244C9.73225 30.858 9.73225 31.8572 10.3462 32.4712C10.4924 32.6175 10.666 32.7335 10.8571 32.8125C11.0482 32.8915 11.253 32.932 11.4598 32.9317C11.7146 32.9319 11.9657 32.8703 12.1915 32.7522L12.9376 33.4983C13.0292 33.5898 13.1491 33.6355 13.2691 33.6355C13.3891 33.6355 13.509 33.5898 13.6006 33.4983C13.6884 33.4104 13.7377 33.2911 13.7377 33.1668C13.7377 33.0425 13.6883 32.9233 13.6005 32.8354ZM11.0091 31.8083C10.8898 31.6887 10.8228 31.5266 10.8228 31.3577C10.8228 31.1887 10.8898 31.0267 11.0091 30.907C11.1333 30.7828 11.2966 30.7207 11.4598 30.7207C11.623 30.7207 11.7861 30.7828 11.9104 30.907C12.0298 31.0267 12.0968 31.1887 12.0968 31.3577C12.0968 31.5266 12.0298 31.6887 11.9104 31.8083C11.7908 31.9276 11.6288 31.9947 11.4598 31.9947C11.2908 31.9947 11.1287 31.9276 11.0091 31.8083ZM10.4087 36.5195C10.4087 36.6438 10.458 36.763 10.546 36.8509C10.6339 36.9388 10.7531 36.9882 10.8774 36.9882H12.7459C12.8703 36.9882 12.9895 36.9388 13.0774 36.8509C13.1653 36.763 13.2147 36.6438 13.2147 36.5195C13.2147 36.3952 13.1653 36.2759 13.0774 36.188C12.9895 36.1001 12.8703 36.0507 12.7459 36.0507H10.8774C10.7531 36.0507 10.6339 36.1001 10.546 36.188C10.458 36.2759 10.4087 36.3952 10.4087 36.5195Z" fill="white"/>
<path id="Vector_18" d="M38.998 16.4735C38.8737 16.4735 38.7545 16.4241 38.6666 16.3362C38.5787 16.2483 38.5293 16.1291 38.5293 16.0048C38.5293 15.7205 38.2979 15.4891 38.0137 15.4891C37.7547 15.4891 37.5449 15.2793 37.5449 15.0204C37.5449 14.7614 37.7547 14.5516 38.0137 14.5516C38.2979 14.5516 38.5293 14.3203 38.5293 14.036C38.5293 13.7771 38.7391 13.5673 38.998 13.5673C39.257 13.5673 39.4668 13.7771 39.4668 14.036C39.4668 14.3203 39.6982 14.5516 39.9824 14.5516C40.2414 14.5516 40.4512 14.7614 40.4512 15.0204C40.4512 15.2793 40.2414 15.4891 39.9824 15.4891C39.8457 15.4893 39.7147 15.5437 39.618 15.6404C39.5213 15.737 39.467 15.8681 39.4668 16.0048C39.4668 16.1291 39.4174 16.2483 39.3295 16.3362C39.2416 16.4241 39.1224 16.4735 38.998 16.4735Z" fill="#FF6C6C"/>
<path id="Vector_19" d="M3.61816 38.3179C3.49384 38.3179 3.37462 38.2685 3.28671 38.1806C3.1988 38.0927 3.14941 37.9734 3.14941 37.8491C3.14941 37.5649 2.91813 37.3335 2.63379 37.3335C2.50947 37.3335 2.39024 37.2841 2.30233 37.1962C2.21443 37.1083 2.16504 36.9891 2.16504 36.8647C2.16504 36.7404 2.21443 36.6212 2.30233 36.5333C2.39024 36.4454 2.50947 36.396 2.63379 36.396C2.91813 36.396 3.14941 36.1646 3.14941 35.8804C3.14941 35.7561 3.1988 35.6368 3.28671 35.5489C3.37462 35.461 3.49384 35.4116 3.61816 35.4116C3.74248 35.4116 3.86171 35.461 3.94962 35.5489C4.03753 35.6368 4.08691 35.7561 4.08691 35.8804C4.08691 36.1646 4.3182 36.396 4.60254 36.396C4.72686 36.396 4.84609 36.4454 4.934 36.5333C5.0219 36.6212 5.07129 36.7404 5.07129 36.8647C5.07129 36.9891 5.0219 37.1083 4.934 37.1962C4.84609 37.2841 4.72686 37.3335 4.60254 37.3335C4.46583 37.3336 4.33477 37.388 4.2381 37.4847C4.14144 37.5814 4.08706 37.7124 4.08691 37.8491C4.08691 37.9734 4.03753 38.0927 3.94962 38.1806C3.86171 38.2685 3.74248 38.3179 3.61816 38.3179Z" fill="#6C6CFF"/>
<path id="Vector_20" d="M18.3242 43.6675C18.1999 43.6675 18.0807 43.6181 17.9928 43.5302C17.9049 43.4423 17.8555 43.3231 17.8555 43.1987C17.8555 42.9145 17.6242 42.6831 17.3398 42.6831C17.2155 42.6831 17.0963 42.6337 17.0084 42.5458C16.9205 42.4579 16.8711 42.3387 16.8711 42.2144C16.8711 42.09 16.9205 41.9708 17.0084 41.8829C17.0963 41.795 17.2155 41.7456 17.3398 41.7456C17.6242 41.7456 17.8555 41.5142 17.8555 41.23C17.8555 41.1057 17.9049 40.9864 17.9928 40.8985C18.0807 40.8106 18.1999 40.7612 18.3242 40.7612C18.4485 40.7612 18.5678 40.8106 18.6557 40.8985C18.7436 40.9864 18.793 41.1057 18.793 41.23C18.793 41.5142 19.0243 41.7456 19.3086 41.7456C19.4329 41.7456 19.5521 41.795 19.6401 41.8829C19.728 41.9708 19.7773 42.09 19.7773 42.2144C19.7773 42.3387 19.728 42.4579 19.6401 42.5458C19.5521 42.6337 19.4329 42.6831 19.3086 42.6831C19.1719 42.6833 19.0408 42.7376 18.9442 42.8343C18.8475 42.931 18.7931 43.062 18.793 43.1987C18.793 43.3231 18.7436 43.4423 18.6557 43.5302C18.5678 43.6181 18.4485 43.6675 18.3242 43.6675Z" fill="#FF9C33"/>
<path id="Vector_21" d="M35.3291 12.1865C35.2675 12.1866 35.2065 12.1745 35.1497 12.1509C35.0928 12.1274 35.0411 12.0928 34.9977 12.0492L34.0133 11.0648C33.9698 11.0213 33.9352 10.9696 33.9117 10.9127C33.8881 10.8559 33.876 10.7949 33.876 10.7334C33.876 10.6718 33.8881 10.6109 33.9117 10.554C33.9352 10.4971 33.9698 10.4455 34.0133 10.402L34.9977 9.41759C35.0412 9.37406 35.0928 9.33952 35.1497 9.31596C35.2066 9.2924 35.2675 9.28027 35.3291 9.28027C35.3906 9.28027 35.4516 9.2924 35.5084 9.31596C35.5653 9.33952 35.617 9.37406 35.6605 9.41759L36.6449 10.402C36.6884 10.4455 36.7229 10.4971 36.7465 10.554C36.7701 10.6109 36.7822 10.6718 36.7822 10.7334C36.7822 10.7949 36.7701 10.8559 36.7465 10.9127C36.7229 10.9696 36.6884 11.0213 36.6449 11.0648L35.6605 12.0492C35.617 12.0928 35.5654 12.1274 35.5085 12.1509C35.4516 12.1745 35.3906 12.1866 35.3291 12.1865ZM35.0076 10.7334L35.3291 11.0548L35.6505 10.7334L35.3291 10.4119L35.0076 10.7334Z" fill="#6C6CFF"/>
<path id="Vector_22" d="M38.998 44.399C38.9365 44.3991 38.8755 44.387 38.8186 44.3635C38.7617 44.3399 38.7101 44.3053 38.6666 44.2617L37.6822 43.2773C37.6387 43.2338 37.6042 43.1821 37.5806 43.1253C37.557 43.0684 37.5449 43.0075 37.5449 42.9459C37.5449 42.8843 37.557 42.8234 37.5806 42.7665C37.6042 42.7097 37.6387 42.658 37.6822 42.6145L38.6666 41.6301C38.7101 41.5866 38.7618 41.552 38.8187 41.5285C38.8755 41.5049 38.9365 41.4928 38.998 41.4928C39.0596 41.4928 39.1205 41.5049 39.1774 41.5285C39.2343 41.552 39.2859 41.5866 39.3294 41.6301L40.3138 42.6145C40.3573 42.658 40.3919 42.7097 40.4154 42.7665C40.439 42.8234 40.4511 42.8843 40.4511 42.9459C40.4511 43.0075 40.439 43.0684 40.4154 43.1253C40.3919 43.1821 40.3573 43.2338 40.3138 43.2773L39.3294 44.2617C39.286 44.3053 39.2343 44.3399 39.1774 44.3634C39.1206 44.387 39.0596 44.3991 38.998 44.399ZM38.6766 42.9459L38.998 43.2674L39.3195 42.9459L38.998 42.6244L38.6766 42.9459Z" fill="#FF6C6C"/>
</g>
</g>
<defs>
<linearGradient id="paint0_linear_280_41414" x1="3.29934" y1="36.4237" x2="39.8352" y2="-0.112217" gradientUnits="userSpaceOnUse">
<stop stop-color="#FFD8D8" stop-opacity="0"/>
<stop offset="0.998" stop-color="#FFB2B2"/>
</linearGradient>
<clipPath id="clip0_280_41414">
<rect width="48" height="48" fill="white"/>
</clipPath>
</defs>
</svg>
