<svg width="48" height="48" viewBox="0 0 48 48" fill="none" xmlns="http://www.w3.org/2000/svg">
<g id="Frame">
<g id="Group">
<g id="Fill Outline">
<path id="Vector" d="M4.5 24.75H25.5V41.25H4.5V24.75Z" fill="#AAE1F9"/>
<path id="Vector_2" d="M2.25 41.25H27.75V42.75C27.75 43.5456 27.4339 44.3087 26.8713 44.8713C26.3087 45.4339 25.5456 45.75 24.75 45.75H5.25C4.45435 45.75 3.69129 45.4339 3.12868 44.8713C2.56607 44.3087 2.25 43.5456 2.25 42.75V41.25Z" fill="#F9E109"/>
<path id="Vector_3" d="M7.5 30.75V24.75H4.5V41.25H25.5V38.25H15C13.0109 38.25 11.1032 37.4598 9.6967 36.0533C8.29018 34.6468 7.5 32.7391 7.5 30.75Z" fill="#57B7EB"/>
<path id="Vector_4" d="M6.75 43.5C6.15326 43.5 5.58097 43.2629 5.15901 42.841C4.73705 42.419 4.5 41.8467 4.5 41.25H2.25V42.75C2.25 43.5456 2.56607 44.3087 3.12868 44.8713C3.69129 45.4339 4.45435 45.75 5.25 45.75H24.75C25.4134 45.7478 26.0574 45.5258 26.5812 45.1187C27.105 44.7116 27.4791 44.1424 27.645 43.5H6.75Z" fill="#FCBC04"/>
<path id="Vector_5" d="M44.25 25.5H35.25C34.4216 25.5 33.75 26.1716 33.75 27V36C33.75 36.8284 34.4216 37.5 35.25 37.5H44.25C45.0784 37.5 45.75 36.8284 45.75 36V27C45.75 26.1716 45.0784 25.5 44.25 25.5Z" fill="#C4F236"/>
<path id="Vector_6" d="M39.75 33.75C40.9926 33.75 42 32.7426 42 31.5C42 30.2574 40.9926 29.25 39.75 29.25C38.5074 29.25 37.5 30.2574 37.5 31.5C37.5 32.7426 38.5074 33.75 39.75 33.75Z" fill="#57B7EB"/>
<path id="Vector_7" d="M36 29.25V25.5H35.25C34.8522 25.5 34.4706 25.658 34.1893 25.9393C33.908 26.2206 33.75 26.6022 33.75 27V36C33.75 36.3978 33.908 36.7794 34.1893 37.0607C34.4706 37.342 34.8522 37.5 35.25 37.5H44.25C44.6478 37.5 45.0294 37.342 45.3107 37.0607C45.592 36.7794 45.75 36.3978 45.75 36V35.25H42C40.4087 35.25 38.8826 34.6179 37.7574 33.4926C36.6321 32.3674 36 30.8413 36 29.25Z" fill="#A1D51C"/>
<path id="Vector_8" d="M40.5 31.5C40.9142 31.5 41.25 31.1642 41.25 30.75C41.25 30.3358 40.9142 30 40.5 30C40.0858 30 39.75 30.3358 39.75 30.75C39.75 31.1642 40.0858 31.5 40.5 31.5Z" fill="#AAE1F9"/>
<path id="Vector_9" d="M2.25 9H11.25V21H2.25V9Z" fill="#C4F236"/>
<path id="Vector_10" d="M20.25 13.5C23.5637 13.5 26.25 10.8137 26.25 7.5C26.25 4.18629 23.5637 1.5 20.25 1.5C16.9363 1.5 14.25 4.18629 14.25 7.5C14.25 10.8137 16.9363 13.5 20.25 13.5Z" fill="#F89C8D"/>
<path id="Vector_11" d="M18.75 9.75V5.25L23.25 7.5L18.75 9.75Z" fill="#AAE1F9"/>
<path id="Vector_12" d="M22.4995 11.2501C20.9082 11.2501 19.3821 10.618 18.2569 9.49274C17.1317 8.36752 16.4995 6.8414 16.4995 5.2501C16.4976 4.21062 16.7692 3.18892 17.287 2.2876C16.4968 2.75183 15.8234 3.39092 15.3186 4.15583C14.8137 4.92075 14.4908 5.79115 14.3746 6.70026C14.2584 7.60936 14.352 8.533 14.6482 9.40031C14.9445 10.2676 15.4355 11.0555 16.0835 11.7036C16.7316 12.3517 17.5195 12.8426 18.3868 13.1389C19.2541 13.4351 20.1778 13.5287 21.0869 13.4125C21.996 13.2963 22.8664 12.9734 23.6313 12.4686C24.3962 11.9637 25.0353 11.2903 25.4995 10.5001C24.5835 11.0112 23.5483 11.2701 22.4995 11.2501Z" fill="#F8664F"/>
<path id="Vector_13" d="M44.25 2.25H35.25C34.4216 2.25 33.75 2.92157 33.75 3.75V12.75C33.75 13.5784 34.4216 14.25 35.25 14.25H44.25C45.0784 14.25 45.75 13.5784 45.75 12.75V3.75C45.75 2.92157 45.0784 2.25 44.25 2.25Z" fill="#AAE1F9"/>
<path id="Vector_14" d="M36 6V2.25H35.25C34.8522 2.25 34.4706 2.40804 34.1893 2.68934C33.908 2.97064 33.75 3.35218 33.75 3.75V12.75C33.75 13.1478 33.908 13.5294 34.1893 13.8107C34.4706 14.092 34.8522 14.25 35.25 14.25H44.25C44.6478 14.25 45.0294 14.092 45.3107 13.8107C45.592 13.5294 45.75 13.1478 45.75 12.75V12H42C40.4087 12 38.8826 11.3679 37.7574 10.2426C36.6321 9.11742 36 7.5913 36 6Z" fill="#57B7EB"/>
<path id="Vector_15" d="M4.5 14.25V9H2.25V21H11.25V18.75H9C7.80653 18.75 6.66193 18.2759 5.81802 17.432C4.97411 16.5881 4.5 15.4435 4.5 14.25Z" fill="#A1D51C"/>
<path id="Vector_16" d="M14.2969 32.3738L16.8949 30.8738L19.8949 36.0698C20.0938 36.4143 20.1477 36.8237 20.0447 37.208C19.9418 37.5922 19.6904 37.9199 19.3459 38.1188C19.0014 38.3177 18.5919 38.3716 18.2077 38.2686C17.8234 38.1657 17.4958 37.9143 17.2969 37.5698L14.2969 32.3738Z" fill="#F8664F"/>
<path id="Vector_17" d="M18.7949 34.1626L16.8974 30.8701L14.2949 32.3701L16.0724 35.4451L17.3699 34.6951L18.7949 34.1626Z" fill="#CC5144"/>
<path id="Vector_18" d="M30.1876 28.395L17.3701 33.195L13.6201 26.7L24.1876 18L30.1876 28.395Z" fill="#C4F236"/>
<path id="Vector_19" d="M10.3759 28.5757L13.6234 26.7007L17.3734 33.1957L14.1259 35.0707C13.6091 35.369 12.995 35.4499 12.4186 35.2955C11.8422 35.141 11.3508 34.7639 11.0524 34.2472L9.55241 31.6492C9.25406 31.1324 9.17321 30.5183 9.32764 29.9419C9.48208 29.3655 9.85915 28.8741 10.3759 28.5757Z" fill="#F89C8D"/>
<path id="Vector_20" d="M8.24801 32.3977L9.54701 31.6477L11.047 34.2457L9.74801 34.9957C9.40349 35.1946 8.99407 35.2485 8.60981 35.1456C8.22555 35.0426 7.89792 34.7912 7.69901 34.4467C7.5001 34.1022 7.4462 33.6928 7.54916 33.3085C7.65211 32.9242 7.9035 32.5966 8.24801 32.3977Z" fill="#CC5144"/>
<path id="Vector_21" d="M18.2395 30.8999C18.1619 30.9289 18.0866 30.964 18.0145 31.0049L16.582 31.8299L17.3695 33.1949L30.187 28.3949L29.2495 26.7749L18.2395 30.8999Z" fill="#A1D51C"/>
<path id="Vector_22" d="M16.1703 32.0701C15.5735 32.4116 14.8942 32.5824 14.2069 32.5638C13.5195 32.5453 12.8504 32.3381 12.2729 31.9649C11.6953 31.5918 11.2315 31.067 10.9321 30.448C10.6327 29.829 10.5093 29.1395 10.5753 28.4551L10.3728 28.5751C10.1166 28.7227 9.89201 28.9194 9.71187 29.1538C9.53173 29.3883 9.39957 29.656 9.32295 29.9416C9.24633 30.2272 9.22675 30.5251 9.26533 30.8182C9.30391 31.1114 9.3999 31.394 9.5478 31.6501L11.0478 34.2451C11.1954 34.5013 11.3921 34.7259 11.6266 34.906C11.861 35.0862 12.1287 35.2183 12.4143 35.2949C12.6999 35.3716 12.9978 35.3911 13.2909 35.3525C13.5841 35.314 13.8668 35.218 14.1228 35.0701L17.3703 33.1951L16.5828 31.8301L16.1703 32.0701Z" fill="#F8664F"/>
<g id="Group_2">
<path id="Vector_23" d="M27.75 40.5H26.25V33.15C26.25 32.9511 26.171 32.7603 26.0303 32.6197C25.8897 32.479 25.6989 32.4 25.5 32.4C25.3011 32.4 25.1103 32.479 24.9697 32.6197C24.829 32.7603 24.75 32.9511 24.75 33.15V40.5H5.25V25.5H11.49C11.6889 25.5 11.8797 25.421 12.0203 25.2803C12.161 25.1397 12.24 24.9489 12.24 24.75C12.24 24.5511 12.161 24.3603 12.0203 24.2197C11.8797 24.079 11.6889 24 11.49 24H4.5C4.30109 24 4.11032 24.079 3.96967 24.2197C3.82902 24.3603 3.75 24.5511 3.75 24.75V40.5H2.25C2.05109 40.5 1.86032 40.579 1.71967 40.7197C1.57902 40.8603 1.5 41.0511 1.5 41.25V42.75C1.5 43.7446 1.89509 44.6984 2.59835 45.4016C3.30161 46.1049 4.25544 46.5 5.25 46.5H24.75C25.7446 46.5 26.6984 46.1049 27.4016 45.4016C28.1049 44.6984 28.5 43.7446 28.5 42.75V41.25C28.5 41.0511 28.421 40.8603 28.2803 40.7197C28.1397 40.579 27.9489 40.5 27.75 40.5ZM27 42.75C27 43.3467 26.7629 43.919 26.341 44.341C25.919 44.7629 25.3467 45 24.75 45H23.25V44.25C23.25 44.0511 23.171 43.8603 23.0303 43.7197C22.8897 43.579 22.6989 43.5 22.5 43.5C22.3011 43.5 22.1103 43.579 21.9697 43.7197C21.829 43.8603 21.75 44.0511 21.75 44.25V45H8.25V44.25C8.25 44.0511 8.17098 43.8603 8.03033 43.7197C7.88968 43.579 7.69891 43.5 7.5 43.5C7.30109 43.5 7.11032 43.579 6.96967 43.7197C6.82902 43.8603 6.75 44.0511 6.75 44.25V45H5.25C4.65326 45 4.08097 44.7629 3.65901 44.341C3.23705 43.919 3 43.3467 3 42.75V42H27V42.75ZM40.5 6H42C42.1989 6 42.3897 5.92098 42.5303 5.78033C42.671 5.63968 42.75 5.44891 42.75 5.25C42.75 5.05109 42.671 4.86032 42.5303 4.71967C42.3897 4.57902 42.1989 4.5 42 4.5H40.5C39.9033 4.5 39.331 4.73705 38.909 5.15901C38.4871 5.58097 38.25 6.15326 38.25 6.75V7.5H37.5C37.3011 7.5 37.1103 7.57902 36.9697 7.71967C36.829 7.86032 36.75 8.05109 36.75 8.25C36.75 8.44891 36.829 8.63968 36.9697 8.78033C37.1103 8.92098 37.3011 9 37.5 9H38.25V11.25C38.25 11.4489 38.329 11.6397 38.4697 11.7803C38.6103 11.921 38.8011 12 39 12C39.1989 12 39.3897 11.921 39.5303 11.7803C39.671 11.6397 39.75 11.4489 39.75 11.25V9H40.5C40.6989 9 40.8897 8.92098 41.0303 8.78033C41.171 8.63968 41.25 8.44891 41.25 8.25C41.25 8.05109 41.171 7.86032 41.0303 7.71967C40.8897 7.57902 40.6989 7.5 40.5 7.5H39.75V6.75C39.75 6.55109 39.829 6.36032 39.9697 6.21967C40.1103 6.07902 40.3011 6 40.5 6Z" fill="#39519D"/>
<path id="Vector_24" d="M44.25 1.5H35.25C34.6533 1.5 34.081 1.73705 33.659 2.15901C33.2371 2.58097 33 3.15326 33 3.75V5.25C33 5.44891 33.079 5.63968 33.2197 5.78033C33.3603 5.92098 33.5511 6 33.75 6C33.9489 6 34.1397 5.92098 34.2803 5.78033C34.421 5.63968 34.5 5.44891 34.5 5.25V3.75C34.5 3.55109 34.579 3.36032 34.7197 3.21967C34.8603 3.07902 35.0511 3 35.25 3H44.25C44.4489 3 44.6397 3.07902 44.7803 3.21967C44.921 3.36032 45 3.55109 45 3.75V12.75C45 12.9489 44.921 13.1397 44.7803 13.2803C44.6397 13.421 44.4489 13.5 44.25 13.5H35.25C35.0511 13.5 34.8603 13.421 34.7197 13.2803C34.579 13.1397 34.5 12.9489 34.5 12.75V8.25C34.5 8.05109 34.421 7.86032 34.2803 7.71967C34.1397 7.57902 33.9489 7.5 33.75 7.5C33.5511 7.5 33.3603 7.57902 33.2197 7.71967C33.079 7.86032 33 8.05109 33 8.25V12.75C33 13.3467 33.2371 13.919 33.659 14.341C34.081 14.7629 34.6533 15 35.25 15H44.25C44.8467 15 45.419 14.7629 45.841 14.341C46.2629 13.919 46.5 13.3467 46.5 12.75V3.75C46.5 3.15326 46.2629 2.58097 45.841 2.15901C45.419 1.73705 44.8467 1.5 44.25 1.5ZM36.75 31.5C36.75 32.0933 36.9259 32.6734 37.2556 33.1667C37.5852 33.6601 38.0538 34.0446 38.6019 34.2716C39.1501 34.4987 39.7533 34.5581 40.3353 34.4424C40.9172 34.3266 41.4518 34.0409 41.8713 33.6213C42.2909 33.2018 42.5766 32.6672 42.6924 32.0853C42.8081 31.5033 42.7487 30.9001 42.5216 30.3519C42.2946 29.8038 41.9101 29.3352 41.4167 29.0056C40.9234 28.6759 40.3433 28.5 39.75 28.5C38.9544 28.5 38.1913 28.8161 37.6287 29.3787C37.0661 29.9413 36.75 30.7044 36.75 31.5ZM41.25 31.5C41.25 31.7967 41.162 32.0867 40.9972 32.3334C40.8324 32.58 40.5981 32.7723 40.324 32.8858C40.0499 32.9994 39.7483 33.0291 39.4574 32.9712C39.1664 32.9133 38.8991 32.7704 38.6893 32.5607C38.4796 32.3509 38.3367 32.0836 38.2788 31.7926C38.2209 31.5017 38.2506 31.2001 38.3642 30.926C38.4777 30.6519 38.67 30.4176 38.9166 30.2528C39.1633 30.088 39.4533 30 39.75 30C40.1478 30 40.5294 30.158 40.8107 30.4393C41.092 30.7206 41.25 31.1022 41.25 31.5Z" fill="#39519D"/>
<path id="Vector_25" d="M44.25 24.7499H35.25C34.6533 24.7499 34.081 24.987 33.659 25.4089C33.2371 25.8309 33 26.4032 33 26.9999V35.9999C33 36.5967 33.2371 37.169 33.659 37.5909C34.081 38.0129 34.6533 38.2499 35.25 38.2499H44.25C44.8467 38.2499 45.419 38.0129 45.841 37.5909C46.2629 37.169 46.5 36.5967 46.5 35.9999V34.4999C46.5 34.301 46.421 34.1103 46.2803 33.9696C46.1397 33.8289 45.9489 33.7499 45.75 33.7499C45.5511 33.7499 45.3603 33.8289 45.2197 33.9696C45.079 34.1103 45 34.301 45 34.4999V35.9999C45 36.1988 44.921 36.3896 44.7803 36.5303C44.6397 36.6709 44.4489 36.7499 44.25 36.7499H35.25C35.0511 36.7499 34.8603 36.6709 34.7197 36.5303C34.579 36.3896 34.5 36.1988 34.5 35.9999V26.9999C34.5 26.801 34.579 26.6102 34.7197 26.4696C34.8603 26.3289 35.0511 26.2499 35.25 26.2499H44.25C44.4489 26.2499 44.6397 26.3289 44.7803 26.4696C44.921 26.6102 45 26.801 45 26.9999V31.4999C45 31.6988 45.079 31.8896 45.2197 32.0303C45.3603 32.1709 45.5511 32.2499 45.75 32.2499C45.9489 32.2499 46.1397 32.1709 46.2803 32.0303C46.421 31.8896 46.5 31.6988 46.5 31.4999V26.9999C46.5 26.4032 46.2629 25.8309 45.841 25.4089C45.419 24.987 44.8467 24.7499 44.25 24.7499ZM18.3525 10.3874C18.4719 10.4614 18.6096 10.5004 18.75 10.4999C18.8674 10.4992 18.983 10.471 19.0875 10.4174L23.5875 8.16743C23.7104 8.10449 23.8135 8.00887 23.8854 7.89109C23.9574 7.77332 23.9955 7.63796 23.9955 7.49993C23.9955 7.36189 23.9574 7.22654 23.8854 7.10876C23.8135 6.99099 23.7104 6.89537 23.5875 6.83243L19.0875 4.58243C18.9733 4.5249 18.8463 4.4975 18.7186 4.50285C18.5909 4.50821 18.4666 4.54612 18.3577 4.613C18.2487 4.67988 18.1586 4.7735 18.096 4.88498C18.0335 4.99645 18.0004 5.12208 18 5.24993V9.74993C17.9997 9.87739 18.032 10.0028 18.0937 10.1143C18.1553 10.2259 18.2444 10.3199 18.3525 10.3874ZM19.5 6.46493L21.57 7.49993L19.5 8.53493V6.46493Z" fill="#39519D"/>
<path id="Vector_26" d="M20.25 14.25C21.585 14.25 22.8901 13.8541 24.0001 13.1124C25.1101 12.3707 25.9753 11.3165 26.4862 10.0831C26.9971 8.84972 27.1308 7.49252 26.8703 6.18314C26.6099 4.87377 25.967 3.67104 25.023 2.72703C24.079 1.78303 22.8762 1.14015 21.5669 0.879702C20.2575 0.619252 18.9003 0.752925 17.6669 1.26382C16.4335 1.77471 15.3793 2.63987 14.6376 3.7499C13.8959 4.85994 13.5 6.16498 13.5 7.5C13.5 9.29021 14.2112 11.0071 15.477 12.273C16.7429 13.5388 18.4598 14.25 20.25 14.25ZM20.25 2.25C21.2884 2.25 22.3034 2.55791 23.1667 3.13479C24.0301 3.71166 24.703 4.5316 25.1004 5.49091C25.4977 6.45023 25.6017 7.50583 25.3991 8.52423C25.1966 9.54263 24.6965 10.4781 23.9623 11.2123C23.2281 11.9465 22.2926 12.4466 21.2742 12.6491C20.2558 12.8517 19.2002 12.7477 18.2409 12.3504C17.2816 11.953 16.4617 11.2801 15.8848 10.4167C15.3079 9.55339 15 8.53835 15 7.5C15 6.10762 15.5531 4.77226 16.5377 3.78769C17.5223 2.80313 18.8576 2.25 20.25 2.25ZM27.75 17.25C27.8664 17.25 27.9813 17.2229 28.0854 17.1708C28.1896 17.1188 28.2801 17.0431 28.35 16.95L30.6 13.95C30.7193 13.7909 30.7706 13.5908 30.7425 13.3939C30.7143 13.197 30.6091 13.0194 30.45 12.9C30.2909 12.7807 30.0908 12.7294 29.8939 12.7575C29.697 12.7857 29.5193 12.8909 29.4 13.05L27.15 16.05C27.0307 16.2091 26.9794 16.4092 27.0075 16.6061C27.0357 16.803 27.1409 16.9807 27.3 17.1C27.4298 17.1974 27.5877 17.25 27.75 17.25ZM29.4 19.95C29.4699 20.0431 29.5604 20.1188 29.6646 20.1708C29.7687 20.2229 29.8836 20.25 30 20.25C30.1623 20.25 30.3202 20.1974 30.45 20.1L33.45 17.85C33.6091 17.7307 33.7143 17.553 33.7425 17.3561C33.7706 17.1592 33.7193 16.9591 33.6 16.8C33.4807 16.6409 33.303 16.5357 33.1061 16.5075C32.9092 16.4794 32.7091 16.5307 32.55 16.65L29.55 18.9C29.3909 19.0194 29.2857 19.197 29.2575 19.3939C29.2294 19.5908 29.2807 19.7909 29.4 19.95ZM36.75 21.6C36.7322 21.5006 36.6944 21.4058 36.6391 21.3213C36.5837 21.2368 36.5118 21.1643 36.4278 21.1083C36.3437 21.0523 36.2492 21.0138 36.15 20.9952C36.0507 20.9766 35.9486 20.9782 35.85 21L32.1 21.75C32.0015 21.7599 31.9059 21.789 31.8187 21.8358C31.7315 21.8826 31.6543 21.9461 31.5916 22.0227C31.465 22.1774 31.4051 22.3761 31.425 22.575C31.4449 22.7739 31.543 22.9568 31.6977 23.0834C31.8524 23.21 32.0511 23.2699 32.25 23.25H32.4L36.15 22.5C36.2494 22.4822 36.3442 22.4444 36.4287 22.3891C36.5132 22.3337 36.5857 22.2618 36.6417 22.1778C36.6977 22.0937 36.7362 21.9992 36.7548 21.9C36.7734 21.8007 36.7718 21.6986 36.75 21.6ZM2.25 21.75H11.25C11.4489 21.75 11.6397 21.671 11.7803 21.5303C11.921 21.3897 12 21.1989 12 21V9C12 8.80109 11.921 8.61033 11.7803 8.46967C11.6397 8.32902 11.4489 8.25 11.25 8.25H2.25C2.05109 8.25 1.86032 8.32902 1.71967 8.46967C1.57902 8.61033 1.5 8.80109 1.5 9V21C1.5 21.1989 1.57902 21.3897 1.71967 21.5303C1.86032 21.671 2.05109 21.75 2.25 21.75ZM3 9.75H10.5V20.25H3V9.75Z" fill="#39519D"/>
<path id="Vector_27" d="M8.25 11.25H6.75C6.55109 11.25 6.36032 11.329 6.21967 11.4697C6.07902 11.6103 6 11.8011 6 12C6 12.1989 6.07902 12.3897 6.21967 12.5303C6.36032 12.671 6.55109 12.75 6.75 12.75H8.25C8.44891 12.75 8.63968 12.671 8.78033 12.5303C8.92098 12.3897 9 12.1989 9 12C9 11.8011 8.92098 11.6103 8.78033 11.4697C8.63968 11.329 8.44891 11.25 8.25 11.25ZM8.25 14.25H5.25C5.05109 14.25 4.86032 14.329 4.71967 14.4697C4.57902 14.6103 4.5 14.8011 4.5 15C4.5 15.1989 4.57902 15.3897 4.71967 15.5303C4.86032 15.671 5.05109 15.75 5.25 15.75H8.25C8.44891 15.75 8.63968 15.671 8.78033 15.5303C8.92098 15.3897 9 15.1989 9 15C9 14.8011 8.92098 14.6103 8.78033 14.4697C8.63968 14.329 8.44891 14.25 8.25 14.25ZM8.25 17.25H5.25C5.05109 17.25 4.86032 17.329 4.71967 17.4697C4.57902 17.6103 4.5 17.8011 4.5 18C4.5 18.1989 4.57902 18.3897 4.71967 18.5303C4.86032 18.671 5.05109 18.75 5.25 18.75H8.25C8.44891 18.75 8.63968 18.671 8.78033 18.5303C8.92098 18.3897 9 18.1989 9 18C9 17.8011 8.92098 17.6103 8.78033 17.4697C8.63968 17.329 8.44891 17.25 8.25 17.25ZM27.09 21.525C27.0408 21.4393 26.9751 21.3642 26.8968 21.3038C26.8185 21.2435 26.7291 21.1992 26.6337 21.1734C26.5383 21.1477 26.4388 21.141 26.3407 21.1537C26.2427 21.1664 26.1482 21.1983 26.0625 21.2475C25.9768 21.2967 25.9017 21.3624 25.8413 21.4407C25.781 21.519 25.7367 21.6084 25.7109 21.7038C25.6852 21.7992 25.6785 21.8987 25.6912 21.9968C25.7039 22.0948 25.7358 22.1893 25.785 22.275L29.0925 27.9975L17.0925 32.4975H16.98L15.03 33.6225L13.7325 34.3725C13.5617 34.4713 13.3731 34.5353 13.1774 34.5611C12.9818 34.5868 12.783 34.5737 12.5925 34.5225C12.2097 34.4191 11.8834 34.1683 11.685 33.825L10.185 31.23C10.0085 30.8905 9.96848 30.4964 10.073 30.1283C10.1776 29.7602 10.4189 29.446 10.7475 29.25L13.3425 27.75L15.2175 30.9975C15.2836 31.112 15.3787 31.2069 15.4933 31.2728C15.6079 31.3386 15.7378 31.373 15.87 31.3725C16.0019 31.373 16.1316 31.3388 16.246 31.2731C16.3605 31.2075 16.4556 31.1129 16.5218 30.9988C16.5879 30.8847 16.6229 30.7552 16.623 30.6232C16.6231 30.4913 16.5885 30.3617 16.5225 30.2475L14.5875 26.9025L24 19.14L24.3075 19.6725C24.3567 19.7582 24.4224 19.8333 24.5007 19.8937C24.579 19.954 24.6684 19.9983 24.7638 20.0241C24.8592 20.0498 24.9587 20.0565 25.0568 20.0438C25.1548 20.0311 25.2493 19.9992 25.335 19.95C25.4207 19.9008 25.4958 19.8351 25.5562 19.7568C25.6165 19.6785 25.6608 19.5891 25.6866 19.4937C25.7123 19.3983 25.719 19.2988 25.7063 19.2007C25.6936 19.1027 25.6617 19.0082 25.6125 18.9225L24.8625 17.625C24.8075 17.531 24.7328 17.4502 24.6434 17.388C24.554 17.3258 24.4522 17.2839 24.345 17.265C24.2372 17.2447 24.1263 17.2483 24.02 17.2755C23.9138 17.3027 23.8148 17.3529 23.73 17.4225L13.23 26.0775L10.035 27.9225C9.46163 28.2565 9.01516 28.7711 8.76546 29.3859C8.51576 30.0006 8.47691 30.6808 8.655 31.32L7.905 31.7475C7.51857 31.9694 7.20673 32.3011 7.00903 32.7004C6.81133 33.0998 6.73666 33.5489 6.7945 33.9907C6.85235 34.4326 7.04009 34.8473 7.33393 35.1823C7.62777 35.5173 8.01447 35.7575 8.445 35.8725C8.63586 35.9231 8.83255 35.9483 9.03 35.9475C9.42455 35.9459 9.81202 35.8425 10.155 35.6475L10.905 35.22C11.2653 35.5922 11.7184 35.8615 12.2175 36C12.4738 36.0717 12.7389 36.107 13.005 36.105C13.5322 36.1062 14.0501 35.9664 14.505 35.7L15.1575 35.325L16.6575 37.9275C16.9556 38.4429 17.4458 38.8191 18.0208 38.9738C18.5958 39.1284 19.2086 39.0488 19.725 38.7525C19.9812 38.6049 20.2058 38.4082 20.3859 38.1737C20.5661 37.9393 20.6982 37.6716 20.7749 37.386C20.8515 37.1004 20.8711 36.8025 20.8325 36.5094C20.7939 36.2162 20.6979 35.9335 20.55 35.6775L19.185 33.3L30.435 29.0775C30.537 29.0392 30.6295 28.979 30.7059 28.9013C30.7823 28.8236 30.8409 28.7302 30.8775 28.6275C30.914 28.5261 30.9282 28.4179 30.9191 28.3105C30.9101 28.2031 30.878 28.0989 30.825 28.005L27.09 21.525ZM9.375 34.3425C9.28959 34.3919 9.19528 34.4239 9.09747 34.4368C8.99966 34.4497 8.90027 34.4431 8.805 34.4175C8.61285 34.3676 8.44833 34.2435 8.3475 34.0725C8.29813 33.9871 8.26608 33.8928 8.25322 33.795C8.24035 33.6972 8.2469 33.5978 8.2725 33.5025C8.2981 33.4067 8.34244 33.317 8.40295 33.2385C8.46345 33.1599 8.53892 33.0942 8.625 33.045L9.2775 32.67L10.0275 33.9675L9.375 34.3425ZM19.245 36.4425C19.2944 36.5279 19.3264 36.6222 19.3393 36.72C19.3522 36.8178 19.3456 36.9172 19.32 37.0125C19.2665 37.2031 19.1398 37.3649 18.9675 37.4625C18.7962 37.5609 18.593 37.5878 18.402 37.5372C18.211 37.4866 18.0477 37.3628 17.9475 37.1925L16.4475 34.59L17.6925 33.8775H17.7525L19.245 36.4425Z" fill="#39519D"/>
</g>
</g>
</g>
</g>
</svg>
