<svg width="48" height="48" viewBox="0 0 48 48" fill="none" xmlns="http://www.w3.org/2000/svg">
<g id="Frame" clip-path="url(#clip0_286_41984)">
<g id="Group">
<path id="Vector" d="M16.9688 38.0625H31.0312V46.5938H16.9688V38.0625Z" fill="#D8DBF0"/>
<path id="Vector_2" d="M24 38.0625H31.0312V46.5938H24V38.0625Z" fill="#B8B8D9"/>
<path id="Vector_3" d="M48 7.125V38.0625C48 38.8499 47.3813 39.4688 46.5938 39.4688H1.40625C0.618656 39.4688 0 38.8499 0 38.0625V7.125C0 6.33741 0.618656 5.71875 1.40625 5.71875H46.5938C47.3813 5.71875 48 6.33741 48 7.125Z" fill="#664D99"/>
<path id="Vector_4" d="M48 7.125V38.0625C48 38.8499 47.3813 39.4688 46.5938 39.4688H24V5.71875H46.5938C47.3813 5.71875 48 6.33741 48 7.125Z" fill="#4D4573"/>
<path id="Vector_5" d="M2.8125 8.53125H45.1875V36.6562H2.8125V8.53125Z" fill="#FFE666"/>
<path id="Vector_6" d="M36.6562 46.5938C36.6562 47.3812 36.0376 48 35.25 48H12.75C11.9624 48 11.3438 47.3812 11.3438 46.5938C11.3438 45.8062 11.9624 45.1875 12.75 45.1875H35.25C36.0376 45.1875 36.6562 45.8062 36.6562 46.5938Z" fill="#F3F5F9"/>
<path id="Vector_7" d="M36.6562 46.5938C36.6562 47.3812 36.0376 48 35.25 48H24V45.1875H35.25C36.0376 45.1875 36.6562 45.8062 36.6562 46.5938Z" fill="#D8DBF0"/>
<path id="Vector_8" d="M24 8.53125H45.1875V36.6562H24V8.53125Z" fill="#FFC44D"/>
<path id="Vector_9" d="M42.375 11.3438V32.4375C42.375 33.2249 41.7563 33.8438 40.9688 33.8438H7.03125C6.24366 33.8438 5.625 33.2249 5.625 32.4375V11.3438L8.4375 8.53125H39.5625L42.375 11.3438Z" fill="#F3F5F9"/>
<path id="Vector_10" d="M42.375 11.3438V32.4375C42.375 33.2249 41.7563 33.8438 40.9688 33.8438H24V8.53125H39.5625L42.375 11.3438Z" fill="#D8DBF0"/>
<path id="Vector_11" d="M21.1875 19.7812H12.75C11.9727 19.7812 11.3438 19.1523 11.3438 18.375C11.3438 17.5977 11.9727 16.9688 12.75 16.9688H21.1875C21.9648 16.9688 22.5938 17.5977 22.5938 18.375C22.5938 19.1523 21.9648 19.7812 21.1875 19.7812ZM21.1875 25.4062H12.75C11.9727 25.4062 11.3438 24.7773 11.3438 24C11.3438 23.2227 11.9727 22.5938 12.75 22.5938H21.1875C21.9648 22.5938 22.5938 23.2227 22.5938 24C22.5938 24.7773 21.9648 25.4062 21.1875 25.4062Z" fill="#B8B8D9"/>
<path id="Vector_12" d="M34.2557 27.8067L31.4432 24.9942C30.8939 24.445 30.8939 23.555 31.4432 23.0057C31.9925 22.4564 32.8825 22.4564 33.4317 23.0057L36.2442 25.8182C36.7935 26.3675 36.7935 27.2575 36.2442 27.8067C35.6949 28.3561 34.805 28.3561 34.2557 27.8067Z" fill="#4D4573"/>
<path id="Vector_13" d="M29.301 28.1817C28.8286 28.0691 28.4441 27.7203 28.2903 27.2575L25.4778 18.82C25.3956 18.5721 25.384 18.3063 25.4441 18.0521C25.5043 17.798 25.6338 17.5655 25.8184 17.3808C26.1974 17.0073 26.755 16.8712 27.2577 17.0416L35.6952 19.8541C36.1566 20.0079 36.5082 20.3897 36.618 20.8648C36.6737 21.0979 36.6686 21.3415 36.6032 21.572C36.5378 21.8026 36.4143 22.0126 36.2445 22.1818L30.6195 27.8068C30.2802 28.146 29.7866 28.2938 29.301 28.1817Z" fill="#4D4573"/>
<path id="Vector_14" d="M42.375 1.40625V11.3438H5.625V1.40625C5.625 0.618656 6.24366 0 7.03125 0H40.9688C41.7563 0 42.375 0.618656 42.375 1.40625Z" fill="#FF66E5"/>
<path id="Vector_15" d="M42.375 1.40625V11.3438H24V0H40.9688C41.7563 0 42.375 0.618656 42.375 1.40625Z" fill="#E645B1"/>
<g id="Group_2">
<path id="Vector_16" d="M12.75 7.125C13.5267 7.125 14.1562 6.4954 14.1562 5.71875C14.1562 4.9421 13.5267 4.3125 12.75 4.3125C11.9733 4.3125 11.3438 4.9421 11.3438 5.71875C11.3438 6.4954 11.9733 7.125 12.75 7.125Z" fill="#F3F5F9"/>
<path id="Vector_17" d="M18.375 7.125C19.1517 7.125 19.7812 6.4954 19.7812 5.71875C19.7812 4.9421 19.1517 4.3125 18.375 4.3125C17.5983 4.3125 16.9688 4.9421 16.9688 5.71875C16.9688 6.4954 17.5983 7.125 18.375 7.125Z" fill="#F3F5F9"/>
<path id="Vector_18" d="M24 7.125C24.7767 7.125 25.4062 6.4954 25.4062 5.71875C25.4062 4.9421 24.7767 4.3125 24 4.3125C23.2233 4.3125 22.5938 4.9421 22.5938 5.71875C22.5938 6.4954 23.2233 7.125 24 7.125Z" fill="#F3F5F9"/>
</g>
<path id="Vector_19" d="M25.4062 5.71875C25.4062 6.50616 24.7876 7.125 24 7.125V4.3125C24.7876 4.3125 25.4062 4.93116 25.4062 5.71875Z" fill="#D8DBF0"/>
</g>
</g>
<defs>
<clipPath id="clip0_286_41984">
<rect width="48" height="48" fill="white"/>
</clipPath>
</defs>
</svg>
