<svg width="48" height="48" viewBox="0 0 48 48" fill="none" xmlns="http://www.w3.org/2000/svg">
<g id="Frame">
<g id="Group">
<path id="Vector" d="M44.25 35.25H3.75V15.75C3.75 14.0932 5.09316 12.75 6.75 12.75H41.25C42.9068 12.75 44.25 14.0932 44.25 15.75V35.25Z" fill="#463C4B"/>
<path id="Vector_2" d="M41.25 35.25H3.75V15.75C3.75 14.0932 5.09316 12.75 6.75 12.75H38.25C39.9068 12.75 41.25 14.0932 41.25 15.75V35.25Z" fill="#555A6E"/>
<path id="Vector_3" d="M6.75 39H41.25C42.9068 39 44.25 37.6568 44.25 36V35.25H3.75V36C3.75 37.6568 5.09316 39 6.75 39Z" fill="#A5C3DC"/>
<path id="Vector_4" d="M38.25 39H6.75C5.09316 39 3.75 37.6568 3.75 36V35.25H41.25V36C41.25 37.6568 39.9068 39 38.25 39Z" fill="#D7E6F0"/>
<path id="Vector_5" d="M19.5 39H26.25V42H19.5V39Z" fill="#A5C3DC"/>
<path id="Vector_6" d="M19.5 40.5H24V42H19.5V40.5ZM30 44.25H15V43.5C15 42.6715 15.6715 42 16.5 42H28.5C29.3285 42 30 42.6715 30 43.5V44.25Z" fill="#D7E6F0"/>
<path id="Vector_7" d="M30 44.25H25.5V43.5C25.5 42.6715 26.1715 42 27 42H28.5C29.3285 42 30 42.6715 30 43.5V44.25Z" fill="#A5C3DC"/>
<path id="Vector_8" d="M8.25 6.75V29.25C8.25 30.0785 8.92162 30.75 9.75 30.75H35.25C36.0784 30.75 36.75 30.0785 36.75 29.25V6.75H8.25Z" fill="#5AD7FF"/>
<path id="Vector_9" d="M36.75 6.75H8.25V5.25C8.25 4.42153 8.92153 3.75 9.75 3.75H35.25C36.0785 3.75 36.75 4.42153 36.75 5.25V6.75Z" fill="#555A6E"/>
<path id="Vector_10" d="M11.25 6C11.6642 6 12 5.66421 12 5.25C12 4.83579 11.6642 4.5 11.25 4.5C10.8358 4.5 10.5 4.83579 10.5 5.25C10.5 5.66421 10.8358 6 11.25 6Z" fill="#2387C3"/>
<path id="Vector_11" d="M14.25 6C14.6642 6 15 5.66421 15 5.25C15 4.83579 14.6642 4.5 14.25 4.5C13.8358 4.5 13.5 4.83579 13.5 5.25C13.5 5.66421 13.8358 6 14.25 6Z" fill="#FFCD05"/>
<path id="Vector_12" d="M17.25 6C17.6642 6 18 5.66421 18 5.25C18 4.83579 17.6642 4.5 17.25 4.5C16.8358 4.5 16.5 4.83579 16.5 5.25C16.5 5.66421 16.8358 6 17.25 6Z" fill="#D7E6F0"/>
<path id="Vector_13" d="M17.25 23.25C17.1515 23.2501 17.0539 23.2308 16.9629 23.1931C16.8719 23.1554 16.7892 23.1001 16.7196 23.0303L12.9696 19.2803C12.829 19.1397 12.75 18.9489 12.75 18.75C12.75 18.5511 12.829 18.3604 12.9696 18.2197L16.7196 14.4697C16.7893 14.4001 16.872 14.3448 16.963 14.3071C17.0539 14.2694 17.1515 14.25 17.25 14.25C17.3485 14.25 17.446 14.2694 17.537 14.3071C17.628 14.3448 17.7107 14.4001 17.7803 14.4697C17.921 14.6104 18 14.8011 18 15C18 15.1989 17.921 15.3897 17.7803 15.5303L14.5606 18.75L17.7803 21.9697C17.921 22.1103 18 22.3011 18 22.4999C18 22.6988 17.921 22.8896 17.7803 23.0302C17.7108 23.1 17.6281 23.1554 17.5371 23.1931C17.4461 23.2308 17.3485 23.2501 17.25 23.25ZM27.75 23.25C27.6017 23.25 27.4567 23.206 27.3334 23.1236C27.21 23.0412 27.1139 22.9241 27.0571 22.787C27.0004 22.65 26.9855 22.4992 27.0144 22.3537C27.0434 22.2083 27.1148 22.0746 27.2196 21.9697L30.4394 18.75L27.2196 15.5303C27.079 15.3897 27 15.1989 27 15C27 14.8011 27.079 14.6104 27.2196 14.4697C27.2893 14.4001 27.372 14.3448 27.463 14.3071C27.5539 14.2694 27.6515 14.25 27.75 14.25C27.8485 14.25 27.946 14.2694 28.037 14.3071C28.128 14.3448 28.2107 14.4001 28.2803 14.4697L32.0303 18.2197C32.171 18.3604 32.25 18.5511 32.25 18.75C32.25 18.9489 32.171 19.1397 32.0303 19.2803L28.2803 23.0303C28.2108 23.1001 28.1281 23.1554 28.0371 23.1931C27.9461 23.2308 27.8485 23.2501 27.75 23.25ZM20.9997 23.2502C20.8771 23.2502 20.7564 23.2201 20.6482 23.1626C20.5399 23.1051 20.4474 23.022 20.3787 22.9205C20.31 22.819 20.2673 22.7022 20.2542 22.5803C20.2411 22.4585 20.2581 22.3353 20.3036 22.2215L23.3036 14.7215C23.4574 14.337 23.8939 14.1497 24.2784 14.3036C24.3699 14.3402 24.4532 14.3944 24.5237 14.4632C24.5942 14.532 24.6505 14.614 24.6893 14.7045C24.7281 14.7951 24.7486 14.8923 24.7498 14.9908C24.751 15.0893 24.7328 15.1871 24.6963 15.2785L21.6963 22.7785C21.6406 22.9178 21.5445 23.0371 21.4203 23.1212C21.2962 23.2053 21.1496 23.2502 20.9997 23.2502Z" fill="#555A6E"/>
</g>
</g>
</svg>
