<svg width="48" height="48" viewBox="0 0 48 48" fill="none" xmlns="http://www.w3.org/2000/svg">
<g id="Frame" clip-path="url(#clip0_283_41762)">
<g id="Group">
<path id="Vector" d="M0.459033 30.2606C2.09478 46.4673 27.8731 45.9302 39.9093 43.0355C47.6409 41.176 48.1214 37.46 47.9818 29.5354C47.8918 24.4273 48.3045 10.9049 44.9814 6.64883C39.8769 0.111361 35.3037 4.21152 28.9824 6.34555C20.8741 9.08277 17.7147 4.19567 10.0003 4.34117C-1.30984 4.55474 -0.385186 21.8961 0.459033 30.2606Z" fill="url(#paint0_linear_283_41762)"/>
<path id="Vector_2" d="M42.7004 39.9989H5.2998C4.52318 39.9989 3.89355 39.3693 3.89355 38.5927V9.13013C3.89355 8.3535 4.52318 7.72388 5.2998 7.72388H42.7004C43.4771 7.72388 44.1067 8.3535 44.1067 9.13013V38.5926C44.1067 39.3693 43.4771 39.9989 42.7004 39.9989Z" fill="white"/>
<path id="Vector_3" d="M16.4645 39.9989H6.14746C6.02314 39.9989 5.90391 39.9495 5.816 39.8616C5.7281 39.7737 5.67871 39.6544 5.67871 39.5301V32.8054C5.67871 32.6811 5.7281 32.5619 5.816 32.474C5.90391 32.3861 6.02314 32.3367 6.14746 32.3367H16.4645C16.5888 32.3367 16.708 32.3861 16.7959 32.474C16.8838 32.5619 16.9332 32.6811 16.9332 32.8054V39.5301C16.9332 39.6544 16.8838 39.7737 16.7959 39.8616C16.708 39.9495 16.5888 39.9989 16.4645 39.9989Z" fill="#01ECA5"/>
<path id="Vector_4" d="M7.68787 37.7724L9.13706 36.3232L10.6023 37.7883C10.6458 37.8318 10.6975 37.8664 10.7543 37.8899C10.8112 37.9135 10.8721 37.9256 10.9337 37.9256C11.3512 37.9256 11.5604 37.4207 11.2651 37.1254L11.0376 36.8979L12.6897 35.2453L15.2106 37.7662C15.2542 37.8097 15.3058 37.8442 15.3627 37.8678C15.4196 37.8913 15.4805 37.9035 15.5421 37.9034C15.9596 37.9034 16.1688 37.3986 15.8735 37.1033L13.021 34.2509C12.9775 34.2073 12.9258 34.1728 12.869 34.1492C12.8121 34.1257 12.7511 34.1135 12.6896 34.1135C12.628 34.1135 12.5671 34.1257 12.5102 34.1492C12.4533 34.1728 12.4016 34.2073 12.3581 34.2509L10.3746 36.2349L9.46837 35.3287C9.38045 35.2408 9.26124 35.1915 9.13694 35.1915C9.01265 35.1915 8.89345 35.2409 8.80556 35.3288L7.02496 37.1094C6.72965 37.4047 6.93881 37.9095 7.35637 37.9095C7.41793 37.9096 7.47889 37.8975 7.53577 37.874C7.59266 37.8504 7.64434 37.8159 7.68787 37.7724Z" fill="white"/>
<path id="Vector_5" d="M29.1588 39.9989H18.8418C18.7175 39.9989 18.5982 39.9495 18.5103 39.8616C18.4224 39.7737 18.373 39.6544 18.373 39.5301V32.8054C18.373 32.6811 18.4224 32.5619 18.5103 32.474C18.5982 32.3861 18.7175 32.3367 18.8418 32.3367H29.1588C29.2831 32.3367 29.4023 32.3861 29.4903 32.474C29.5782 32.5619 29.6275 32.6811 29.6275 32.8054V39.5301C29.6275 39.6544 29.5782 39.7737 29.4903 39.8616C29.4023 39.9495 29.2831 39.9989 29.1588 39.9989Z" fill="#FF7EB8"/>
<path id="Vector_6" d="M20.382 37.7723L21.8312 36.3231L23.2964 37.7882C23.3399 37.8318 23.3916 37.8663 23.4485 37.8898C23.5053 37.9134 23.5663 37.9255 23.6278 37.9255C24.0454 37.9255 24.2545 37.4206 23.9592 37.1253L23.7317 36.8978L25.3839 35.2452L27.9049 37.7661C27.9484 37.8096 28.0001 37.8441 28.0569 37.8677C28.1138 37.8912 28.1748 37.9034 28.2363 37.9034C28.6539 37.9034 28.863 37.3985 28.5677 37.1032L25.7154 34.2509C25.6718 34.2073 25.6202 34.1728 25.5633 34.1492C25.5064 34.1257 25.4455 34.1135 25.3839 34.1135C25.3223 34.1135 25.2614 34.1257 25.2045 34.1492C25.1476 34.1728 25.096 34.2073 25.0525 34.2509L23.0689 36.2349L22.1627 35.3287C22.0748 35.2408 21.9556 35.1915 21.8313 35.1915C21.707 35.1915 21.5878 35.2409 21.4999 35.3288L19.7193 37.1094C19.424 37.4047 19.6331 37.9095 20.0507 37.9095C20.1122 37.9095 20.1732 37.8974 20.23 37.8739C20.2869 37.8503 20.3385 37.8158 20.382 37.7723Z" fill="white"/>
<path id="Vector_7" d="M41.8523 39.9989H31.5352C31.4108 39.9989 31.2916 39.9495 31.2037 39.8616C31.1158 39.7737 31.0664 39.6544 31.0664 39.5301V32.8054C31.0664 32.6811 31.1158 32.5619 31.2037 32.474C31.2916 32.3861 31.4108 32.3367 31.5352 32.3367H41.8522C41.9765 32.3367 42.0957 32.3861 42.1836 32.474C42.2715 32.5619 42.3209 32.6811 42.3209 32.8054V39.5301C42.3209 39.5917 42.3088 39.6526 42.2853 39.7095C42.2617 39.7664 42.2272 39.818 42.1837 39.8616C42.1402 39.9051 42.0885 39.9396 42.0316 39.9632C41.9748 39.9867 41.9138 39.9989 41.8523 39.9989Z" fill="#FFA8CF"/>
<path id="Vector_8" d="M33.0765 37.7724L34.5257 36.3232L35.9909 37.7883C36.0345 37.8318 36.0861 37.8664 36.143 37.8899C36.1999 37.9135 36.2608 37.9256 36.3224 37.9256C36.7399 37.9256 36.9491 37.4207 36.6538 37.1254L36.4262 36.8979L38.0784 35.2453L40.5993 37.7662C40.6428 37.8097 40.6945 37.8442 40.7514 37.8678C40.8082 37.8913 40.8692 37.9035 40.9307 37.9034C41.3483 37.9034 41.5574 37.3986 41.2621 37.1033L38.4097 34.2509C38.3662 34.2073 38.3145 34.1728 38.2576 34.1492C38.2008 34.1257 38.1398 34.1135 38.0782 34.1135C38.0167 34.1135 37.9557 34.1257 37.8989 34.1492C37.842 34.1728 37.7903 34.2073 37.7468 34.2509L35.7632 36.2349L34.857 35.3287C34.7691 35.2408 34.6499 35.1915 34.5256 35.1915C34.4013 35.1915 34.2821 35.2409 34.1942 35.3288L32.4136 37.1094C32.1183 37.4047 32.3275 37.9095 32.745 37.9095C32.8066 37.9096 32.8676 37.8975 32.9244 37.874C32.9813 37.8504 33.033 37.8159 33.0765 37.7724Z" fill="white"/>
<path id="Vector_9" d="M11.3676 16.062H6.89759C6.77327 16.062 6.65404 16.1114 6.56613 16.1993C6.47822 16.2872 6.42884 16.4064 6.42884 16.5308C6.42884 16.6551 6.47822 16.7743 6.56613 16.8622C6.65404 16.9501 6.77327 16.9995 6.89759 16.9995H11.3677C11.492 16.9995 11.6112 16.9501 11.6991 16.8622C11.787 16.7743 11.8364 16.655 11.8364 16.5307C11.8364 16.4064 11.787 16.2872 11.6991 16.1993C11.6111 16.1114 11.4919 16.062 11.3676 16.062ZM3.89355 18.6442H44.1067V26.5632H3.89355V18.6442Z" fill="#9FB0FE"/>
<path id="Vector_10" d="M44.1071 18.644V26.5631H25.2549C25.4152 20.6812 36.8293 18.644 36.8293 18.644H44.1071Z" fill="#B7C5FF"/>
<path id="Vector_11" d="M15.1417 26.5631H3.89355V18.644H6.83824C7.02762 19.8787 7.85074 21.389 10.6961 21.5962C14.6842 21.8859 16.2573 24.554 15.1417 26.5631ZM44.1067 18.644V26.5631H35.8595C34.7701 24.2203 37.1064 21.4528 32.5651 21.5962C28.4467 21.7265 26.2417 19.9012 25.2179 18.644H44.1067Z" fill="#8399FE"/>
<path id="Vector_12" d="M44.1067 14.222V9.13013C44.1067 8.3535 43.4771 7.72388 42.7004 7.72388H5.2998C4.52318 7.72388 3.89355 8.3535 3.89355 9.13013V14.222H44.1067Z" fill="#6583FE"/>
<path id="Vector_13" d="M8.02685 12.2053C8.59127 12.2053 9.04882 11.7478 9.04882 11.1833C9.04882 10.6189 8.59127 10.1614 8.02685 10.1614C7.46243 10.1614 7.00488 10.6189 7.00488 11.1833C7.00488 11.7478 7.46243 12.2053 8.02685 12.2053Z" fill="#FF5BA8"/>
<path id="Vector_14" d="M11.2895 12.2053C11.854 12.2053 12.3115 11.7478 12.3115 11.1833C12.3115 10.6189 11.854 10.1614 11.2895 10.1614C10.7251 10.1614 10.2676 10.6189 10.2676 11.1833C10.2676 11.7478 10.7251 12.2053 11.2895 12.2053Z" fill="white"/>
<path id="Vector_15" d="M14.5522 12.2053C15.1167 12.2053 15.5742 11.7478 15.5742 11.1833C15.5742 10.6189 15.1167 10.1614 14.5522 10.1614C13.9878 10.1614 13.5303 10.6189 13.5303 11.1833C13.5303 11.7478 13.9878 12.2053 14.5522 12.2053Z" fill="#02FFB3"/>
<path id="Vector_16" d="M40.5256 12.3314H27.7607V10.0349H40.5256C40.6499 10.0349 40.7691 10.0843 40.857 10.1722C40.9449 10.2601 40.9943 10.3793 40.9943 10.5037V11.8627C40.9943 11.987 40.9449 12.1062 40.857 12.1941C40.7691 12.282 40.6499 12.3314 40.5256 12.3314Z" fill="#D2DEFF"/>
<path id="Vector_17" d="M27.8244 10.0643C27.3289 9.56874 26.5225 9.56874 26.0269 10.0643C25.5314 10.5599 25.5314 11.3662 26.0269 11.8618C26.4054 12.2402 26.9647 12.3286 27.4288 12.1291L27.8364 12.5368C27.9249 12.6217 28.0432 12.6686 28.1659 12.6673C28.2886 12.6661 28.4059 12.6168 28.4926 12.5301C28.5794 12.4433 28.6286 12.326 28.6299 12.2033C28.6312 12.0807 28.5843 11.9624 28.4993 11.8739L28.0917 11.4662C28.2913 11.0021 28.2029 10.4428 27.8244 10.0643ZM26.6899 10.7272C26.8199 10.5972 27.0315 10.5972 27.1615 10.7272C27.2915 10.8572 27.2915 11.0688 27.1615 11.1989C27.0315 11.3289 26.8199 11.3289 26.6899 11.1989C26.6274 11.1363 26.5923 11.0515 26.5923 10.963C26.5923 10.8746 26.6274 10.7898 26.6899 10.7272Z" fill="white"/>
<path id="Vector_18" d="M33.5973 17.7801H14.4033C14.279 17.7801 14.1598 17.7307 14.0719 17.6428C13.984 17.5549 13.9346 17.4356 13.9346 17.3113V15.75C13.9346 15.6257 13.984 15.5065 14.0719 15.4185C14.1598 15.3306 14.279 15.2812 14.4033 15.2812H33.5973C33.7216 15.2812 33.8409 15.3306 33.9288 15.4185C34.0167 15.5065 34.0661 15.6257 34.0661 15.75V17.3113C34.0661 17.4356 34.0167 17.5549 33.9288 17.6428C33.8409 17.7307 33.7216 17.7801 33.5973 17.7801Z" fill="#D2DEFF"/>
<path id="Vector_19" d="M33.5973 15.2812H31.0654V17.7801H33.5973C33.7217 17.7801 33.8409 17.7307 33.9288 17.6428C34.0167 17.5549 34.0661 17.4356 34.0661 17.3113V15.75C34.0661 15.6257 34.0167 15.5065 33.9288 15.4185C33.8409 15.3306 33.7217 15.2812 33.5973 15.2812Z" fill="#8399FE"/>
<g id="Group_2">
<path id="Vector_20" d="M41.8059 17.4985H36.3379C36.2136 17.4985 36.0943 17.4491 36.0064 17.3612C35.9185 17.2733 35.8691 17.1541 35.8691 17.0297V16.0315C35.8691 15.9072 35.9185 15.7879 36.0064 15.7C36.0943 15.6121 36.2136 15.5627 36.3379 15.5627H41.8059C41.9302 15.5627 42.0494 15.6121 42.1373 15.7C42.2252 15.7879 42.2746 15.9072 42.2746 16.0315V17.0297C42.2746 17.1541 42.2252 17.2733 42.1373 17.3612C42.0494 17.4491 41.9302 17.4985 41.8059 17.4985Z" fill="#D2DEFF"/>
<path id="Vector_21" d="M31.065 25.1823C31.5465 25.1823 31.9367 24.7921 31.9367 24.3107C31.9367 23.8292 31.5465 23.439 31.065 23.439C30.5836 23.439 30.1934 23.8292 30.1934 24.3107C30.1934 24.7921 30.5836 25.1823 31.065 25.1823Z" fill="#D2DEFF"/>
<path id="Vector_22" d="M17.711 26.5631H7.02441C7.22223 25.9181 11.8359 20.8521 15.5739 20.9243C19.8728 21.0076 15.746 24.975 17.711 26.5631Z" fill="#D2DEFF"/>
</g>
<path id="Vector_23" d="M17.8646 28.8005H15.6445C15.5202 28.8005 15.401 28.8499 15.3131 28.9378C15.2252 29.0257 15.1758 29.145 15.1758 29.2693C15.1758 29.3936 15.2252 29.5128 15.3131 29.6007C15.401 29.6887 15.5202 29.738 15.6445 29.738H17.8646C17.9889 29.738 18.1082 29.6887 18.1961 29.6007C18.284 29.5128 18.3334 29.3936 18.3334 29.2693C18.3334 29.145 18.284 29.0257 18.1961 28.9378C18.1082 28.8499 17.9889 28.8005 17.8646 28.8005Z" fill="#6583FE"/>
<path id="Vector_24" d="M22.6947 28.8005H20.4746C20.3503 28.8005 20.2311 28.8499 20.1432 28.9378C20.0552 29.0257 20.0059 29.145 20.0059 29.2693C20.0059 29.3936 20.0552 29.5128 20.1432 29.6007C20.2311 29.6887 20.3503 29.738 20.4746 29.738H22.6947C22.819 29.738 22.9383 29.6887 23.0262 29.6007C23.1141 29.5128 23.1635 29.3936 23.1635 29.2693C23.1635 29.145 23.1141 29.0257 23.0262 28.9378C22.9383 28.8499 22.819 28.8005 22.6947 28.8005ZM27.525 28.8005H25.3049C25.1806 28.8005 25.0613 28.8499 24.9734 28.9378C24.8855 29.0257 24.8361 29.145 24.8361 29.2693C24.8361 29.3936 24.8855 29.5128 24.9734 29.6007C25.0613 29.6887 25.1806 29.738 25.3049 29.738H27.525C27.6493 29.738 27.7685 29.6887 27.8564 29.6007C27.9443 29.5128 27.9937 29.3936 27.9937 29.2693C27.9937 29.145 27.9443 29.0257 27.8564 28.9378C27.7685 28.8499 27.6493 28.8005 27.525 28.8005ZM32.3553 28.8005H30.1352C30.0109 28.8005 29.8916 28.8499 29.8037 28.9378C29.7158 29.0257 29.6664 29.145 29.6664 29.2693C29.6664 29.3936 29.7158 29.5128 29.8037 29.6007C29.8916 29.6887 30.0109 29.738 30.1352 29.738H32.3553C32.4796 29.738 32.5988 29.6887 32.6867 29.6007C32.7746 29.5128 32.824 29.3936 32.824 29.2693C32.824 29.145 32.7746 29.0257 32.6867 28.9378C32.5988 28.8499 32.4796 28.8005 32.3553 28.8005Z" fill="#9FB0FE"/>
<path id="Vector_25" d="M26.8098 24.7148H21.1904C21.0661 24.7148 20.9469 24.6654 20.859 24.5775C20.7711 24.4896 20.7217 24.3704 20.7217 24.2461V23.4766C20.7217 23.3522 20.7711 23.233 20.859 23.1451C20.9469 23.0572 21.0661 23.0078 21.1904 23.0078H26.8099C26.9342 23.0078 27.0534 23.0572 27.1414 23.1451C27.2293 23.233 27.2786 23.3522 27.2786 23.4766V24.2461C27.2786 24.3076 27.2665 24.3686 27.243 24.4255C27.2194 24.4823 27.1849 24.534 27.1413 24.5776C27.0978 24.6211 27.0461 24.6556 26.9892 24.6792C26.9323 24.7027 26.8714 24.7148 26.8098 24.7148Z" fill="#02FFB3"/>
<path id="Vector_26" d="M16.7549 44.9282C16.0161 44.9282 15.415 44.3272 15.415 43.5883C15.415 42.8496 16.0161 42.2485 16.7549 42.2485C17.4937 42.2485 18.0947 42.8496 18.0947 43.5883C18.0947 44.3272 17.4937 44.9282 16.7549 44.9282ZM16.7549 43.186C16.5331 43.186 16.3525 43.3665 16.3525 43.5883C16.3525 43.8101 16.5331 43.9907 16.7549 43.9907C16.9767 43.9907 17.1572 43.8101 17.1572 43.5883C17.1572 43.3665 16.9767 43.186 16.7549 43.186Z" fill="#FF5BA8"/>
<path id="Vector_27" d="M41.4003 45.799C40.6616 45.799 40.0605 45.198 40.0605 44.4593C40.0605 43.7204 40.6616 43.1194 41.4003 43.1194C42.1391 43.1194 42.7401 43.7204 42.7401 44.4593C42.7401 45.198 42.1391 45.799 41.4003 45.799ZM41.4003 44.0569C41.1785 44.0569 40.998 44.2374 40.998 44.4593C40.998 44.6811 41.1785 44.8615 41.4003 44.8615C41.6221 44.8615 41.8026 44.6811 41.8026 44.4593C41.8026 44.2374 41.6222 44.0569 41.4003 44.0569Z" fill="#6583FE"/>
<path id="Vector_28" d="M21.9171 5.63452C21.7928 5.63452 21.6735 5.58514 21.5856 5.49723C21.4977 5.40932 21.4483 5.29009 21.4483 5.16577C21.4483 4.85555 21.196 4.60327 20.8857 4.60327C20.6268 4.60327 20.417 4.39346 20.417 4.13452C20.417 3.87558 20.6268 3.66577 20.8857 3.66577C21.0349 3.66562 21.1779 3.60631 21.2834 3.50086C21.3888 3.39541 21.4482 3.25242 21.4483 3.10327C21.4483 2.84433 21.6581 2.63452 21.9171 2.63452C22.176 2.63452 22.3858 2.84433 22.3858 3.10327C22.3858 3.41349 22.6381 3.66577 22.9482 3.66577C23.2072 3.66577 23.417 3.87558 23.417 4.13452C23.417 4.39346 23.2072 4.60327 22.9482 4.60327C22.7991 4.60345 22.6562 4.66277 22.5507 4.76822C22.4453 4.87368 22.386 5.01665 22.3858 5.16577C22.3858 5.29009 22.3364 5.40932 22.2485 5.49723C22.1606 5.58514 22.0414 5.63452 21.9171 5.63452Z" fill="#01ECA5"/>
<path id="Vector_29" d="M26.415 4.88037C26.2907 4.88037 26.1715 4.83098 26.0836 4.74308C25.9957 4.65517 25.9463 4.53594 25.9463 4.41162C25.9463 4.1014 25.694 3.84912 25.3838 3.84912C25.1249 3.84912 24.915 3.63931 24.915 3.38037C24.915 3.12143 25.1249 2.91162 25.3838 2.91162C25.694 2.91162 25.9463 2.65934 25.9463 2.34912C25.9463 2.09018 26.1561 1.88037 26.415 1.88037C26.674 1.88037 26.8838 2.09018 26.8838 2.34912C26.8838 2.65934 27.1361 2.91162 27.4463 2.91162C27.7052 2.91162 27.915 3.12143 27.915 3.38037C27.915 3.63931 27.7052 3.84912 27.4463 3.84912C27.1361 3.84912 26.8838 4.1014 26.8838 4.41162C26.8838 4.53594 26.8344 4.65517 26.7465 4.74308C26.6586 4.83098 26.5394 4.88037 26.415 4.88037Z" fill="#6583FE"/>
<path id="Vector_30" d="M11.29 46.1194C11.1657 46.1194 11.0465 46.07 10.9586 45.9821C10.8707 45.8942 10.8213 45.775 10.8213 45.6506C10.8213 45.3404 10.569 45.0881 10.2588 45.0881C9.99985 45.0881 9.79004 44.8783 9.79004 44.6194C9.79004 44.3604 9.99985 44.1506 10.2588 44.1506C10.569 44.1506 10.8213 43.8984 10.8213 43.5881C10.8213 43.3292 11.0311 43.1194 11.29 43.1194C11.549 43.1194 11.7588 43.3292 11.7588 43.5881C11.7588 43.8984 12.0111 44.1506 12.3213 44.1506C12.5802 44.1506 12.79 44.3604 12.79 44.6194C12.79 44.8783 12.5802 45.0881 12.3213 45.0881C12.0111 45.0881 11.7588 45.3404 11.7588 45.6506C11.7588 45.775 11.7094 45.8942 11.6215 45.9821C11.5336 46.07 11.4144 46.1194 11.29 46.1194Z" fill="#01ECA5"/>
<path id="Vector_31" d="M42.7004 39.9989H5.2998C4.52318 39.9989 3.89355 39.3693 3.89355 38.5927V9.13013C3.89355 8.3535 4.52318 7.72388 5.2998 7.72388H42.7004C43.4771 7.72388 44.1067 8.3535 44.1067 9.13013V38.5926C44.1067 39.3693 43.4771 39.9989 42.7004 39.9989Z" fill="url(#paint1_linear_283_41762)"/>
</g>
</g>
<defs>
<linearGradient id="paint0_linear_283_41762" x1="2.58566" y1="36.3704" x2="47.2999" y2="10.5546" gradientUnits="userSpaceOnUse">
<stop stop-color="#DCFDEE" stop-opacity="0"/>
<stop offset="0.629" stop-color="#D2F3E4"/>
</linearGradient>
<linearGradient id="paint1_linear_283_41762" x1="24.0001" y1="7.72388" x2="24.0001" y2="39.9989" gradientUnits="userSpaceOnUse">
<stop offset="0.003" stop-color="#FF7EB8" stop-opacity="0"/>
<stop offset="1" stop-color="#FF7EB8" stop-opacity="0.6"/>
</linearGradient>
<clipPath id="clip0_283_41762">
<rect width="48" height="48" fill="white"/>
</clipPath>
</defs>
</svg>
