<svg width="48" height="48" viewBox="0 0 48 48" fill="none" xmlns="http://www.w3.org/2000/svg">
<g id="Frame" clip-path="url(#clip0_280_41177)">
<g id="Group">
<path id="Vector" d="M1.90657 12.2188C-0.340336 15.9124 -0.577149 22.3076 1.06873 26.3053C2.51032 29.807 5.37804 33.0938 9.14248 33.5054C10.5268 33.6568 11.9417 33.4094 13.3117 33.659C18.0233 34.517 19.776 40.3237 23.4377 43.4103C25.986 45.5584 29.5219 46.3185 32.829 45.9047C36.1361 45.4909 39.2323 43.9957 41.958 42.0775C44.1102 40.5627 46.1239 38.7004 47.1859 36.2924C49.4119 31.245 46.793 25.183 42.7246 21.4575C41.4574 20.2972 40.0451 19.2737 38.9863 17.9206C37.9276 16.5674 37.2538 14.7617 37.7583 13.1193C38.1607 11.809 39.2441 10.7932 39.6545 9.48528C40.2131 7.70553 39.37 5.70894 37.9856 4.45878C36.6012 3.20862 34.7692 2.58012 32.9544 2.14878C25.351 0.341186 8.68976 1.06831 1.90657 12.2188Z" fill="url(#paint0_linear_280_41177)"/>
<path id="Vector_2" d="M32.8345 46.6089H15.166C13.6127 46.6089 12.3535 45.3497 12.3535 43.7964V8.10779C12.3535 6.55444 13.6127 5.29529 15.166 5.29529H32.8345C34.3879 5.29529 35.647 6.55444 35.647 8.10779V43.7964C35.647 45.3496 34.3879 46.6089 32.8345 46.6089Z" fill="#2626BC" fill-opacity="0.0627451"/>
<path id="Vector_3" d="M32.8345 44.3589H15.166C13.6127 44.3589 12.3535 43.0997 12.3535 41.5464V5.85779C12.3535 4.30444 13.6127 3.04529 15.166 3.04529H32.8345C34.3879 3.04529 35.647 4.30444 35.647 5.85779V41.5464C35.647 43.0996 34.3879 44.3589 32.8345 44.3589Z" fill="#6583FE"/>
<path id="Vector_4" d="M12.3535 7.06799H35.6466V40.3361H12.3535V7.06799Z" fill="white"/>
<path id="Vector_5" d="M32.8345 44.8276H15.166C13.3567 44.8276 11.8848 43.3556 11.8848 41.5464V5.85779C11.8848 4.04851 13.3567 2.57654 15.166 2.57654H32.8346C34.6439 2.57654 36.1159 4.04851 36.1159 5.85779V41.5464C36.1158 43.3556 34.6438 44.8276 32.8345 44.8276ZM15.166 3.51404C13.8737 3.51404 12.8223 4.56544 12.8223 5.85779V41.5464C12.8223 42.8387 13.8737 43.8901 15.166 43.8901H32.8346C34.127 43.8901 35.1784 42.8387 35.1784 41.5464V5.85779C35.1784 4.56544 34.127 3.51404 32.8346 3.51404H15.166Z" fill="#2626BC"/>
<path id="Vector_6" d="M25.6394 5.61121H22.3613C22.237 5.61121 22.1178 5.56182 22.0299 5.47391C21.942 5.386 21.8926 5.26678 21.8926 5.14246C21.8926 5.01814 21.942 4.89891 22.0299 4.811C22.1178 4.72309 22.237 4.67371 22.3613 4.67371H25.6394C25.7637 4.67371 25.8829 4.72309 25.9708 4.811C26.0588 4.89891 26.1081 5.01814 26.1081 5.14246C26.1081 5.26678 26.0588 5.386 25.9708 5.47391C25.8829 5.56182 25.7637 5.61121 25.6394 5.61121Z" fill="#B7C5FF"/>
<path id="Vector_7" d="M27.8264 5.61121C28.0853 5.61121 28.2953 5.40126 28.2953 5.14228C28.2953 4.88329 28.0853 4.67334 27.8264 4.67334C27.5674 4.67334 27.3574 4.88329 27.3574 5.14228C27.3574 5.40126 27.5674 5.61121 27.8264 5.61121Z" fill="#B7C5FF"/>
<path id="Vector_8" d="M32.9486 10.2424V18.2018C32.9486 18.7193 32.5286 19.1393 32.0111 19.1393H15.9893C15.4718 19.1393 15.0518 18.7193 15.0518 18.2018V10.2424C15.0518 9.72493 15.4718 9.30493 15.9893 9.30493H32.0111C32.5286 9.30493 32.9486 9.72493 32.9486 10.2424Z" fill="#9FB0FE"/>
<path id="Vector_9" d="M32.9485 12.0274V18.2018C32.9485 18.7193 32.5285 19.1393 32.011 19.1393H20.5847C20.5497 18.8412 20.5322 18.5413 20.5322 18.2411C20.5322 13.954 24.0075 10.4786 28.2957 10.4786C30.0404 10.4786 31.6519 11.0552 32.9485 12.0274Z" fill="#8399FE"/>
<path id="Vector_10" d="M32.9486 36.6152V40.3362H15.0518V36.6152C15.0518 36.0977 15.4718 35.6777 15.9893 35.6777H32.0111C32.5286 35.6777 32.9486 36.0977 32.9486 36.6152Z" fill="#02FFB3"/>
<path id="Vector_11" d="M22.4121 38.0074C22.4121 38.8455 22.2114 39.6368 21.8561 40.3362H15.0518V36.6152C15.0518 36.0977 15.4718 35.6777 15.9893 35.6777H21.8561C22.2225 36.3996 22.413 37.1979 22.4121 38.0074Z" fill="#97FFD2"/>
<path id="Vector_12" d="M22.9026 26.0189H15.5205C15.3962 26.0189 15.277 25.9695 15.1891 25.8816C15.1011 25.7937 15.0518 25.6744 15.0518 25.5501V21.8246C15.0518 21.7003 15.1011 21.581 15.1891 21.4931C15.277 21.4052 15.3962 21.3558 15.5205 21.3558H22.9026C23.0269 21.3558 23.1461 21.4052 23.234 21.4931C23.3219 21.581 23.3713 21.7003 23.3713 21.8246V25.5501C23.3713 25.6744 23.3219 25.7937 23.234 25.8816C23.1461 25.9695 23.0269 26.0189 22.9026 26.0189Z" fill="#FF7EB8"/>
<path id="Vector_13" d="M32.4797 26.0189H25.0977C24.9733 26.0189 24.8541 25.9695 24.7662 25.8816C24.6783 25.7937 24.6289 25.6744 24.6289 25.5501V21.8246C24.6289 21.7003 24.6783 21.581 24.7662 21.4931C24.8541 21.4052 24.9733 21.3558 25.0977 21.3558H32.4797C32.604 21.3558 32.7233 21.4052 32.8112 21.4931C32.8991 21.581 32.9485 21.7003 32.9485 21.8246V25.5501C32.9485 25.6744 32.8991 25.7937 32.8112 25.8816C32.7233 25.9695 32.604 26.0189 32.4797 26.0189Z" fill="#02FFB3"/>
<path id="Vector_14" d="M22.9026 31.7738H15.5205C15.3962 31.7738 15.277 31.7244 15.1891 31.6365C15.1011 31.5485 15.0518 31.4293 15.0518 31.305V27.5795C15.0518 27.4551 15.1011 27.3359 15.1891 27.248C15.277 27.1601 15.3962 27.1107 15.5205 27.1107H22.9026C23.0269 27.1107 23.1461 27.1601 23.234 27.248C23.3219 27.3359 23.3713 27.4551 23.3713 27.5795V31.305C23.3713 31.4293 23.3219 31.5485 23.234 31.6365C23.1461 31.7244 23.0269 31.7738 22.9026 31.7738Z" fill="#8399FE"/>
<path id="Vector_15" d="M32.4797 31.7738H25.0977C24.9733 31.7738 24.8541 31.7244 24.7662 31.6365C24.6783 31.5485 24.6289 31.4293 24.6289 31.305V27.5795C24.6289 27.4551 24.6783 27.3359 24.7662 27.248C24.8541 27.1601 24.9733 27.1107 25.0977 27.1107H32.4797C32.604 27.1107 32.7233 27.1601 32.8112 27.248C32.8991 27.3359 32.9485 27.4551 32.9485 27.5795V31.305C32.9485 31.4293 32.8991 31.5485 32.8112 31.6365C32.7233 31.7244 32.604 31.7738 32.4797 31.7738Z" fill="#FFC4DF"/>
<path id="Vector_16" d="M23.5941 14.8108H17.4365C17.3122 14.8108 17.193 14.8601 17.1051 14.948C17.0172 15.036 16.9678 15.1552 16.9678 15.2795C16.9678 15.4038 17.0172 15.5231 17.1051 15.611C17.193 15.6989 17.3122 15.7483 17.4365 15.7483H23.5941C23.7184 15.7483 23.8377 15.6989 23.9256 15.611C24.0135 15.5231 24.0629 15.4038 24.0629 15.2795C24.0629 15.1552 24.0135 15.036 23.9256 14.948C23.8377 14.8601 23.7184 14.8108 23.5941 14.8108ZM23.5941 12.9894H17.4365C17.3122 12.9894 17.193 13.0388 17.1051 13.1267C17.0172 13.2146 16.9678 13.3338 16.9678 13.4581C16.9678 13.5825 17.0172 13.7017 17.1051 13.7896C17.193 13.8775 17.3122 13.9269 17.4365 13.9269H23.5941C23.7184 13.9269 23.8377 13.8775 23.9256 13.7896C24.0135 13.7017 24.0629 13.5825 24.0629 13.4581C24.0629 13.3338 24.0135 13.2146 23.9256 13.1267C23.8377 13.0388 23.7184 12.9894 23.5941 12.9894Z" fill="white"/>
<path id="Vector_17" d="M18.5316 10.8008H17.4365C17.3122 10.8008 17.193 10.8502 17.1051 10.9381C17.0172 11.026 16.9678 11.1452 16.9678 11.2695C16.9678 11.3939 17.0172 11.5131 17.1051 11.601C17.193 11.6889 17.3122 11.7383 17.4365 11.7383H18.5316C18.6559 11.7383 18.7752 11.6889 18.8631 11.601C18.951 11.5131 19.0004 11.3939 19.0004 11.2695C19.0004 11.1452 18.951 11.026 18.8631 10.9381C18.7752 10.8502 18.6559 10.8008 18.5316 10.8008Z" fill="#FFC4DF"/>
<path id="Vector_18" d="M19.4281 33.7621H15.5205C15.3962 33.7621 15.277 33.8115 15.1891 33.8994C15.1011 33.9873 15.0518 34.1065 15.0518 34.2308C15.0518 34.3552 15.1011 34.4744 15.1891 34.5623C15.277 34.6502 15.3962 34.6996 15.5205 34.6996H19.4281C19.5524 34.6996 19.6717 34.6502 19.7596 34.5623C19.8475 34.4744 19.8969 34.3552 19.8969 34.2308C19.8969 34.1065 19.8475 33.9873 19.7596 33.8994C19.6717 33.8115 19.5524 33.7621 19.4281 33.7621Z" fill="#8399FE"/>
<path id="Vector_19" d="M32.948 36.6152V38.9205C31.1714 38.9205 29.7305 37.4805 29.7305 35.704V35.6777H32.0105C32.528 35.6777 32.948 36.0977 32.948 36.6152Z" fill="#01ECA5"/>
<path id="Vector_20" d="M39.5351 15.6956C38.7963 15.6956 38.1953 15.0946 38.1953 14.3557C38.1953 13.6169 38.7963 13.0159 39.5351 13.0159C40.2739 13.0159 40.875 13.6169 40.875 14.3557C40.875 15.0946 40.2739 15.6956 39.5351 15.6956ZM39.5351 13.9535C39.3133 13.9535 39.1328 14.1339 39.1328 14.3558C39.1328 14.5777 39.3133 14.7582 39.5351 14.7582C39.7569 14.7582 39.9375 14.5777 39.9375 14.3558C39.9375 14.1339 39.7569 13.9535 39.5351 13.9535Z" fill="#FF5BA8"/>
<path id="Vector_21" d="M40.4063 19.7054C39.6674 19.7054 39.0664 19.1044 39.0664 18.3655C39.0664 17.6267 39.6674 17.0256 40.4063 17.0256C41.145 17.0256 41.7461 17.6267 41.7461 18.3655C41.7461 19.1044 41.145 19.7054 40.4063 19.7054ZM40.4063 17.9632C40.1845 17.9632 40.0039 18.1437 40.0039 18.3656C40.0039 18.5875 40.1845 18.768 40.4063 18.768C40.6281 18.768 40.8086 18.5875 40.8086 18.3656C40.8086 18.1437 40.6281 17.9632 40.4063 17.9632Z" fill="#6583FE"/>
<path id="Vector_22" d="M7.78223 11.5582C7.65791 11.5582 7.53868 11.5088 7.45077 11.4209C7.36286 11.333 7.31348 11.2138 7.31348 11.0895C7.31348 10.7793 7.0612 10.527 6.75098 10.527C6.62666 10.527 6.50743 10.4776 6.41952 10.3897C6.33161 10.3018 6.28223 10.1825 6.28223 10.0582C6.28223 9.93391 6.33161 9.81468 6.41952 9.72677C6.50743 9.63886 6.62666 9.58948 6.75098 9.58948C7.0612 9.58948 7.31348 9.3372 7.31348 9.02698C7.31348 8.90266 7.36286 8.78343 7.45077 8.69552C7.53868 8.60761 7.65791 8.55823 7.78223 8.55823C7.90655 8.55823 8.02577 8.60761 8.11368 8.69552C8.20159 8.78343 8.25098 8.90266 8.25098 9.02698C8.25098 9.3372 8.50326 9.58948 8.81348 9.58948C8.9378 9.58948 9.05702 9.63886 9.14493 9.72677C9.23284 9.81468 9.28223 9.93391 9.28223 10.0582C9.28223 10.1825 9.23284 10.3018 9.14493 10.3897C9.05702 10.4776 8.9378 10.527 8.81348 10.527C8.50326 10.527 8.25098 10.7793 8.25098 11.0895C8.25098 11.2138 8.20159 11.333 8.11368 11.4209C8.02577 11.5088 7.90655 11.5582 7.78223 11.5582ZM8.22754 39.1426C8.10322 39.1426 7.98399 39.0932 7.89608 39.0053C7.80817 38.9174 7.75879 38.7981 7.75879 38.6738C7.75879 38.3636 7.50651 38.1113 7.19629 38.1113C7.07197 38.1113 6.95274 38.0619 6.86483 37.974C6.77692 37.8861 6.72754 37.7669 6.72754 37.6426C6.72754 37.5183 6.77692 37.399 6.86483 37.3111C6.95274 37.2232 7.07197 37.1738 7.19629 37.1738C7.50651 37.1738 7.75879 36.9215 7.75879 36.6113C7.75879 36.487 7.80817 36.3678 7.89608 36.2799C7.98399 36.192 8.10322 36.1426 8.22754 36.1426C8.35186 36.1426 8.47109 36.192 8.559 36.2799C8.6469 36.3678 8.69629 36.487 8.69629 36.6113C8.69629 36.9215 8.94857 37.1738 9.25879 37.1738C9.38311 37.1738 9.50234 37.2232 9.59025 37.3111C9.67815 37.399 9.72754 37.5183 9.72754 37.6426C9.72754 37.7669 9.67815 37.8861 9.59025 37.974C9.50234 38.0619 9.38311 38.1113 9.25879 38.1113C8.94857 38.1113 8.69629 38.3636 8.69629 38.6738C8.69629 38.7981 8.6469 38.9174 8.559 39.0053C8.47109 39.0932 8.35186 39.1426 8.22754 39.1426Z" fill="#01ECA5"/>
<path id="Vector_23" d="M6.75098 34.6467C6.62666 34.6467 6.50743 34.5973 6.41952 34.5094C6.33161 34.4215 6.28223 34.3023 6.28223 34.178C6.28223 33.8678 6.02995 33.6155 5.71973 33.6155C5.59541 33.6155 5.47618 33.5661 5.38827 33.4782C5.30036 33.3903 5.25098 33.271 5.25098 33.1467C5.25098 33.0224 5.30036 32.9032 5.38827 32.8153C5.47618 32.7274 5.59541 32.678 5.71973 32.678C6.02995 32.678 6.28223 32.4256 6.28223 32.1155C6.28223 31.9912 6.33161 31.8719 6.41952 31.784C6.50743 31.6961 6.62666 31.6467 6.75098 31.6467C6.8753 31.6467 6.99453 31.6961 7.08243 31.784C7.17034 31.8719 7.21973 31.9912 7.21973 32.1155C7.21973 32.4257 7.47201 32.678 7.78223 32.678C7.90655 32.678 8.02578 32.7274 8.11368 32.8153C8.20159 32.9032 8.25098 33.0224 8.25098 33.1467C8.25098 33.271 8.20159 33.3903 8.11368 33.4782C8.02578 33.5661 7.90655 33.6155 7.78223 33.6155C7.47201 33.6155 7.21973 33.8678 7.21973 34.178C7.21973 34.3023 7.17034 34.4215 7.08243 34.5094C6.99453 34.5973 6.8753 34.6467 6.75098 34.6467Z" fill="#FF5BA8"/>
</g>
</g>
<defs>
<linearGradient id="paint0_linear_280_41177" x1="-2.37154e-05" y1="23.7021" x2="48" y2="23.7021" gradientUnits="userSpaceOnUse">
<stop stop-color="#FFDBED" stop-opacity="0"/>
<stop offset="1" stop-color="#FFDBED"/>
</linearGradient>
<clipPath id="clip0_280_41177">
<rect width="48" height="48" fill="white"/>
</clipPath>
</defs>
</svg>
