<svg width="48" height="48" viewBox="0 0 48 48" fill="none" xmlns="http://www.w3.org/2000/svg">
<g id="Frame" clip-path="url(#clip0_283_41892)">
<g id="Group">
<path id="Vector" d="M27.449 3.17713C24.1496 1.26857 19.9305 2.40116 18.0255 5.70688L0.925349 35.3816C-0.979558 38.6873 0.15088 42.9143 3.45032 44.8228C6.74975 46.7314 10.9688 45.5988 12.8738 42.2931L29.9741 12.6184C31.879 9.31269 30.7484 5.08569 27.449 3.17713Z" fill="#FFC107"/>
<path id="Vector_2" d="M27.4494 3.17707C25.9082 2.2856 24.1665 2.05797 22.5535 2.40513C23.2559 2.55656 23.9302 2.81703 24.552 3.17707C27.8514 5.08563 28.982 9.31263 27.077 12.6183L9.97678 42.293C8.96166 44.0546 7.28934 45.1987 5.44922 45.5947C8.29866 46.2094 11.3384 44.9581 12.8741 42.293L29.9743 12.6183C31.8794 9.31263 30.7489 5.08563 27.4494 3.17707Z" fill="#FFB300"/>
<path id="Vector_3" d="M6.89119 45.7501C10.6971 45.7501 13.7824 42.659 13.7824 38.8459C13.7824 35.0328 10.6971 31.9417 6.89119 31.9417C3.08529 31.9417 0 35.0328 0 38.8459C0 42.659 3.08529 45.7501 6.89119 45.7501Z" fill="#4CAF50"/>
<path id="Vector_4" d="M5.44909 45.595L5.44824 45.5973C5.9226 45.6988 6.40633 45.75 6.89143 45.7501C10.6973 45.7501 13.7826 42.659 13.7826 38.8459C13.7833 38.0239 13.6372 37.2083 13.351 36.4377L9.97674 42.2933C8.96152 44.0548 7.28921 45.1989 5.44909 45.595Z" fill="#43A047"/>
<path id="Vector_5" d="M47.0746 35.3815L29.9744 5.70688C28.0695 2.40116 23.8505 1.26857 20.5509 3.17713C17.2515 5.08569 16.121 9.31269 18.026 12.6184L35.1263 42.2931C37.0312 45.5988 41.2502 46.7314 44.5497 44.8228C47.8491 42.9143 48.9796 38.6872 47.0746 35.3815Z" fill="#2196F3"/>
<path id="Vector_6" d="M47.0749 35.3815L29.9747 5.70687C28.4389 3.04183 25.3992 1.79046 22.5498 2.40518C24.3898 2.80118 26.0622 3.9453 27.0774 5.70687L44.1776 35.3815C46.0826 38.6873 44.9521 42.9143 41.6527 44.8228C41.0309 45.1829 40.3566 45.4433 39.6542 45.5948C41.2671 45.9419 43.0089 45.7143 44.5501 44.8228C47.8494 42.9143 48.9799 38.6872 47.0749 35.3815Z" fill="#1E88E5"/>
</g>
</g>
<defs>
<clipPath id="clip0_283_41892">
<rect width="48" height="48" fill="white"/>
</clipPath>
</defs>
</svg>
