<svg width="48" height="48" viewBox="0 0 48 48" fill="none" xmlns="http://www.w3.org/2000/svg">
<g id="Frame" clip-path="url(#clip0_280_41475)">
<g id="Group">
<path id="Vector" d="M0.459033 30.2607C2.09478 46.4674 27.8731 45.9303 39.9093 43.0356C47.6409 41.1761 48.1214 37.4601 47.9818 29.5355C47.8918 24.4274 48.3045 10.905 44.9814 6.64895C39.8769 0.111483 35.3037 4.21164 28.9824 6.34567C20.8741 9.08289 17.7147 4.1958 10.0003 4.3413C-1.30984 4.55486 -0.385186 21.8962 0.459033 30.2607Z" fill="url(#paint0_linear_280_41475)"/>
<path id="Vector_2" d="M42.7004 39.9989H5.2998C4.52318 39.9989 3.89355 39.3693 3.89355 38.5927V9.13013C3.89355 8.3535 4.52318 7.72388 5.2998 7.72388H42.7004C43.4771 7.72388 44.1067 8.3535 44.1067 9.13013V38.5926C44.1067 39.3693 43.4771 39.9989 42.7004 39.9989Z" fill="white"/>
<path id="Vector_3" d="M16.4645 39.999H6.14746C6.02314 39.999 5.90391 39.9496 5.816 39.8617C5.7281 39.7738 5.67871 39.6546 5.67871 39.5302V32.8055C5.67871 32.6812 5.7281 32.562 5.816 32.4741C5.90391 32.3862 6.02314 32.3368 6.14746 32.3368H16.4645C16.5888 32.3368 16.708 32.3862 16.7959 32.4741C16.8838 32.562 16.9332 32.6812 16.9332 32.8055V39.5302C16.9332 39.6546 16.8838 39.7738 16.7959 39.8617C16.708 39.9496 16.5888 39.999 16.4645 39.999Z" fill="#01ECA5"/>
<path id="Vector_4" d="M7.68787 37.7725L9.13706 36.3233L10.6023 37.7884C10.6458 37.832 10.6975 37.8665 10.7543 37.89C10.8112 37.9136 10.8721 37.9257 10.9337 37.9257C11.3512 37.9257 11.5604 37.4209 11.2651 37.1255L11.0376 36.898L12.6897 35.2454L15.2106 37.7663C15.2542 37.8098 15.3058 37.8444 15.3627 37.8679C15.4196 37.8915 15.4805 37.9036 15.5421 37.9036C15.9596 37.9036 16.1688 37.3987 15.8735 37.1034L13.021 34.251C12.9775 34.2074 12.9258 34.1729 12.869 34.1493C12.8121 34.1258 12.7511 34.1136 12.6896 34.1136C12.628 34.1136 12.5671 34.1258 12.5102 34.1493C12.4533 34.1729 12.4016 34.2074 12.3581 34.251L10.3746 36.235L9.46837 35.3288C9.38045 35.241 9.26124 35.1916 9.13694 35.1916C9.01265 35.1916 8.89345 35.241 8.80556 35.3289L7.02496 37.1095C6.72965 37.4048 6.93881 37.9097 7.35637 37.9097C7.41793 37.9097 7.47889 37.8976 7.53577 37.8741C7.59266 37.8506 7.64434 37.816 7.68787 37.7725Z" fill="white"/>
<path id="Vector_5" d="M29.1588 39.999H18.8418C18.7175 39.999 18.5982 39.9496 18.5103 39.8617C18.4224 39.7738 18.373 39.6546 18.373 39.5302V32.8055C18.373 32.6812 18.4224 32.562 18.5103 32.4741C18.5982 32.3862 18.7175 32.3368 18.8418 32.3368H29.1588C29.2831 32.3368 29.4023 32.3862 29.4903 32.4741C29.5782 32.562 29.6275 32.6812 29.6275 32.8055V39.5302C29.6275 39.6546 29.5782 39.7738 29.4903 39.8617C29.4023 39.9496 29.2831 39.999 29.1588 39.999Z" fill="#FF7EB8"/>
<path id="Vector_6" d="M20.382 37.7725L21.8312 36.3233L23.2964 37.7885C23.3399 37.832 23.3916 37.8665 23.4485 37.8901C23.5053 37.9136 23.5663 37.9257 23.6278 37.9257C24.0454 37.9257 24.2545 37.4209 23.9592 37.1256L23.7317 36.898L25.3839 35.2454L27.9049 37.7663C27.9484 37.8099 28.0001 37.8444 28.0569 37.8679C28.1138 37.8915 28.1748 37.9036 28.2363 37.9036C28.6539 37.9036 28.863 37.3988 28.5677 37.1034L25.7154 34.2511C25.6718 34.2076 25.6202 34.173 25.5633 34.1495C25.5064 34.1259 25.4455 34.1138 25.3839 34.1138C25.3223 34.1138 25.2614 34.1259 25.2045 34.1495C25.1476 34.173 25.096 34.2076 25.0525 34.2511L23.0689 36.2351L22.1627 35.3289C22.0748 35.2411 21.9556 35.1917 21.8313 35.1917C21.707 35.1918 21.5878 35.2411 21.4999 35.329L19.7193 37.1096C19.424 37.4049 19.6331 37.9098 20.0507 37.9098C20.1122 37.9098 20.1732 37.8977 20.23 37.8741C20.2869 37.8506 20.3385 37.8161 20.382 37.7725Z" fill="white"/>
<path id="Vector_7" d="M41.8523 39.999H31.5352C31.4108 39.999 31.2916 39.9496 31.2037 39.8617C31.1158 39.7738 31.0664 39.6546 31.0664 39.5302V32.8055C31.0664 32.6812 31.1158 32.562 31.2037 32.4741C31.2916 32.3862 31.4108 32.3368 31.5352 32.3368H41.8522C41.9765 32.3368 42.0957 32.3862 42.1836 32.4741C42.2715 32.562 42.3209 32.6812 42.3209 32.8055V39.5302C42.3209 39.5918 42.3088 39.6527 42.2853 39.7096C42.2617 39.7665 42.2272 39.8182 42.1837 39.8617C42.1402 39.9052 42.0885 39.9397 42.0316 39.9633C41.9748 39.9869 41.9138 39.999 41.8523 39.999Z" fill="#FFA8CF"/>
<path id="Vector_8" d="M33.0765 37.7725L34.5257 36.3233L35.9909 37.7884C36.0345 37.832 36.0861 37.8665 36.143 37.89C36.1999 37.9136 36.2608 37.9257 36.3224 37.9257C36.7399 37.9257 36.9491 37.4209 36.6538 37.1255L36.4262 36.898L38.0784 35.2454L40.5993 37.7663C40.6428 37.8098 40.6945 37.8444 40.7514 37.8679C40.8082 37.8915 40.8692 37.9036 40.9307 37.9036C41.3483 37.9036 41.5574 37.3987 41.2621 37.1034L38.4097 34.251C38.3662 34.2074 38.3145 34.1729 38.2576 34.1493C38.2008 34.1258 38.1398 34.1136 38.0782 34.1136C38.0167 34.1136 37.9557 34.1258 37.8989 34.1493C37.842 34.1729 37.7903 34.2074 37.7468 34.251L35.7632 36.235L34.857 35.3288C34.7691 35.241 34.6499 35.1916 34.5256 35.1916C34.4013 35.1916 34.2821 35.241 34.1942 35.3289L32.4136 37.1095C32.1183 37.4048 32.3275 37.9097 32.745 37.9097C32.8066 37.9097 32.8676 37.8976 32.9244 37.8741C32.9813 37.8506 33.033 37.816 33.0765 37.7725Z" fill="white"/>
<path id="Vector_9" d="M11.3676 16.062H6.89759C6.77327 16.062 6.65404 16.1114 6.56613 16.1993C6.47822 16.2872 6.42884 16.4064 6.42884 16.5308C6.42884 16.6551 6.47822 16.7743 6.56613 16.8622C6.65404 16.9501 6.77327 16.9995 6.89759 16.9995H11.3677C11.492 16.9995 11.6112 16.9501 11.6991 16.8622C11.787 16.7743 11.8364 16.655 11.8364 16.5307C11.8364 16.4064 11.787 16.2872 11.6991 16.1993C11.6111 16.1114 11.4919 16.062 11.3676 16.062ZM3.89355 18.6442H44.1067V26.5632H3.89355V18.6442Z" fill="#9FB0FE"/>
<path id="Vector_10" d="M44.1071 18.6442V26.5632H25.2549C25.4152 20.6814 36.8293 18.6442 36.8293 18.6442H44.1071Z" fill="#B7C5FF"/>
<path id="Vector_11" d="M15.1417 26.5632H3.89355V18.6442H6.83824C7.02762 19.8789 7.85074 21.3892 10.6961 21.5964C14.6842 21.886 16.2573 24.5542 15.1417 26.5632ZM44.1067 18.6442V26.5632H35.8595C34.7701 24.2204 37.1064 21.4529 32.5651 21.5964C28.4467 21.7267 26.2417 19.9014 25.2179 18.6442H44.1067Z" fill="#8399FE"/>
<path id="Vector_12" d="M44.1067 14.222V9.13013C44.1067 8.3535 43.4771 7.72388 42.7004 7.72388H5.2998C4.52318 7.72388 3.89355 8.3535 3.89355 9.13013V14.222H44.1067Z" fill="#6583FE"/>
<path id="Vector_13" d="M8.02685 12.2053C8.59127 12.2053 9.04882 11.7478 9.04882 11.1833C9.04882 10.6189 8.59127 10.1614 8.02685 10.1614C7.46243 10.1614 7.00488 10.6189 7.00488 11.1833C7.00488 11.7478 7.46243 12.2053 8.02685 12.2053Z" fill="#FF5BA8"/>
<path id="Vector_14" d="M11.2895 12.2053C11.854 12.2053 12.3115 11.7478 12.3115 11.1833C12.3115 10.6189 11.854 10.1614 11.2895 10.1614C10.7251 10.1614 10.2676 10.6189 10.2676 11.1833C10.2676 11.7478 10.7251 12.2053 11.2895 12.2053Z" fill="white"/>
<path id="Vector_15" d="M14.5522 12.2053C15.1167 12.2053 15.5742 11.7478 15.5742 11.1833C15.5742 10.6189 15.1167 10.1614 14.5522 10.1614C13.9878 10.1614 13.5303 10.6189 13.5303 11.1833C13.5303 11.7478 13.9878 12.2053 14.5522 12.2053Z" fill="#02FFB3"/>
<path id="Vector_16" d="M40.5256 12.3317H27.7607V10.0352H40.5256C40.6499 10.0352 40.7691 10.0845 40.857 10.1724C40.9449 10.2604 40.9943 10.3796 40.9943 10.5039V11.8629C40.9943 11.9872 40.9449 12.1065 40.857 12.1944C40.7691 12.2823 40.6499 12.3317 40.5256 12.3317Z" fill="#D2DEFF"/>
<path id="Vector_17" d="M27.8244 10.0644C27.3289 9.56886 26.5225 9.56886 26.0269 10.0644C25.5314 10.56 25.5314 11.3663 26.0269 11.8619C26.4054 12.2404 26.9647 12.3288 27.4288 12.1293L27.8364 12.5369C27.9249 12.6218 28.0432 12.6687 28.1659 12.6675C28.2886 12.6662 28.4059 12.6169 28.4926 12.5302C28.5794 12.4434 28.6286 12.3261 28.6299 12.2034C28.6312 12.0808 28.5843 11.9625 28.4993 11.874L28.0917 11.4664C28.2913 11.0022 28.2029 10.4429 27.8244 10.0644ZM26.6899 10.7273C26.8199 10.5973 27.0315 10.5973 27.1615 10.7273C27.2915 10.8574 27.2915 11.069 27.1615 11.199C27.0315 11.329 26.8199 11.329 26.6899 11.199C26.6274 11.1364 26.5923 11.0516 26.5923 10.9632C26.5923 10.8747 26.6274 10.7899 26.6899 10.7273Z" fill="white"/>
<path id="Vector_18" d="M33.5973 17.7802H14.4033C14.279 17.7802 14.1598 17.7308 14.0719 17.6429C13.984 17.555 13.9346 17.4358 13.9346 17.3114V15.7501C13.9346 15.6258 13.984 15.5066 14.0719 15.4187C14.1598 15.3308 14.279 15.2814 14.4033 15.2814H33.5973C33.7216 15.2814 33.8409 15.3308 33.9288 15.4187C34.0167 15.5066 34.0661 15.6258 34.0661 15.7501V17.3114C34.0661 17.4358 34.0167 17.555 33.9288 17.6429C33.8409 17.7308 33.7216 17.7802 33.5973 17.7802Z" fill="#D2DEFF"/>
<path id="Vector_19" d="M33.5973 15.2814H31.0654V17.7802H33.5973C33.7217 17.7802 33.8409 17.7308 33.9288 17.6429C34.0167 17.555 34.0661 17.4358 34.0661 17.3114V15.7501C34.0661 15.6258 34.0167 15.5066 33.9288 15.4187C33.8409 15.3308 33.7217 15.2814 33.5973 15.2814Z" fill="#8399FE"/>
<g id="Group_2">
<path id="Vector_20" d="M41.8059 17.4987H36.3379C36.2136 17.4987 36.0943 17.4494 36.0064 17.3614C35.9185 17.2735 35.8691 17.1543 35.8691 17.03V16.0317C35.8691 15.9074 35.9185 15.7882 36.0064 15.7003C36.0943 15.6124 36.2136 15.563 36.3379 15.563H41.8059C41.9302 15.563 42.0494 15.6124 42.1373 15.7003C42.2252 15.7882 42.2746 15.9074 42.2746 16.0317V17.03C42.2746 17.1543 42.2252 17.2735 42.1373 17.3614C42.0494 17.4494 41.9302 17.4987 41.8059 17.4987Z" fill="#D2DEFF"/>
<path id="Vector_21" d="M31.065 25.1825C31.5465 25.1825 31.9367 24.7922 31.9367 24.3108C31.9367 23.8294 31.5465 23.4391 31.065 23.4391C30.5836 23.4391 30.1934 23.8294 30.1934 24.3108C30.1934 24.7922 30.5836 25.1825 31.065 25.1825Z" fill="#D2DEFF"/>
<path id="Vector_22" d="M17.711 26.5634H7.02441C7.22223 25.9184 11.8359 20.8523 15.5739 20.9246C19.8728 21.0078 15.746 24.9753 17.711 26.5634Z" fill="#D2DEFF"/>
</g>
<path id="Vector_23" d="M17.8646 28.8007H15.6445C15.5202 28.8007 15.401 28.85 15.3131 28.938C15.2252 29.0259 15.1758 29.1451 15.1758 29.2694C15.1758 29.3937 15.2252 29.513 15.3131 29.6009C15.401 29.6888 15.5202 29.7382 15.6445 29.7382H17.8646C17.9889 29.7382 18.1082 29.6888 18.1961 29.6009C18.284 29.513 18.3334 29.3937 18.3334 29.2694C18.3334 29.1451 18.284 29.0259 18.1961 28.938C18.1082 28.85 17.9889 28.8007 17.8646 28.8007Z" fill="#6583FE"/>
<path id="Vector_24" d="M22.6947 28.8007H20.4746C20.3503 28.8007 20.2311 28.85 20.1432 28.938C20.0552 29.0259 20.0059 29.1451 20.0059 29.2694C20.0059 29.3937 20.0552 29.513 20.1432 29.6009C20.2311 29.6888 20.3503 29.7382 20.4746 29.7382H22.6947C22.819 29.7382 22.9383 29.6888 23.0262 29.6009C23.1141 29.513 23.1635 29.3937 23.1635 29.2694C23.1635 29.1451 23.1141 29.0259 23.0262 28.938C22.9383 28.85 22.819 28.8007 22.6947 28.8007ZM27.525 28.8007H25.3049C25.1806 28.8007 25.0613 28.85 24.9734 28.938C24.8855 29.0259 24.8361 29.1451 24.8361 29.2694C24.8361 29.3937 24.8855 29.513 24.9734 29.6009C25.0613 29.6888 25.1806 29.7382 25.3049 29.7382H27.525C27.6493 29.7382 27.7685 29.6888 27.8564 29.6009C27.9443 29.513 27.9937 29.3937 27.9937 29.2694C27.9937 29.1451 27.9443 29.0259 27.8564 28.938C27.7685 28.85 27.6493 28.8007 27.525 28.8007ZM32.3553 28.8007H30.1352C30.0109 28.8007 29.8916 28.85 29.8037 28.938C29.7158 29.0259 29.6664 29.1451 29.6664 29.2694C29.6664 29.3937 29.7158 29.513 29.8037 29.6009C29.8916 29.6888 30.0109 29.7382 30.1352 29.7382H32.3553C32.4796 29.7382 32.5988 29.6888 32.6867 29.6009C32.7746 29.513 32.824 29.3937 32.824 29.2694C32.824 29.1451 32.7746 29.0259 32.6867 28.938C32.5988 28.85 32.4796 28.8007 32.3553 28.8007Z" fill="#9FB0FE"/>
<path id="Vector_25" d="M26.8098 24.7149H21.1904C21.0661 24.7149 20.9469 24.6655 20.859 24.5776C20.7711 24.4897 20.7217 24.3705 20.7217 24.2462V23.4767C20.7217 23.3524 20.7711 23.2331 20.859 23.1452C20.9469 23.0573 21.0661 23.0079 21.1904 23.0079H26.8099C26.9342 23.0079 27.0534 23.0573 27.1414 23.1452C27.2293 23.2331 27.2786 23.3524 27.2786 23.4767V24.2462C27.2786 24.3077 27.2665 24.3687 27.243 24.4256C27.2194 24.4825 27.1849 24.5341 27.1413 24.5777C27.0978 24.6212 27.0461 24.6557 26.9892 24.6793C26.9323 24.7028 26.8714 24.7149 26.8098 24.7149Z" fill="#02FFB3"/>
<path id="Vector_26" d="M16.7549 44.9282C16.0161 44.9282 15.415 44.3272 15.415 43.5883C15.415 42.8496 16.0161 42.2485 16.7549 42.2485C17.4937 42.2485 18.0947 42.8496 18.0947 43.5883C18.0947 44.3272 17.4937 44.9282 16.7549 44.9282ZM16.7549 43.186C16.5331 43.186 16.3525 43.3665 16.3525 43.5883C16.3525 43.8101 16.5331 43.9907 16.7549 43.9907C16.9767 43.9907 17.1572 43.8101 17.1572 43.5883C17.1572 43.3665 16.9767 43.186 16.7549 43.186Z" fill="#FF5BA8"/>
<path id="Vector_27" d="M41.4003 45.7993C40.6616 45.7993 40.0605 45.1983 40.0605 44.4595C40.0605 43.7207 40.6616 43.1196 41.4003 43.1196C42.1391 43.1196 42.7401 43.7207 42.7401 44.4595C42.7401 45.1983 42.1391 45.7993 41.4003 45.7993ZM41.4003 44.0571C41.1785 44.0571 40.998 44.2377 40.998 44.4595C40.998 44.6813 41.1785 44.8618 41.4003 44.8618C41.6221 44.8618 41.8026 44.6813 41.8026 44.4595C41.8026 44.2377 41.6222 44.0571 41.4003 44.0571Z" fill="#6583FE"/>
<path id="Vector_28" d="M21.9171 5.63452C21.7928 5.63452 21.6735 5.58514 21.5856 5.49723C21.4977 5.40932 21.4483 5.29009 21.4483 5.16577C21.4483 4.85555 21.196 4.60327 20.8857 4.60327C20.6268 4.60327 20.417 4.39346 20.417 4.13452C20.417 3.87558 20.6268 3.66577 20.8857 3.66577C21.0349 3.66562 21.1779 3.60631 21.2834 3.50086C21.3888 3.39541 21.4482 3.25242 21.4483 3.10327C21.4483 2.84433 21.6581 2.63452 21.9171 2.63452C22.176 2.63452 22.3858 2.84433 22.3858 3.10327C22.3858 3.41349 22.6381 3.66577 22.9482 3.66577C23.2072 3.66577 23.417 3.87558 23.417 4.13452C23.417 4.39346 23.2072 4.60327 22.9482 4.60327C22.7991 4.60345 22.6562 4.66277 22.5507 4.76822C22.4453 4.87368 22.386 5.01665 22.3858 5.16577C22.3858 5.29009 22.3364 5.40932 22.2485 5.49723C22.1606 5.58514 22.0414 5.63452 21.9171 5.63452Z" fill="#01ECA5"/>
<path id="Vector_29" d="M26.415 4.88049C26.2907 4.88049 26.1715 4.83111 26.0836 4.7432C25.9957 4.65529 25.9463 4.53606 25.9463 4.41174C25.9463 4.10152 25.694 3.84924 25.3838 3.84924C25.1249 3.84924 24.915 3.63943 24.915 3.38049C24.915 3.12156 25.1249 2.91174 25.3838 2.91174C25.694 2.91174 25.9463 2.65946 25.9463 2.34924C25.9463 2.09031 26.1561 1.88049 26.415 1.88049C26.674 1.88049 26.8838 2.09031 26.8838 2.34924C26.8838 2.65946 27.1361 2.91174 27.4463 2.91174C27.7052 2.91174 27.915 3.12156 27.915 3.38049C27.915 3.63943 27.7052 3.84924 27.4463 3.84924C27.1361 3.84924 26.8838 4.10152 26.8838 4.41174C26.8838 4.53606 26.8344 4.65529 26.7465 4.7432C26.6586 4.83111 26.5394 4.88049 26.415 4.88049Z" fill="#6583FE"/>
<path id="Vector_30" d="M11.29 46.1196C11.1657 46.1196 11.0465 46.0702 10.9586 45.9823C10.8707 45.8944 10.8213 45.7752 10.8213 45.6509C10.8213 45.3407 10.569 45.0884 10.2588 45.0884C9.99985 45.0884 9.79004 44.8786 9.79004 44.6196C9.79004 44.3607 9.99985 44.1509 10.2588 44.1509C10.569 44.1509 10.8213 43.8986 10.8213 43.5884C10.8213 43.3294 11.0311 43.1196 11.29 43.1196C11.549 43.1196 11.7588 43.3294 11.7588 43.5884C11.7588 43.8986 12.0111 44.1509 12.3213 44.1509C12.5802 44.1509 12.79 44.3607 12.79 44.6196C12.79 44.8786 12.5802 45.0884 12.3213 45.0884C12.0111 45.0884 11.7588 45.3407 11.7588 45.6509C11.7588 45.7752 11.7094 45.8944 11.6215 45.9823C11.5336 46.0702 11.4144 46.1196 11.29 46.1196Z" fill="#01ECA5"/>
<path id="Vector_31" d="M42.7004 39.9989H5.2998C4.52318 39.9989 3.89355 39.3693 3.89355 38.5927V9.13013C3.89355 8.3535 4.52318 7.72388 5.2998 7.72388H42.7004C43.4771 7.72388 44.1067 8.3535 44.1067 9.13013V38.5926C44.1067 39.3693 43.4771 39.9989 42.7004 39.9989Z" fill="url(#paint1_linear_280_41475)"/>
</g>
</g>
<defs>
<linearGradient id="paint0_linear_280_41475" x1="2.58566" y1="36.3705" x2="47.2999" y2="10.5547" gradientUnits="userSpaceOnUse">
<stop stop-color="#DCFDEE" stop-opacity="0"/>
<stop offset="0.629" stop-color="#D2F3E4"/>
</linearGradient>
<linearGradient id="paint1_linear_280_41475" x1="24.0001" y1="7.72388" x2="24.0001" y2="39.9989" gradientUnits="userSpaceOnUse">
<stop offset="0.003" stop-color="#FF7EB8" stop-opacity="0"/>
<stop offset="1" stop-color="#FF7EB8" stop-opacity="0.6"/>
</linearGradient>
<clipPath id="clip0_280_41475">
<rect width="48" height="48" fill="white"/>
</clipPath>
</defs>
</svg>
