<svg width="48" height="48" viewBox="0 0 48 48" fill="none" xmlns="http://www.w3.org/2000/svg">
<g id="Frame" clip-path="url(#clip0_286_42090)">
<g id="Group">
<g id="Clip path group">
<mask id="mask0_286_42090" style="mask-type:luminance" maskUnits="userSpaceOnUse" x="0" y="0" width="48" height="48">
<g id="a">
<path id="Vector" d="M0 0.000141144H47.9999V48H0V0.000141144Z" fill="white"/>
</g>
</mask>
<g mask="url(#mask0_286_42090)">
<g id="Group_2">
<path id="Vector_2" d="M30.0225 32.2211V42.0151H17.9775V32.2211H21.675V35.462C21.675 36.7461 22.7159 37.787 24 37.787C25.284 37.787 26.325 36.7461 26.325 35.462V32.2211H30.0225Z" fill="#7A6E79"/>
<path id="Vector_3" d="M30.0227 42.0151H26.8877V32.2211H30.0227V42.0151Z" fill="#685E67"/>
<path id="Vector_4" d="M30.0225 32.221H26.325V35.3596H30.0225V32.221ZM21.675 32.221H17.9775V35.3596H21.675V32.221Z" fill="#685E67"/>
<path id="Vector_5" d="M45.4217 33.156H2.57812C1.54256 33.156 0.703125 32.3165 0.703125 31.281V6.13246C0.703125 5.09699 1.54256 4.25747 2.57812 4.25747H45.4217C46.4573 4.25747 47.2967 5.09699 47.2967 6.13246V31.281C47.2967 32.3165 46.4573 33.156 45.4217 33.156Z" fill="#F2EFF2"/>
<path id="Vector_6" d="M47.2972 6.1324V31.2808C47.2972 32.3167 46.4581 33.1558 45.4222 33.1558H41.8203C42.8562 33.1558 43.6953 32.3167 43.6953 31.2808V6.1324C43.6953 5.09741 42.8562 4.25741 41.8203 4.25741H45.4222C46.4581 4.25741 47.2972 5.09741 47.2972 6.1324Z" fill="#E1DDE1"/>
<path id="Vector_7" d="M47.2967 28.2433V31.2808C47.2967 32.3167 46.4577 33.1558 45.4217 33.1558H2.57812C1.54219 33.1558 0.703125 32.3167 0.703125 31.2808V28.2433H47.2967Z" fill="#918291"/>
<path id="Vector_8" d="M47.2972 28.2433V31.2808C47.2972 32.3167 46.4581 33.1558 45.4222 33.1558H41.8203C42.8562 33.1558 43.6953 32.3167 43.6953 31.2808V28.2433H47.2972Z" fill="#7A6E79"/>
<path id="Vector_9" d="M32.3508 43.7424H15.6484C15.1307 43.7424 14.7109 43.3227 14.7109 42.8049V41.5088C14.7109 40.9911 15.1307 40.5713 15.6484 40.5713H32.3508C32.8686 40.5713 33.2883 40.9911 33.2883 41.5088V42.8049C33.2883 43.3227 32.8686 43.7424 32.3508 43.7424Z" fill="#918291"/>
<path id="Vector_10" d="M33.2883 41.5089V42.8054C33.2883 43.3229 32.8683 43.7429 32.3508 43.7429H29.7783C30.2958 43.7429 30.7158 43.3229 30.7158 42.8054V41.5089C30.7158 40.9914 30.2958 40.5714 29.7783 40.5714H32.3508C32.8683 40.5714 33.2883 40.9914 33.2883 41.5089Z" fill="#7A6E79"/>
<path id="Vector_11" d="M19.1547 42.7322L17.9034 26.6607C17.8851 26.4253 17.7786 26.2056 17.6054 26.0453C17.4321 25.885 17.2047 25.7959 16.9687 25.7959H5.77C5.53394 25.7959 5.30655 25.8849 5.13326 26.0452C4.95998 26.2055 4.85354 26.4253 4.83522 26.6607L3.58395 42.7322C3.54148 43.277 3.97217 43.7424 4.51854 43.7424H18.2201C18.7665 43.7424 19.1971 43.277 19.1547 42.7322Z" fill="#FDE265"/>
<path id="Vector_12" d="M16.971 28.2439H12.1557C11.9385 28.2439 11.7292 28.3254 11.5692 28.4723C11.4091 28.6192 11.31 28.8208 11.2915 29.0372L10.1116 42.8009C10.0682 43.3073 10.4676 43.7424 10.9758 43.7424H16.971V28.2439Z" fill="#FDD330"/>
<path id="Vector_13" d="M18.2205 43.7429H15.3424C15.8889 43.7429 16.3193 43.277 16.2771 42.7323L15.0255 26.6608C14.988 26.1723 14.5802 25.7964 14.0908 25.7964H16.9689C17.4592 25.7964 17.8661 26.1723 17.9036 26.6608L19.1552 42.7323C19.1974 43.277 18.7671 43.7429 18.2205 43.7429Z" fill="#FDD330"/>
<path id="Vector_14" d="M13.4107 29.0372L12.2308 42.8009C12.1874 43.3073 12.5867 43.7424 13.095 43.7424H23.4799C23.9882 43.7424 24.3876 43.3073 24.3442 42.8009L23.1642 29.0372C23.1457 28.8208 23.0466 28.6192 22.8866 28.4723C22.7266 28.3254 22.5173 28.2439 22.3001 28.2439H14.2749C14.0577 28.2439 13.8484 28.3254 13.6883 28.4723C13.5283 28.6192 13.4293 28.8208 13.4107 29.0372Z" fill="#FB3A82"/>
<path id="Vector_15" d="M23.4794 43.7429H20.4531C20.9614 43.7429 21.3612 43.3075 21.3171 42.8009L20.1374 29.0372C20.1189 28.8208 20.0199 28.6192 19.8599 28.4722C19.6999 28.3253 19.4907 28.2437 19.2734 28.2436H22.2998C22.517 28.2437 22.7263 28.3253 22.8862 28.4722C23.0462 28.6192 23.1452 28.8208 23.1637 29.0372L24.3442 42.8009C24.3876 43.3075 23.9877 43.7429 23.4794 43.7429Z" fill="#FB1466"/>
<path id="Vector_16" d="M28.4334 16.8391H19.5225V9.14695C19.5225 8.62917 19.9422 8.20945 20.46 8.20945H27.4959C28.0136 8.20945 28.4334 8.62917 28.4334 9.14695V16.8391Z" fill="#9CE6FB"/>
<path id="Vector_17" d="M25.7578 9.1467C25.7578 8.6292 25.3378 8.20921 24.8203 8.20921H27.4957C28.0132 8.20921 28.4332 8.6292 28.4332 9.1467V16.8389H25.7578" fill="#68DBF9"/>
<path id="Vector_18" d="M27.4963 17.8374H20.46C19.9422 17.8374 19.5225 17.4177 19.5225 16.8999V15.3084C19.5225 14.7907 19.9422 14.3709 20.46 14.3709H27.4963C28.014 14.3709 28.4338 14.7907 28.4338 15.3084V16.8999C28.4338 17.4177 28.014 17.8374 27.4963 17.8374Z" fill="#21C1F8"/>
<path id="Vector_19" d="M28.4334 15.3083V16.9001C28.4334 17.4176 28.0144 17.8376 27.4959 17.8376H24.8203C25.3377 17.8376 25.7578 17.4176 25.7578 16.9001V15.3083C25.7578 14.7908 25.3377 14.3708 24.8203 14.3708H27.4959C28.0144 14.3708 28.4334 14.7908 28.4334 15.3083Z" fill="#1FAAEE"/>
<path id="Vector_20" d="M15.3054 16.8391H6.39453V9.14695C6.39453 8.62917 6.81425 8.20945 7.33203 8.20945H14.3679C14.8857 8.20945 15.3054 8.62917 15.3054 9.14695V16.8391Z" fill="#9CE6FB"/>
<path id="Vector_21" d="M15.3053 9.1467V16.8389H12.6299V9.1467C12.6299 8.6292 12.2099 8.20921 11.6924 8.20921H14.3678C14.8853 8.20921 15.3053 8.6292 15.3053 9.1467Z" fill="#68DBF9"/>
<path id="Vector_22" d="M14.3684 17.8374H7.33203C6.81425 17.8374 6.39453 17.4177 6.39453 16.8999V15.3084C6.39453 14.7907 6.81425 14.3709 7.33203 14.3709H14.3684C14.8862 14.3709 15.3059 14.7907 15.3059 15.3084V16.8999C15.3059 17.4177 14.8862 17.8374 14.3684 17.8374Z" fill="#21C1F8"/>
<path id="Vector_23" d="M15.3055 15.3083V16.9001C15.3055 17.4176 14.8864 17.8376 14.368 17.8376H11.6924C12.2099 17.8376 12.6299 17.4176 12.6299 16.9001V15.3083C12.6299 14.7908 12.2099 14.3708 11.6924 14.3708H14.368C14.8864 14.3708 15.3055 14.7908 15.3055 15.3083Z" fill="#1FAAEE"/>
<path id="Vector_24" d="M41.6052 16.8391H32.6943V9.14695C32.6943 8.62917 33.1141 8.20945 33.6318 8.20945H40.6678C41.1854 8.20945 41.6052 8.62917 41.6052 9.14695V16.8391Z" fill="#9CE6FB"/>
<path id="Vector_25" d="M41.6051 9.1467V16.8389H38.9297V9.1467C38.9297 8.6292 38.5096 8.20921 37.9922 8.20921H40.6676C41.1851 8.20921 41.6051 8.6292 41.6051 9.1467Z" fill="#68DBF9"/>
<path id="Vector_26" d="M40.6682 17.8374H33.6318C33.1141 17.8374 32.6943 17.4177 32.6943 16.8999V15.3084C32.6943 14.7907 33.1141 14.3709 33.6318 14.3709H40.6682C41.1859 14.3709 41.6057 14.7907 41.6057 15.3084V16.8999C41.6057 17.4177 41.1859 17.8374 40.6682 17.8374Z" fill="#21C1F8"/>
<path id="Vector_27" d="M41.6053 15.3083V16.9001C41.6053 17.4176 41.1861 17.8376 40.6678 17.8376H37.9922C38.5096 17.8376 38.9297 17.4176 38.9297 16.9001V15.3083C38.9297 14.7908 38.5096 14.3708 37.9922 14.3708H40.6678C41.1861 14.3708 41.6053 14.7908 41.6053 15.3083Z" fill="#1FAAEE"/>
</g>
</g>
</g>
</g>
</g>
<defs>
<clipPath id="clip0_286_42090">
<rect width="48" height="48" fill="white"/>
</clipPath>
</defs>
</svg>
