<svg width="24" height="24" viewBox="0 0 24 24" fill="none" xmlns="http://www.w3.org/2000/svg">
<g id="Layer_1" clip-path="url(#clip0_366_49668)">
<path id="Vector" d="M12 24C5.3736 24 0 18.6264 0 12C0 5.3736 5.3736 0 12 0C18.6264 0 24 5.3736 24 12C24 18.6264 18.6264 24 12 24Z" fill="url(#paint0_linear_366_49668)"/>
<g id="Group">
<path id="Vector_2" d="M12.0002 5.28508C14.1866 5.28508 14.4458 5.29228 15.3098 5.33308C16.109 5.36908 16.5434 5.50348 16.8314 5.61628C17.213 5.76508 17.4866 5.94268 17.7722 6.22828C18.0578 6.51388 18.2354 6.78748 18.3842 7.16908C18.497 7.45708 18.629 7.89148 18.6674 8.69068C18.7058 9.55468 18.7154 9.81388 18.7154 12.0003C18.7154 14.1867 18.7082 14.4459 18.6674 15.3099C18.6314 16.1091 18.497 16.5435 18.3842 16.8315C18.2354 17.2131 18.0578 17.4867 17.7722 17.7723C17.4866 18.0579 17.213 18.2355 16.8314 18.3843C16.5434 18.4971 16.109 18.6291 15.3098 18.6675C14.4458 18.7059 14.1866 18.7155 12.0002 18.7155C9.81384 18.7155 9.55464 18.7083 8.69064 18.6675C7.89144 18.6315 7.45704 18.4971 7.16904 18.3843C6.78744 18.2355 6.51384 18.0579 6.22824 17.7723C5.94264 17.4867 5.76504 17.2131 5.61624 16.8315C5.50344 16.5435 5.37144 16.1091 5.33304 15.3099C5.29464 14.4459 5.28504 14.1867 5.28504 12.0003C5.28504 9.81388 5.29224 9.55468 5.33304 8.69068C5.36904 7.89148 5.50344 7.45708 5.61624 7.16908C5.76504 6.78748 5.94264 6.51388 6.22824 6.22828C6.51384 5.94268 6.78744 5.76508 7.16904 5.61628C7.45704 5.50348 7.89144 5.37148 8.69064 5.33308C9.55464 5.29228 9.81384 5.28508 12.0002 5.28508ZM12.0002 3.80908C9.77544 3.80908 9.49704 3.81868 8.62344 3.85948C7.75224 3.90028 7.15704 4.03708 6.63384 4.24108C6.09624 4.44748 5.63784 4.72828 5.18424 5.18428C4.72824 5.64028 4.44984 6.09628 4.23864 6.63628C4.03704 7.15708 3.89784 7.75228 3.85704 8.62588C3.81624 9.49948 3.80664 9.77788 3.80664 12.0027C3.80664 14.2275 3.81624 14.5059 3.85704 15.3795C3.89784 16.2507 4.03464 16.8459 4.23864 17.3691C4.44744 17.9043 4.72824 18.3627 5.18424 18.8163C5.64024 19.2723 6.09624 19.5507 6.63624 19.7619C7.15704 19.9635 7.75224 20.1027 8.62584 20.1435C9.49944 20.1843 9.77784 20.1939 12.0026 20.1939C14.2274 20.1939 14.5058 20.1843 15.3794 20.1435C16.2506 20.1027 16.8458 19.9659 17.369 19.7619C17.9042 19.5531 18.3626 19.2723 18.8162 18.8163C19.2722 18.3603 19.5506 17.9043 19.7618 17.3643C19.9634 16.8435 20.1026 16.2483 20.1434 15.3747C20.1842 14.5011 20.1938 14.2227 20.1938 11.9979C20.1938 9.77308 20.1842 9.49468 20.1434 8.62108C20.1026 7.74988 19.9658 7.15468 19.7618 6.63148C19.553 6.09628 19.2722 5.63788 18.8162 5.18428C18.3602 4.72828 17.9042 4.44988 17.3642 4.23868C16.8434 4.03708 16.2482 3.89788 15.3746 3.85708C14.5034 3.81868 14.225 3.80908 12.0002 3.80908Z" fill="white"/>
<path id="Vector_3" d="M12.0002 7.79321C9.67697 7.79321 7.79297 9.67721 7.79297 12.0004C7.79297 14.3236 9.67697 16.2076 12.0002 16.2076C14.3234 16.2076 16.2074 14.3236 16.2074 12.0004C16.2074 9.67721 14.3234 7.79321 12.0002 7.79321ZM12.0002 14.7316C10.493 14.7316 9.26897 13.51 9.26897 12.0004C9.26897 10.4908 10.493 9.26921 12.0002 9.26921C13.5074 9.26921 14.7314 10.4908 14.7314 12.0004C14.7314 13.51 13.5074 14.7316 12.0002 14.7316Z" fill="white"/>
<path id="Vector_4" d="M16.3727 8.61155C16.9161 8.61155 17.3567 8.171 17.3567 7.62755C17.3567 7.08411 16.9161 6.64355 16.3727 6.64355C15.8292 6.64355 15.3887 7.08411 15.3887 7.62755C15.3887 8.171 15.8292 8.61155 16.3727 8.61155Z" fill="white"/>
</g>
</g>
<defs>
<linearGradient id="paint0_linear_366_49668" x1="3.51472" y1="20.4853" x2="20.4853" y2="3.51472" gradientUnits="userSpaceOnUse">
<stop stop-color="#FFD521"/>
<stop offset="0.0551048" stop-color="#FFD020"/>
<stop offset="0.1241" stop-color="#FEC01E"/>
<stop offset="0.2004" stop-color="#FCA71B"/>
<stop offset="0.2821" stop-color="#FA8316"/>
<stop offset="0.3681" stop-color="#F85510"/>
<stop offset="0.4563" stop-color="#F51E09"/>
<stop offset="0.5" stop-color="#F30005"/>
<stop offset="0.5035" stop-color="#F20007"/>
<stop offset="0.5966" stop-color="#E1003B"/>
<stop offset="0.6879" stop-color="#D30067"/>
<stop offset="0.7757" stop-color="#C70088"/>
<stop offset="0.8589" stop-color="#BF00A0"/>
<stop offset="0.9357" stop-color="#BB00AF"/>
<stop offset="1" stop-color="#B900B4"/>
</linearGradient>
<clipPath id="clip0_366_49668">
<rect width="24" height="24" fill="white"/>
</clipPath>
</defs>
</svg>
