<svg width="24" height="24" viewBox="0 0 24 24" fill="none" xmlns="http://www.w3.org/2000/svg">
<g id="Layer_1" clip-path="url(#clip0_366_49661)">
<g id="Group">
<path id="Vector" d="M12 24C5.3736 24 0 18.6264 0 12C0 5.3736 5.3736 0 12 0C18.6264 0 24 5.3736 24 12C24 18.6264 18.6264 24 12 24Z" fill="#0078B5"/>
<g id="Group_2">
<g id="Group_3">
<path id="Vector_2" d="M4.42237 9.29527H7.61197V19.5601H4.42237V9.29527ZM6.01837 4.19287C7.03837 4.19287 7.86637 5.02087 7.86637 6.04327C7.86637 7.06567 7.03837 7.89367 6.01837 7.89367C4.99597 7.89367 4.16797 7.06567 4.16797 6.04327C4.16557 5.02327 4.99357 4.19287 6.01837 4.19287Z" fill="white"/>
<path id="Vector_3" d="M9.61328 9.29537H12.6733V10.697H12.7165C13.1413 9.89057 14.1805 9.03857 15.7357 9.03857C18.9661 9.03857 19.5637 11.165 19.5637 13.9274V19.5602H16.3741V14.5706C16.3741 13.3778 16.3525 11.849 14.7157 11.849C13.0549 11.849 12.8005 13.145 12.8005 14.4842V19.5626H9.61328V9.29537Z" fill="white"/>
</g>
</g>
</g>
</g>
<defs>
<clipPath id="clip0_366_49661">
<rect width="24" height="24" fill="white"/>
</clipPath>
</defs>
</svg>
