<svg width="32" height="33" viewBox="0 0 32 33" fill="none" xmlns="http://www.w3.org/2000/svg">
<g id="Layer_1" clip-path="url(#clip0_339_46580)">
<g id="Group">
<g id="Dark_Blue">
<path id="Vector" d="M16 0.5C24.8352 0.5 32 7.6648 32 16.5C32 25.3352 24.8352 32.5 16 32.5C7.1648 32.5 0 25.3352 0 16.5C0 7.6648 7.1648 0.5 16 0.5Z" fill="#1DA1F2"/>
</g>
<g id="Logo_FIXED">
<path id="Vector_2" d="M12.2875 24.628C19.8331 24.628 23.9643 18.3752 23.9643 12.9512C23.9643 12.7752 23.9643 12.596 23.9515 12.42C24.7547 11.8376 25.4491 11.1208 25.9995 10.2952C25.2507 10.628 24.4571 10.8456 23.6443 10.9416C24.5019 10.4296 25.1419 9.62321 25.4491 8.67281C24.6427 9.14961 23.7627 9.48881 22.8443 9.66801C21.2891 8.01681 18.6907 7.93681 17.0395 9.48881C15.9739 10.4904 15.5227 11.9848 15.8523 13.4088C12.5531 13.2424 9.47786 11.684 7.39466 9.12081C6.30666 10.996 6.86026 13.3928 8.66506 14.5992C8.01226 14.58 7.37226 14.404 6.80266 14.0872C6.80266 14.1032 6.80266 14.1224 6.80266 14.1384C6.80266 16.0904 8.17866 17.7736 10.0955 18.1608C9.49066 18.324 8.85706 18.3496 8.24266 18.2312C8.78026 19.9016 10.3195 21.0472 12.0763 21.0824C10.6235 22.2248 8.82826 22.8456 6.98186 22.8424C6.65546 22.8424 6.32906 22.8232 6.00586 22.7816C7.87466 23.988 10.0603 24.628 12.2875 24.6248" fill="white"/>
</g>
</g>
</g>
<defs>
<clipPath id="clip0_339_46580">
<rect width="32" height="32" fill="white" transform="translate(0 0.5)"/>
</clipPath>
</defs>
</svg>
