<svg width="33" height="32" viewBox="0 0 33 32" fill="none" xmlns="http://www.w3.org/2000/svg">
<g id="Web Development" clip-path="url(#clip0_179_184)">
<g id="Group">
<path id="Vector" fill-rule="evenodd" clip-rule="evenodd" d="M14.289 31.6659H30.8602C31.7619 31.6659 32.5001 30.9277 32.5001 30.0278V1.97386C32.5001 1.07217 31.7619 0.333984 30.8602 0.333984H14.289C13.3874 0.333984 12.6492 1.07217 12.6492 1.97386V30.0277C12.6492 30.9276 13.3874 31.6659 14.289 31.6659Z" fill="#445EA0"/>
<path id="Vector_2" fill-rule="evenodd" clip-rule="evenodd" d="M15.0073 2.69238H30.1416V27.6928H15.0073V2.69238Z" fill="#E9E9FF"/>
<path id="Vector_3" fill-rule="evenodd" clip-rule="evenodd" d="M16.9436 5.05615H28.2054V17.2268H16.9436V5.05615Z" fill="#0CB4FB"/>
<path id="Vector_4" fill-rule="evenodd" clip-rule="evenodd" d="M23.5427 19.9478H28.2055V25.329H23.5427V19.9478Z" fill="#ED524E"/>
<path id="Vector_5" fill-rule="evenodd" clip-rule="evenodd" d="M16.9436 19.9478H21.6064V25.329H16.9436V19.9478Z" fill="#FCA92A"/>
<path id="Vector_6" d="M26.2441 11.5849V10.6976H25.0383C24.9747 10.3439 24.8353 10.0081 24.6296 9.71336L25.4823 8.85942L24.8543 8.23249L24.0021 9.08605C23.7075 8.88057 23.3719 8.74127 23.0183 8.67774V7.47192H22.131V8.67774C21.7774 8.74133 21.4417 8.88068 21.147 9.08624L20.293 8.23224L19.6656 8.85967L20.5196 9.71367C20.314 10.0083 20.1746 10.344 20.1111 10.6977H18.9053V11.585H20.1111C20.1746 11.9385 20.3139 12.2742 20.5194 12.5688L19.6658 13.421L20.2928 14.0489L21.1467 13.1963C21.4414 13.402 21.7772 13.5414 22.131 13.605V14.8108H23.0183V13.605C23.3719 13.5414 23.7076 13.402 24.0023 13.1965L24.8545 14.0487L25.482 13.4212L24.6298 12.569C24.8354 12.2744 24.9747 11.9386 25.0383 11.585H26.2441V11.5849ZM22.5746 12.7578C21.6833 12.7578 20.9582 12.0327 20.9582 11.1413C20.9582 10.25 21.6834 9.52486 22.5746 9.52486C23.466 9.52486 24.1911 10.25 24.1911 11.1413C24.1911 12.0327 23.466 12.7578 22.5746 12.7578Z" fill="#E9E9FF"/>
<g id="Group_2">
<path id="Vector_7" fill-rule="evenodd" clip-rule="evenodd" d="M16.9436 5.05615H17.8453V17.2268H16.9436V5.05615Z" fill="#0193FA"/>
<path id="Vector_8" fill-rule="evenodd" clip-rule="evenodd" d="M16.9436 19.9478H17.8453V25.329H16.9436V19.9478Z" fill="#CC8922"/>
<path id="Vector_9" fill-rule="evenodd" clip-rule="evenodd" d="M23.5427 19.9478H24.4444V25.329H23.5427V19.9478Z" fill="#C0433F"/>
<path id="Vector_10" fill-rule="evenodd" clip-rule="evenodd" d="M14.2888 31.6659H15.0162C14.1146 31.6659 13.3782 30.9277 13.3782 30.0278V1.97386C13.3782 1.07217 14.1146 0.333984 15.0162 0.333984H14.2888C13.3871 0.333984 12.6489 1.07217 12.6489 1.97386V30.0277C12.6489 30.9276 13.3872 31.6659 14.2888 31.6659Z" fill="#293D7C"/>
<path id="Vector_11" fill-rule="evenodd" clip-rule="evenodd" d="M15.0074 21.4099V28.4669L12.843 31.2222H3.10973L0.943604 28.4669V21.4099C2.9876 19.7089 5.39623 18.7246 7.97548 18.7246C10.5547 18.7246 12.9634 19.7089 15.0074 21.4099Z" fill="#ED524E"/>
<path id="Vector_12" fill-rule="evenodd" clip-rule="evenodd" d="M1.72129 29.4548L0.943604 28.4669V21.4099C2.9876 19.7089 5.39623 18.7246 7.97548 18.7246C8.10479 18.7246 8.2341 18.7282 8.36348 18.7336C5.93148 18.827 3.66117 19.7934 1.72135 21.4099L1.72129 29.4548Z" fill="#C0433F"/>
<path id="Vector_13" fill-rule="evenodd" clip-rule="evenodd" d="M15.0074 25.5283V28.4668L12.843 31.2221H3.10973L0.943604 28.4668V25.5283H15.0074Z" fill="#F7A166"/>
<path id="Vector_14" fill-rule="evenodd" clip-rule="evenodd" d="M2.74146 31.2222H13.2093V24.8136C13.2093 24.4867 12.9399 24.2173 12.613 24.2173H3.33958C3.01089 24.2173 2.74146 24.4867 2.74146 24.8136V31.2222Z" fill="#4F5D99"/>
</g>
<path id="Vector_15" d="M6.68286 26.4192L5.37886 27.7233L6.68286 29.0273L6.05549 29.6547L4.4378 28.037C4.3546 27.9538 4.30786 27.841 4.30786 27.7233C4.30786 27.6056 4.3546 27.4928 4.4378 27.4096L6.05549 25.7919L6.68286 26.4192ZM11.5149 27.4021L9.89692 25.7865L9.26999 26.4143L10.5738 27.7163L9.26999 29.0201L9.89736 29.6475L11.5151 28.0298C11.5983 27.9465 11.645 27.8336 11.645 27.7159C11.6449 27.5982 11.5981 27.4853 11.5149 27.4021ZM6.89161 30.0523L7.74867 30.2818L9.05942 25.387L8.20236 25.1575L6.89161 30.0523Z" fill="#E9E9FF"/>
<path id="Vector_16" d="M0.943687 31.6659H0.5V30.7786H15.4511V31.6659H0.943687Z" fill="#293D7C"/>
<path id="Vector_17" fill-rule="evenodd" clip-rule="evenodd" d="M1.72129 29.4547V25.5283H0.943604V28.4668L1.72129 29.4547Z" fill="#C88353"/>
<path id="Vector_18" fill-rule="evenodd" clip-rule="evenodd" d="M5.66217 17.8464H10.2908V20.4508C10.2908 21.7242 9.24905 22.7661 7.97555 22.7661C6.70211 22.7661 5.66211 21.7243 5.66211 20.4508L5.66217 17.8464Z" fill="#F7A166"/>
<path id="Vector_19" fill-rule="evenodd" clip-rule="evenodd" d="M5.6622 17.8464H10.2908V20.4508C10.2908 20.5155 10.2873 20.5801 10.2818 20.643C9.87414 20.8837 9.43226 21.0687 8.95626 21.1782C8.63476 21.2519 8.30608 21.2896 7.97558 21.2896C7.64508 21.2896 7.31639 21.2519 6.99489 21.1782C6.51889 21.0687 6.07708 20.8837 5.66933 20.643C5.66421 20.5791 5.66182 20.5149 5.66214 20.4508L5.6622 17.8464Z" fill="#C88353"/>
<path id="Vector_20" fill-rule="evenodd" clip-rule="evenodd" d="M7.97561 6.22534C11.1943 6.22534 13.8041 7.55272 13.8041 11.3282C13.8041 15.1054 11.1943 18.166 7.97561 18.166C4.75693 18.166 2.14893 15.1054 2.14893 11.3282C2.14893 7.55265 4.75693 6.22534 7.97561 6.22534Z" fill="#53290E"/>
<path id="Vector_21" fill-rule="evenodd" clip-rule="evenodd" d="M12.0815 10.0368C12.4802 11.0409 12.7101 12.2047 12.7101 13.4441C12.7101 17.2214 10.5907 20.282 7.97549 20.282C5.36211 20.282 3.24268 17.2214 3.24268 13.4441C3.24268 12.1581 3.48874 10.9547 3.91624 9.92725C5.03524 10.6691 6.67149 11.0839 8.49461 10.9816C9.83455 10.9044 11.0739 10.5595 12.0815 10.0368Z" fill="#F7A166"/>
<path id="Vector_22" fill-rule="evenodd" clip-rule="evenodd" d="M9.53106 5.50515C9.89031 5.91109 10.5046 6.15177 11.2033 6.10327C11.9846 6.04759 12.6618 5.64346 12.9923 5.10284C13.8436 5.65427 14.3555 6.38709 14.3555 7.21327C14.3555 9.12434 11.6182 10.8127 8.24325 10.9834C4.86831 11.154 2.13281 9.74227 2.13281 7.83115C2.13275 5.12615 7.16913 3.2384 9.53106 5.50515Z" fill="#6C3315"/>
<path id="Vector_23" d="M9.15827 16.9347L9.64683 17.3389L9.44477 17.5832C9.04227 18.0697 8.55471 18.3268 8.03483 18.3268C7.51489 18.3268 7.02733 18.0697 6.62489 17.5832L6.42277 17.3389L6.91133 16.9347L7.11339 17.179C7.30733 17.4134 7.62458 17.6927 8.03489 17.6927C8.44514 17.6927 8.76239 17.4134 8.95627 17.179L9.15827 16.9347ZM5.56958 14.9985H6.20358V13.5994H5.56958V14.9985ZM9.74739 13.5994V14.9985H10.3814V13.5994H9.74739Z" fill="#53290E"/>
</g>
</g>
<defs>
<clipPath id="clip0_179_184">
<rect width="32" height="32" fill="white" transform="translate(0.5)"/>
</clipPath>
</defs>
</svg>
